<svg width="18" height="18" viewBox="0 0 18 18" fill="none" xmlns="http://www.w3.org/2000/svg">
<path fill-rule="evenodd" clip-rule="evenodd" d="M17.9986 0.250001C17.9986 0.250001 11.4457 0.234677 6.33707 5.34329C6.10082 5.57955 5.89006 5.83308 5.7039 6.09924C4.79783 6.0283 3.4149 6.0574 2.70911 6.76366C1.05246 8.42031 0.5 11.1819 0.5 11.1819L4.15039 10.6604V11.9113L6.3398 14.1007H7.59066L7.06934 17.75C7.06934 17.75 9.83091 17.1975 11.4876 15.5409C12.1946 14.8343 12.2229 13.449 12.1517 12.543C12.4171 12.3573 12.6697 12.147 12.9053 11.9115C18.0139 6.8029 17.9986 0.250001 17.9986 0.250001ZM10.7159 6.07309C10.7159 5.26666 11.3691 4.61349 12.1754 4.61349C12.9819 4.61349 13.6351 5.26666 13.6351 6.07309C13.6351 6.87953 12.9819 7.5327 12.1754 7.5327C11.3691 7.5327 10.7159 6.87953 10.7159 6.07309Z" fill="#7D7D9E"/>
</svg>
