<svg xmlns="http://www.w3.org/2000/svg" viewBox="0 0 360.01 462.26"><defs><style>.cls-1{fill:#fff;}.cls-2{fill:#0c0c0c;}.cls-3{fill:#4c4c4c;}.cls-4{fill:#fe4f5b;}.cls-5{fill:#3edd31;}.cls-6{fill:#51fc6d;}.cls-7{fill:#c6c6c6;}</style></defs><g id="Layer_2" data-name="Layer 2"><g id="Layer_1-2" data-name="Layer 1"><path class="cls-1" d="M146.66,155.13l-5.2-.34-1.15,2.33-2.65-.17,5.72-10.87,2.56.16,4.27,11.53-2.72-.18Zm-.69-2-1.5-4.41-2.05,4.17Z" transform="translate(0 -2.73)"/><path class="cls-1" d="M152,146l2.49.17L153.7,158l-2.5-.17Z" transform="translate(0 -2.73)"/><path class="cls-1" d="M170.4,150.44l-3.68,8.4-2.4-.15-1.59-5.47-2.35,5.21-2.39-.16-2.55-8.8,2.35.15,1.66,6,2.49-5.69,2.11.14,1.67,5.95,2.47-5.68Z" transform="translate(0 -2.73)"/><path class="cls-1" d="M177.77,151.75a3.63,3.63,0,0,1,.88,2.94l-.32,4.91-2.33-.15.07-1.07a2.81,2.81,0,0,1-2.7,1,4.25,4.25,0,0,1-1.7-.45,2.6,2.6,0,0,1-1-1,2.45,2.45,0,0,1-.3-1.37,2.23,2.23,0,0,1,1-1.83,4.59,4.59,0,0,1,2.83-.51l2,.13a1.6,1.6,0,0,0-.42-1.28,2.13,2.13,0,0,0-1.46-.54,4.17,4.17,0,0,0-1.36.13,3.46,3.46,0,0,0-1.17.51l-.78-1.8a5.44,5.44,0,0,1,1.74-.66,7.31,7.31,0,0,1,2-.14A4.53,4.53,0,0,1,177.77,151.75Zm-2.52,5.8a1.62,1.62,0,0,0,.76-.83l.06-.88-1.71-.11c-1-.07-1.56.23-1.6.91a.91.91,0,0,0,.32.78,1.75,1.75,0,0,0,1,.35A2.3,2.3,0,0,0,175.25,157.55Z" transform="translate(0 -2.73)"/><path class="cls-1" d="M189.53,151.69l-4.48,8.88a4.49,4.49,0,0,1-1.6,2,3.61,3.61,0,0,1-2.15.47,4.67,4.67,0,0,1-1.31-.29,3,3,0,0,1-1-.65l1-1.72a2.15,2.15,0,0,0,1.38.64,1.36,1.36,0,0,0,.85-.19,2.2,2.2,0,0,0,.62-.79l0-.08-3.16-8.91,2.57.17,2,6,2.81-5.68Z" transform="translate(0 -2.73)"/><path class="cls-1" d="M190.67,160.27a5.61,5.61,0,0,1-1.59-.77l.95-1.74a5.24,5.24,0,0,0,1.36.69,5.67,5.67,0,0,0,1.58.34c1.06.07,1.6-.16,1.64-.68a.57.57,0,0,0-.4-.56,7.3,7.3,0,0,0-1.31-.36,12.19,12.19,0,0,1-1.72-.48,2.72,2.72,0,0,1-1.14-.81,2.08,2.08,0,0,1-.41-1.54,2.27,2.27,0,0,1,.57-1.41,3.07,3.07,0,0,1,1.44-.9,6,6,0,0,1,2.15-.21,8.7,8.7,0,0,1,1.81.32,5.08,5.08,0,0,1,1.46.65l-.95,1.72a5,5,0,0,0-2.44-.8,2.47,2.47,0,0,0-1.21.14.65.65,0,0,0-.44.55.56.56,0,0,0,.39.59,8,8,0,0,0,1.36.39,16.54,16.54,0,0,1,1.7.49,2.5,2.5,0,0,1,1.12.81,2,2,0,0,1,.4,1.5,2.22,2.22,0,0,1-.57,1.39,3,3,0,0,1-1.46.88,6.39,6.39,0,0,1-2.21.2A8.6,8.6,0,0,1,190.67,160.27Z" transform="translate(0 -2.73)"/><path class="cls-1" d="M204.57,160.87a4.27,4.27,0,0,1-1.59-1.68,4.39,4.39,0,0,1,2.09-6.05,5.58,5.58,0,0,1,4.87.32,4.26,4.26,0,0,1,2,4,4.35,4.35,0,0,1-.76,2.25,4.2,4.2,0,0,1-1.78,1.47,5.5,5.5,0,0,1-4.87-.32Zm4.15-1.87a2.35,2.35,0,0,0,.73-1.69,2.39,2.39,0,0,0-.5-1.77,2.24,2.24,0,0,0-3.16-.21,2.42,2.42,0,0,0-.74,1.69,2.47,2.47,0,0,0,.51,1.78,2.1,2.1,0,0,0,1.55.75A2.06,2.06,0,0,0,208.72,159Z" transform="translate(0 -2.73)"/><path class="cls-1" d="M216.65,153.65l2.2.14-.12,1.92-2.15-.13-.42,6.49-2.49-.16.42-6.5-1.33-.08.13-1.92,1.33.08,0-.38a3.17,3.17,0,0,1,1-2.28,3.35,3.35,0,0,1,2.52-.7,4,4,0,0,1,1.05.19,2.61,2.61,0,0,1,.82.39l-.78,1.77a1.66,1.66,0,0,0-1-.37c-.76-.05-1.16.34-1.22,1.17Z" transform="translate(0 -2.73)"/><path class="cls-1" d="M222.84,154.05l2.2.15-.12,1.92-2.14-.14-.43,6.49-2.49-.16.42-6.49-1.33-.09.13-1.92,1.33.09,0-.39a3.21,3.21,0,0,1,1-2.28,3.39,3.39,0,0,1,2.52-.7,4.44,4.44,0,0,1,1.05.19,2.51,2.51,0,0,1,.82.4l-.77,1.76a1.79,1.79,0,0,0-1-.37c-.76,0-1.16.35-1.22,1.18Z" transform="translate(0 -2.73)"/><path class="cls-1" d="M234.25,159.64l-6.51-.43a2,2,0,0,0,.75,1.32,2.71,2.71,0,0,0,1.6.57,3.27,3.27,0,0,0,1.2-.12,2.76,2.76,0,0,0,1-.57l1.24,1.52a4.48,4.48,0,0,1-3.65,1.16,5.51,5.51,0,0,1-2.53-.73,4.13,4.13,0,0,1-1.63-1.69,4.42,4.42,0,0,1-.46-2.33,4.5,4.5,0,0,1,.75-2.24,4.34,4.34,0,0,1,1.75-1.48,5,5,0,0,1,2.38-.41,4.85,4.85,0,0,1,2.26.7,4,4,0,0,1,1.5,1.66,4.69,4.69,0,0,1,.43,2.4S234.31,159.22,234.25,159.64Zm-5.66-3.15a2,2,0,0,0-.79,1.26L232,158a2.08,2.08,0,0,0-.62-1.35,2.31,2.31,0,0,0-2.83-.19Z" transform="translate(0 -2.73)"/><path class="cls-1" d="M239.87,155.17a4.54,4.54,0,0,1,1.77-.21l-.15,2.3-.56-.06a2.28,2.28,0,0,0-1.72.48,2.46,2.46,0,0,0-.72,1.77l-.27,4.06-2.5-.16.57-8.61,2.38.15L238.6,156A2.67,2.67,0,0,1,239.87,155.17Z" transform="translate(0 -2.73)"/><path class="cls-1" d="M243.4,163.71a5.35,5.35,0,0,1-1.59-.77l.95-1.74a5.17,5.17,0,0,0,1.35.69,6,6,0,0,0,1.58.34c1.06.07,1.6-.16,1.64-.68a.57.57,0,0,0-.4-.56,7.3,7.3,0,0,0-1.31-.36,12.19,12.19,0,0,1-1.72-.48,2.72,2.72,0,0,1-1.14-.81,2.09,2.09,0,0,1-.41-1.54,2.45,2.45,0,0,1,.57-1.42,3.06,3.06,0,0,1,1.44-.89,5.86,5.86,0,0,1,2.16-.21,8,8,0,0,1,1.8.32,5.08,5.08,0,0,1,1.46.65l-.95,1.72a4.85,4.85,0,0,0-2.44-.8,2.47,2.47,0,0,0-1.21.14.67.67,0,0,0-.44.55.57.57,0,0,0,.4.59,7.54,7.54,0,0,0,1.35.39,16.83,16.83,0,0,1,1.71.49,2.52,2.52,0,0,1,1.11.81,2,2,0,0,1,.4,1.5,2.22,2.22,0,0,1-.57,1.39,3,3,0,0,1-1.46.88,6.36,6.36,0,0,1-2.21.2A8.52,8.52,0,0,1,243.4,163.71Z" transform="translate(0 -2.73)"/><path class="cls-1" d="M261.18,164.59a2.62,2.62,0,0,1-.93.35,5.25,5.25,0,0,1-1.13.06,3.38,3.38,0,0,1-2.33-.94,3,3,0,0,1-.69-2.36l.23-3.53-1.32-.09.12-1.92,1.33.09.14-2.1,2.49.17-.13,2.09,2.14.14-.13,1.92-2.14-.14-.23,3.5a1.16,1.16,0,0,0,.23.86,1,1,0,0,0,.77.35,1.62,1.62,0,0,0,1-.25Z" transform="translate(0 -2.73)"/><path class="cls-1" d="M264,164.75a4.23,4.23,0,0,1-1.59-1.69,4.42,4.42,0,0,1-.46-2.33,4.35,4.35,0,0,1,.76-2.24,4.23,4.23,0,0,1,1.79-1.47,5.18,5.18,0,0,1,2.48-.41,5.09,5.09,0,0,1,2.39.73,4.25,4.25,0,0,1,1.58,1.68,4.61,4.61,0,0,1-.3,4.58,4.25,4.25,0,0,1-1.78,1.46,5,5,0,0,1-2.47.41A5.2,5.2,0,0,1,264,164.75Zm4.15-1.87a2.76,2.76,0,0,0,.23-3.47,2.26,2.26,0,0,0-3.16-.21,2.4,2.4,0,0,0-.74,1.7,2.37,2.37,0,0,0,.51,1.77,2.14,2.14,0,0,0,1.54.76A2.08,2.08,0,0,0,268.13,162.88Z" transform="translate(0 -2.73)"/><path class="cls-1" d="M279,165.73a4.46,4.46,0,0,1-1.31-6.27,4.3,4.3,0,0,1,1.82-1.46,5.43,5.43,0,0,1,2.51-.41,4.72,4.72,0,0,1,2.33.73,3.35,3.35,0,0,1,1.38,1.72l-2,.91a2.11,2.11,0,0,0-1.85-1.31,2.24,2.24,0,0,0-1.66.53,2.72,2.72,0,0,0-.23,3.49,2.17,2.17,0,0,0,1.58.75,2.11,2.11,0,0,0,2-1.06l1.87,1.18a3.53,3.53,0,0,1-1.59,1.51,4.84,4.84,0,0,1-2.41.42A5.41,5.41,0,0,1,279,165.73Z" transform="translate(0 -2.73)"/><path class="cls-1" d="M288.32,166.33a4.18,4.18,0,0,1-1.58-1.68,4.61,4.61,0,0,1,.3-4.58,4.22,4.22,0,0,1,1.79-1.46,5.16,5.16,0,0,1,2.47-.41,5.09,5.09,0,0,1,2.4.73,4.25,4.25,0,0,1,1.58,1.68,4.32,4.32,0,0,1,.45,2.33,4.41,4.41,0,0,1-.75,2.25,4.28,4.28,0,0,1-1.79,1.46,5.1,5.1,0,0,1-2.46.41A5.17,5.17,0,0,1,288.32,166.33Zm4.16-1.86a2.74,2.74,0,0,0,.22-3.47,2.06,2.06,0,0,0-1.53-.75,2.15,2.15,0,0,0-1.63.54,2.44,2.44,0,0,0-.73,1.7,2.37,2.37,0,0,0,.51,1.77,2.1,2.1,0,0,0,1.54.75A2.07,2.07,0,0,0,292.48,164.47Z" transform="translate(0 -2.73)"/><path class="cls-1" d="M311.21,160.45a3.88,3.88,0,0,1,.77,2.92l-.32,4.93-2.5-.16.3-4.55a2.35,2.35,0,0,0-.33-1.55,1.46,1.46,0,0,0-1.17-.58,1.8,1.8,0,0,0-1.43.47,2.46,2.46,0,0,0-.62,1.66l-.28,4.32-2.5-.17.3-4.54c.09-1.35-.41-2.07-1.5-2.14a1.73,1.73,0,0,0-1.41.48,2.45,2.45,0,0,0-.63,1.65l-.28,4.32-2.49-.16.56-8.61,2.38.16-.06,1a3.1,3.1,0,0,1,1.23-.75,3.72,3.72,0,0,1,1.54-.19,3.65,3.65,0,0,1,1.63.47,2.91,2.91,0,0,1,1.11,1.12,3.56,3.56,0,0,1,1.41-.95,4.08,4.08,0,0,1,1.79-.25A3.47,3.47,0,0,1,311.21,160.45Z" transform="translate(0 -2.73)"/><path class="cls-1" d="M321.7,160.74a4,4,0,0,1,1.44,1.65,4.66,4.66,0,0,1,.41,2.36,4.76,4.76,0,0,1-.71,2.29,4,4,0,0,1-1.65,1.46,4.36,4.36,0,0,1-2.22.4,3.32,3.32,0,0,1-2.52-1.2l-.26,4-2.5-.16.77-11.71,2.38.15-.06,1a3.31,3.31,0,0,1,2.77-1A4.39,4.39,0,0,1,321.7,160.74Zm-1.41,5.54a2.76,2.76,0,0,0,.23-3.47,2.24,2.24,0,0,0-3.15-.2,2.76,2.76,0,0,0-.23,3.47,2.24,2.24,0,0,0,3.15.2Z" transform="translate(0 -2.73)"/><path class="cls-1" d="M325.71,157.29l2.49.17-.77,11.87-2.5-.17Z" transform="translate(0 -2.73)"/><path class="cls-1" d="M338.36,166.43l-6.51-.43a2.11,2.11,0,0,0,.75,1.32,2.73,2.73,0,0,0,1.6.57,3.35,3.35,0,0,0,1.21-.12,2.94,2.94,0,0,0,1-.57l1.23,1.52a4.42,4.42,0,0,1-3.64,1.16,5.55,5.55,0,0,1-2.54-.73,4.17,4.17,0,0,1-1.62-1.69,4.62,4.62,0,0,1,.29-4.57,4.12,4.12,0,0,1,1.75-1.47,5.06,5.06,0,0,1,4.63.28,4,4,0,0,1,1.51,1.66,4.8,4.8,0,0,1,.43,2.4S338.42,166,338.36,166.43Zm-5.65-3.15a2,2,0,0,0-.79,1.26l4.24.28a2.08,2.08,0,0,0-.62-1.35,2.14,2.14,0,0,0-1.38-.58A2.08,2.08,0,0,0,332.71,163.28Z" transform="translate(0 -2.73)"/><path class="cls-1" d="M345.42,170.08a2.57,2.57,0,0,1-.93.35,4.3,4.3,0,0,1-1.14.06,3.35,3.35,0,0,1-2.32-.93,3,3,0,0,1-.69-2.36l.23-3.54-1.33-.08.13-1.92,1.32.08.14-2.09,2.5.16-.14,2.1,2.14.13-.12,1.92-2.15-.13-.23,3.5a1.22,1.22,0,0,0,.23.86,1,1,0,0,0,.77.34,1.55,1.55,0,0,0,1-.25Z" transform="translate(0 -2.73)"/><path class="cls-1" d="M355.14,167.52l-6.51-.42a2,2,0,0,0,.75,1.31,2.73,2.73,0,0,0,1.6.57,3.35,3.35,0,0,0,1.21-.12,2.94,2.94,0,0,0,1-.57l1.23,1.53a4.48,4.48,0,0,1-3.64,1.16,5.56,5.56,0,0,1-2.54-.74,4.15,4.15,0,0,1-1.62-1.68,4.25,4.25,0,0,1-.46-2.33,4.31,4.31,0,0,1,.75-2.24,4.21,4.21,0,0,1,1.75-1.48,4.82,4.82,0,0,1,2.38-.41,4.72,4.72,0,0,1,2.25.69,4,4,0,0,1,1.51,1.66,4.84,4.84,0,0,1,.43,2.4S355.2,167.11,355.14,167.52Zm-5.65-3.15a2,2,0,0,0-.79,1.27l4.23.28a2,2,0,0,0-.61-1.35,2,2,0,0,0-1.38-.58A2.13,2.13,0,0,0,349.49,164.37Z" transform="translate(0 -2.73)"/><path class="cls-1" d="M356.71,170.94a1.38,1.38,0,0,1-.37-1.06,1.3,1.3,0,0,1,.5-1,1.54,1.54,0,0,1,1.13-.33A1.51,1.51,0,0,1,359,169a1.32,1.32,0,0,1,.37,1,1.38,1.38,0,0,1-.51,1,1.47,1.47,0,0,1-1.12.35A1.5,1.5,0,0,1,356.71,170.94ZM357,160l3,.2-1,7.27-2-.12Z" transform="translate(0 -2.73)"/><path class="cls-2" d="M299,211.4a27.75,27.75,0,0,0-20.81,7.52c-.59.56-1.14,1.14-1.68,1.75l-85-5.55a4.44,4.44,0,0,1-4.14-4.72l1.26-19.35a4.46,4.46,0,0,1,4.72-4.15l105.18,6.87c2.25.14,2.62.37,3.44,1.3s.73,3,.58,4.86l-.75,11.8-.54-.09C300.55,211.54,299.79,211.45,299,211.4Z" transform="translate(0 -2.73)"/><path class="cls-3" d="M202.53,204.31l-.07,1-5.71-.37.51-7.88,5.56.36-.07,1-4.43-.29-.15,2.42,3.94.26-.06,1-4-.26-.16,2.54Z" transform="translate(0 -2.73)"/><path class="cls-3" d="M208.47,200.25a2.36,2.36,0,0,1,.54,1.85l-.24,3.6-1-.07.05-.78a1.73,1.73,0,0,1-.81.58,3.05,3.05,0,0,1-1.2.14,2.45,2.45,0,0,1-1.57-.59,1.52,1.52,0,0,1-.52-1.31,1.55,1.55,0,0,1,.65-1.22,2.78,2.78,0,0,1,1.86-.36l1.71.11V202a1.4,1.4,0,0,0-.33-1.1,1.74,1.74,0,0,0-1.17-.45,3.11,3.11,0,0,0-1.05.11,2.56,2.56,0,0,0-.88.41l-.4-.84a3.29,3.29,0,0,1,1.14-.5,4.41,4.41,0,0,1,1.37-.1A2.67,2.67,0,0,1,208.47,200.25Zm-1.36,4.29a1.55,1.55,0,0,0,.7-.73l.06-.84-1.67-.1c-.91-.06-1.39.21-1.43.83a.84.84,0,0,0,.3.73,1.6,1.6,0,0,0,1,.32A1.94,1.94,0,0,0,207.11,204.54Z" transform="translate(0 -2.73)"/><path class="cls-3" d="M213,200.21a3,3,0,0,1,1.35-.19l-.07,1-.24,0a1.82,1.82,0,0,0-1.41.43,2.07,2.07,0,0,0-.6,1.46l-.2,3-1.08-.07.39-6,1,.07-.07,1A1.83,1.83,0,0,1,213,200.21Z" transform="translate(0 -2.73)"/><path class="cls-3" d="M220.64,201.09a2.61,2.61,0,0,1,.55,2l-.23,3.43-1.08-.07.22-3.3a1.81,1.81,0,0,0-.33-1.33,1.57,1.57,0,0,0-1.17-.52,1.84,1.84,0,0,0-1.41.42,2,2,0,0,0-.6,1.44l-.2,3.07-1.08-.08.39-6,1,.07-.06.9a2.15,2.15,0,0,1,.93-.65,3.11,3.11,0,0,1,1.28-.16A2.43,2.43,0,0,1,220.64,201.09Z" transform="translate(0 -2.73)"/><path class="cls-3" d="M232.09,200.05a2.74,2.74,0,0,1-.26,4,3.71,3.71,0,0,1-2.46.58l-1.94-.13-.16,2.39-1.12-.08.51-7.87,3.07.2A3.65,3.65,0,0,1,232.09,200.05Zm-1,3.27a1.82,1.82,0,0,0,.18-2.62,2.52,2.52,0,0,0-1.61-.56l-1.91-.13-.23,3.53,1.91.13A2.56,2.56,0,0,0,231.06,203.32Z" transform="translate(0 -2.73)"/><path class="cls-3" d="M235,207.08a2.91,2.91,0,0,1-1-1.16,3.33,3.33,0,0,1,.21-3.14,2.8,2.8,0,0,1,1.18-1,3.24,3.24,0,0,1,1.62-.29,3.38,3.38,0,0,1,1.57.49,2.89,2.89,0,0,1,1,1.16,3.23,3.23,0,0,1,.3,1.59,3,3,0,0,1-.51,1.54,2.76,2.76,0,0,1-1.17,1,3.2,3.2,0,0,1-1.62.29A3.31,3.31,0,0,1,235,207.08Zm2.68-.64a1.92,1.92,0,0,0,.77-.7,2.53,2.53,0,0,0,.14-2.19,1.91,1.91,0,0,0-.67-.79,2,2,0,0,0-1-.32,2.06,2.06,0,0,0-1.05.19,1.89,1.89,0,0,0-.77.69,2.36,2.36,0,0,0-.33,1.08,2.25,2.25,0,0,0,.19,1.11,1.92,1.92,0,0,0,.67.79,2,2,0,0,0,1,.33A2,2,0,0,0,237.63,206.44Z" transform="translate(0 -2.73)"/><path class="cls-3" d="M241.5,201.85l1.08.07-.38,6-1.08-.07Zm.11-1.35a.67.67,0,0,1-.18-.51.72.72,0,0,1,.78-.66.72.72,0,0,1,.51.23.66.66,0,0,1,.18.5.72.72,0,0,1-.78.68A.77.77,0,0,1,241.61,200.5Z" transform="translate(0 -2.73)"/><path class="cls-3" d="M249.59,203a2.57,2.57,0,0,1,.54,2l-.22,3.43-1.08-.07.22-3.3a1.94,1.94,0,0,0-.33-1.34,1.57,1.57,0,0,0-1.17-.51,1.84,1.84,0,0,0-1.41.42,2,2,0,0,0-.61,1.43l-.2,3.07-1.08-.07.39-6,1,.07-.06.9a2.15,2.15,0,0,1,.93-.65,3,3,0,0,1,1.28-.16A2.41,2.41,0,0,1,249.59,203Z" transform="translate(0 -2.73)"/><path class="cls-3" d="M255.29,208.38a1.48,1.48,0,0,1-.61.27,2.18,2.18,0,0,1-.72.06,2,2,0,0,1-1.37-.57,1.85,1.85,0,0,1-.4-1.42l.21-3.27-1-.07.06-.88,1,.06.08-1.3,1.08.07-.08,1.3,1.71.11-.06.89-1.71-.11-.21,3.23a1.06,1.06,0,0,0,.19.76.92.92,0,0,0,.68.3,1.31,1.31,0,0,0,.86-.22Z" transform="translate(0 -2.73)"/><path class="cls-3" d="M256.88,208.71a3,3,0,0,1-1-.57l.5-.83a3,3,0,0,0,.93.51,4,4,0,0,0,1.12.25q1.43.09,1.47-.72a.5.5,0,0,0-.16-.44,1.21,1.21,0,0,0-.46-.26l-.81-.22a8.56,8.56,0,0,1-1.16-.33,1.92,1.92,0,0,1-.75-.55,1.38,1.38,0,0,1-.26-1,1.53,1.53,0,0,1,.76-1.25,3,3,0,0,1,1.85-.37,4.9,4.9,0,0,1,1.18.22,2.9,2.9,0,0,1,.95.46l-.52.82a3.11,3.11,0,0,0-1.69-.58,2.05,2.05,0,0,0-1.06.15.7.7,0,0,0-.4.58.57.57,0,0,0,.18.47,1.2,1.2,0,0,0,.48.28c.2.07.47.14.83.23a8.88,8.88,0,0,1,1.14.35,1.66,1.66,0,0,1,.73.52,1.3,1.3,0,0,1,.25,1,1.48,1.48,0,0,1-.77,1.24,3.28,3.28,0,0,1-1.92.36A5.37,5.37,0,0,1,256.88,208.71Z" transform="translate(0 -2.73)"/><path class="cls-3" d="M262.18,209a.67.67,0,0,1-.18-.52.64.64,0,0,1,.25-.5.74.74,0,0,1,.54-.18.69.69,0,0,1,.5.25.74.74,0,0,1-.07,1,.67.67,0,0,1-.53.17A.69.69,0,0,1,262.18,209Zm.39-7.74,1.27.08-.56,5.38-.86-.06Z" transform="translate(0 -2.73)"/><path class="cls-2" d="M269.61,239.36a27.29,27.29,0,0,0,3.9,13.79l-84.08-5.48a4.44,4.44,0,0,1-4.14-4.72l1.26-19.36a4.45,4.45,0,0,1,4.72-4.14l82.22,5.37A27.41,27.41,0,0,0,269.61,239.36Z" transform="translate(0 -2.73)"/><path class="cls-3" d="M201.92,229.88l-.51,7.87-.93-.06-4.34-6.18-.38,5.87-1.12-.07.51-7.87.92.06,4.34,6.17.39-5.87Z" transform="translate(0 -2.73)"/><path class="cls-3" d="M209.15,235.62l-4.84-.31a1.88,1.88,0,0,0,.61,1.31,2.28,2.28,0,0,0,1.44.57,2.16,2.16,0,0,0,1.76-.61l.55.74a2.59,2.59,0,0,1-1,.65,3.33,3.33,0,0,1-1.36.16,3.51,3.51,0,0,1-1.65-.49,2.82,2.82,0,0,1-1.06-1.16,3.16,3.16,0,0,1-.3-1.6,3.09,3.09,0,0,1,.5-1.54,2.71,2.71,0,0,1,1.13-1,3,3,0,0,1,1.56-.28,2.9,2.9,0,0,1,1.5.48,2.77,2.77,0,0,1,1,1.16,3.3,3.3,0,0,1,.27,1.62C209.18,235.38,209.17,235.49,209.15,235.62Zm-4.09-2.29a1.94,1.94,0,0,0-.7,1.2l3.83.25a1.92,1.92,0,0,0-.54-1.27,2,2,0,0,0-2.59-.18Z" transform="translate(0 -2.73)"/><path class="cls-3" d="M219.79,233l-2.62,5.82-1-.07-1.43-4.63-2,4.41-1-.07-1.83-6.11,1,.07,1.42,4.86,2.11-4.63.91.06,1.46,4.88,2.08-4.65Z" transform="translate(0 -2.73)"/><path class="cls-3" d="M225.11,238.86a3.8,3.8,0,0,1-1.41-1.54,4.17,4.17,0,0,1,.27-4.12,3.9,3.9,0,0,1,1.6-1.35,4.47,4.47,0,0,1,2.18-.38,4.34,4.34,0,0,1,2.1.66,3.91,3.91,0,0,1,1.4,1.54,4.19,4.19,0,0,1-.27,4.13,3.85,3.85,0,0,1-1.59,1.34,4.25,4.25,0,0,1-2.17.38A4.38,4.38,0,0,1,225.11,238.86Zm3.76-.63a2.84,2.84,0,0,0,1.16-1,3,3,0,0,0,.5-1.52,3,3,0,0,0-.3-1.58,2.83,2.83,0,0,0-1-1.15,3.28,3.28,0,0,0-3.12-.21,2.92,2.92,0,0,0-1.18,1,3.12,3.12,0,0,0-.5,1.52,3.18,3.18,0,0,0,.3,1.57,2.9,2.9,0,0,0,1,1.16,3.32,3.32,0,0,0,3.12.2Z" transform="translate(0 -2.73)"/><path class="cls-3" d="M234.6,233.41l0,.52,1.73.11-.06.89-1.71-.11-.33,5.07-1.08-.07.33-5.07-1-.07.06-.89,1,.07,0-.53a1.86,1.86,0,0,1,.61-1.37,1.92,1.92,0,0,1,1.48-.43,2.42,2.42,0,0,1,.67.14,1.63,1.63,0,0,1,.52.29l-.38.8a1.33,1.33,0,0,0-.81-.33C235,232.38,234.65,232.71,234.6,233.41Z" transform="translate(0 -2.73)"/><path class="cls-3" d="M238.57,233.67l0,.52,1.73.11-.06.89-1.71-.11-.33,5.07-1.08-.07.33-5.07-1-.07.06-.89,1,.07,0-.53a1.89,1.89,0,0,1,.6-1.37,2,2,0,0,1,1.49-.43,2.42,2.42,0,0,1,.67.14,1.63,1.63,0,0,1,.52.29l-.38.8a1.33,1.33,0,0,0-.81-.33C239,232.64,238.62,233,238.57,233.67Z" transform="translate(0 -2.73)"/><path class="cls-3" d="M246.35,238.05l-4.84-.32a1.91,1.91,0,0,0,.61,1.31,2.26,2.26,0,0,0,1.44.58,2.22,2.22,0,0,0,1.77-.61l.55.74a2.67,2.67,0,0,1-1.06.65,3.79,3.79,0,0,1-3-.34,2.76,2.76,0,0,1-1.06-1.16,3.34,3.34,0,0,1,.2-3.13,2.8,2.8,0,0,1,1.14-1,3.11,3.11,0,0,1,1.56-.29,3,3,0,0,1,1.5.49,2.72,2.72,0,0,1,1,1.15,3.32,3.32,0,0,1,.27,1.62A2.43,2.43,0,0,1,246.35,238.05Zm-4.09-2.29a1.93,1.93,0,0,0-.7,1.2l3.83.25a2,2,0,0,0-.53-1.27,1.88,1.88,0,0,0-1.27-.57A1.9,1.9,0,0,0,242.26,235.76Z" transform="translate(0 -2.73)"/><path class="cls-3" d="M249.94,235.14a3.16,3.16,0,0,1,1.35-.18l-.06,1-.25,0a1.82,1.82,0,0,0-1.41.43,2.07,2.07,0,0,0-.6,1.46l-.19,3-1.08-.07.39-6,1,.07-.07,1A1.85,1.85,0,0,1,249.94,235.14Z" transform="translate(0 -2.73)"/><path class="cls-3" d="M252.59,241a3.09,3.09,0,0,1-1-.57l.51-.83a3.18,3.18,0,0,0,.93.52,4.31,4.31,0,0,0,1.12.24c.95.06,1.43-.18,1.47-.72a.54.54,0,0,0-.16-.44,1.25,1.25,0,0,0-.47-.26c-.18-.06-.45-.13-.8-.22a7,7,0,0,1-1.16-.33,1.79,1.79,0,0,1-.75-.55,1.37,1.37,0,0,1-.26-1,1.51,1.51,0,0,1,.76-1.25,3,3,0,0,1,1.84-.37,4.81,4.81,0,0,1,1.18.22,3.3,3.3,0,0,1,1,.46l-.52.82a3.14,3.14,0,0,0-1.69-.58,2,2,0,0,0-1.06.15.7.7,0,0,0-.4.58.56.56,0,0,0,.17.47,1.24,1.24,0,0,0,.49.28c.19.07.47.15.82.24a7.47,7.47,0,0,1,1.15.34,1.81,1.81,0,0,1,.73.52,1.35,1.35,0,0,1,.25,1,1.48,1.48,0,0,1-.77,1.24,3.3,3.3,0,0,1-1.92.36A5.29,5.29,0,0,1,252.59,241Z" transform="translate(0 -2.73)"/><path class="cls-3" d="M257.88,241.29a.71.71,0,0,1,.07-1,.78.78,0,0,1,1.05.07.74.74,0,0,1,.17.52.73.73,0,0,1-.25.5.65.65,0,0,1-.52.17A.73.73,0,0,1,257.88,241.29Zm.4-7.74,1.27.09L259,239l-.85-.06Z" transform="translate(0 -2.73)"/><path class="cls-2" d="M297,284.56a4.44,4.44,0,0,1-4.72,4.14l-105.18-6.86a4.44,4.44,0,0,1-4.14-4.72l1.27-19.36a4.42,4.42,0,0,1,4.72-4.14l89.79,5.86a27.24,27.24,0,0,0,13.37,6.65l.13,0,.16,0a28.89,28.89,0,0,0,3.07.37c.86.05,1.73.06,2.6,0h0l0,0Z" transform="translate(0 -2.73)"/><path class="cls-4" d="M292.21,266.15l.16,0-.19.07Z" transform="translate(0 -2.73)"/><path class="cls-4" d="M298.11,266.6v0l-.08,0h.07Z" transform="translate(0 -2.73)"/><path class="cls-3" d="M197.51,270.57l-4.18-.28-1,1.92-1.16-.08,4.08-7.64,1.11.07,3.06,8.11-1.18-.08Zm-.33-.93-1.45-4-1.95,3.75Z" transform="translate(0 -2.73)"/><path class="cls-3" d="M201,264.39l1.08.07-.54,8.35-1.08-.07Z" transform="translate(0 -2.73)"/><path class="cls-3" d="M204.13,264.6l1.08.07-.55,8.34-1.08-.07Z" transform="translate(0 -2.73)"/><path class="cls-3" d="M213.12,273.21a1.5,1.5,0,0,1-.6.27,2.24,2.24,0,0,1-.73.06,1.91,1.91,0,0,1-1.36-.57,1.86,1.86,0,0,1-.41-1.42l.22-3.27-1-.07.06-.88,1,.06.09-1.3,1.08.07-.09,1.3,1.71.11-.06.89-1.71-.11-.21,3.23a1.07,1.07,0,0,0,.2.76.9.9,0,0,0,.67.3,1.31,1.31,0,0,0,.86-.22Z" transform="translate(0 -2.73)"/><path class="cls-3" d="M219.74,268.61a2.57,2.57,0,0,1,.54,2l-.22,3.44L219,274l.22-3.31a1.85,1.85,0,0,0-.34-1.33,1.53,1.53,0,0,0-1.16-.52,1.86,1.86,0,0,0-1.42.42,2,2,0,0,0-.6,1.44l-.2,3.07-1.08-.07.55-8.35,1.08.07-.21,3.23a2.29,2.29,0,0,1,.92-.61,3.14,3.14,0,0,1,1.24-.15A2.51,2.51,0,0,1,219.74,268.61Z" transform="translate(0 -2.73)"/><path class="cls-3" d="M227.63,271.88l-4.84-.32a1.91,1.91,0,0,0,.61,1.31,2.28,2.28,0,0,0,1.44.58,2.26,2.26,0,0,0,1.77-.61l.55.74a2.7,2.7,0,0,1-1,.65,3.81,3.81,0,0,1-3-.34,2.67,2.67,0,0,1-1.05-1.16,3,3,0,0,1-.3-1.6,3.19,3.19,0,0,1,.49-1.54,2.85,2.85,0,0,1,1.14-1,3.2,3.2,0,0,1,3.06.2,2.72,2.72,0,0,1,1,1.15,3.3,3.3,0,0,1,.27,1.62A1.53,1.53,0,0,1,227.63,271.88Zm-4.09-2.29a1.88,1.88,0,0,0-.69,1.2l3.82.25a2,2,0,0,0-.53-1.28,2,2,0,0,0-2.6-.17Z" transform="translate(0 -2.73)"/><path class="cls-3" d="M235.38,274.66a1.63,1.63,0,0,1-.61.28,2.88,2.88,0,0,1-.72.06,2,2,0,0,1-1.37-.58,1.85,1.85,0,0,1-.4-1.42l.21-3.27-1-.06.06-.89,1,.06.08-1.3,1.08.07-.08,1.31,1.71.11-.06.89-1.71-.12-.21,3.23a1.06,1.06,0,0,0,.19.76.92.92,0,0,0,.68.3,1.31,1.31,0,0,0,.86-.22Z" transform="translate(0 -2.73)"/><path class="cls-3" d="M237.05,269.14l1.08.07-.39,6-1.08-.07Zm.1-1.35a.63.63,0,0,1-.17-.51.68.68,0,0,1,.24-.49.71.71,0,0,1,.53-.17.72.72,0,0,1,.51.23.7.7,0,0,1-.06,1,.74.74,0,0,1-.54.18A.77.77,0,0,1,237.15,267.79Z" transform="translate(0 -2.73)"/><path class="cls-3" d="M249.39,270.54a2.64,2.64,0,0,1,.53,2l-.23,3.43-1.08-.07.22-3.31a1.9,1.9,0,0,0-.31-1.33,1.47,1.47,0,0,0-1.12-.51,1.7,1.7,0,0,0-1.34.42,2.07,2.07,0,0,0-.57,1.44l-.2,3.07-1.08-.07.21-3.31a1.92,1.92,0,0,0-.31-1.33,1.47,1.47,0,0,0-1.12-.51,1.68,1.68,0,0,0-1.33.43,2,2,0,0,0-.58,1.43l-.2,3.07-1.08-.07.39-6,1,.07-.06.89a2.09,2.09,0,0,1,.9-.65,2.85,2.85,0,0,1,1.22-.16,2.65,2.65,0,0,1,1.22.36,1.93,1.93,0,0,1,.78.87,2.32,2.32,0,0,1,1-.74,3.11,3.11,0,0,1,1.38-.21A2.44,2.44,0,0,1,249.39,270.54Z" transform="translate(0 -2.73)"/><path class="cls-3" d="M257.25,273.81l-4.83-.32a1.83,1.83,0,0,0,.61,1.31,2.43,2.43,0,0,0,3.2,0l.55.74a2.7,2.7,0,0,1-1,.65,3.54,3.54,0,0,1-1.36.16,3.41,3.41,0,0,1-1.65-.5,2.73,2.73,0,0,1-1.06-1.15,3.1,3.1,0,0,1-.3-1.61,3.18,3.18,0,0,1,.49-1.53,2.8,2.8,0,0,1,1.14-1,3.11,3.11,0,0,1,1.56-.29,3,3,0,0,1,1.5.49,2.72,2.72,0,0,1,1,1.15,3.37,3.37,0,0,1,.28,1.63A2.86,2.86,0,0,1,257.25,273.81Zm-4.09-2.29a1.88,1.88,0,0,0-.69,1.2l3.82.25a1.91,1.91,0,0,0-.53-1.27,1.86,1.86,0,0,0-1.27-.57A1.9,1.9,0,0,0,253.16,271.52Z" transform="translate(0 -2.73)"/><path class="cls-3" d="M258.58,276.39a.65.65,0,0,1-.18-.53.68.68,0,0,1,.24-.5.76.76,0,0,1,.55-.17.68.68,0,0,1,.5.24.75.75,0,0,1,.17.53.79.79,0,0,1-.24.5.77.77,0,0,1-.53.17A.69.69,0,0,1,258.58,276.39Zm.39-7.74,1.27.08-.57,5.37-.85-.05Z" transform="translate(0 -2.73)"/><path class="cls-4" d="M324,274.52l-10.43-17.59a24.25,24.25,0,0,0-11.91-41.81l-.82-.13A24.12,24.12,0,0,0,281,221a23.4,23.4,0,0,0-3.65,4.11,24.34,24.34,0,0,0,7.57,34.82,23.82,23.82,0,0,0,7.76,2.92l.13,0a25.54,25.54,0,0,0,3.85.4c.4,0,.78,0,1.18,0a24.08,24.08,0,0,0,6.43-1l10.52,17.75a5.32,5.32,0,0,0,9.88-2.37A5.21,5.21,0,0,0,324,274.52Zm-29.66-18.3a17,17,0,0,1-5.78-2.09,17.45,17.45,0,0,1-2.57-28.5,17.37,17.37,0,0,1,13-4.06c.42,0,.83.1,1.25.16a17.49,17.49,0,1,1-5.85,34.49Z" transform="translate(0 -2.73)"/><circle class="cls-4" cx="193.01" cy="177.67" r="3.63"/><path class="cls-1" d="M199.51,177.18l1.35.09-.4,6.11,3.79.25-.07,1.14-5.14-.33Z" transform="translate(0 -2.73)"/><path class="cls-1" d="M205.72,177.59l1.34.09-.47,7.25-1.35-.09Z" transform="translate(0 -2.73)"/><path class="cls-1" d="M215.6,178.23,212,185.28l-1.33-.09-2.7-7.46,1.47.1,2,5.75,2.8-5.44Z" transform="translate(0 -2.73)"/><path class="cls-1" d="M221.41,184.76l-.08,1.13-5.43-.35.47-7.26,5.29.35-.07,1.13-4-.26-.12,1.89,3.5.22-.07,1.11-3.5-.23-.13,2Z" transform="translate(0 -2.73)"/><path class="cls-1" d="M22,21.51l.16,2.32-9.66.66L11.65,12l9.42-.64.16,2.31-6.55.45.18,2.71,5.79-.4.16,2.25L15,19.09,15.21,22Z" transform="translate(0 -2.73)"/><path class="cls-1" d="M30.88,14.53a4.05,4.05,0,0,1,1.42,3.11l.37,5.47-2.6.18L30,22.1a3.12,3.12,0,0,1-2.83,1.53,4.56,4.56,0,0,1-1.94-.24,2.81,2.81,0,0,1-1.31-.95A2.68,2.68,0,0,1,23.38,21a2.5,2.5,0,0,1,.86-2.17,5.24,5.24,0,0,1,3.06-1l2.2-.15a1.77,1.77,0,0,0-.64-1.36,2.45,2.45,0,0,0-1.69-.38,4.83,4.83,0,0,0-1.49.35,4,4,0,0,0-1.21.73l-1.13-1.87a5.94,5.94,0,0,1,1.82-1,8.35,8.35,0,0,1,2.23-.46A5,5,0,0,1,30.88,14.53ZM29,21.3a1.81,1.81,0,0,0,.71-1l-.06-1-1.91.13c-1.14.08-1.68.49-1.63,1.24a1,1,0,0,0,.47.82,1.86,1.86,0,0,0,1.17.23A2.48,2.48,0,0,0,29,21.3Z" transform="translate(0 -2.73)"/><path class="cls-1" d="M38.54,13.29a5.31,5.31,0,0,1,1.92-.49l.18,2.57H40a2.55,2.55,0,0,0-1.82.79,2.72,2.72,0,0,0-.54,2L38,22.75l-2.78.19-.66-9.59,2.66-.18.09,1.27A3.08,3.08,0,0,1,38.54,13.29Z" transform="translate(0 -2.73)"/><path class="cls-1" d="M50.9,13.16a4.29,4.29,0,0,1,1.31,3.1l.38,5.49-2.78.19-.35-5.06a2.49,2.49,0,0,0-.62-1.67,1.8,1.8,0,0,0-1.48-.46,2.24,2.24,0,0,0-1.63.76,2.74,2.74,0,0,0-.49,2l.33,4.74-2.78.19-.66-9.59,2.66-.18.07,1.12a3.85,3.85,0,0,1,1.31-1A5,5,0,0,1,48,12.29,4,4,0,0,1,50.9,13.16Z" transform="translate(0 -2.73)"/><path class="cls-1" d="M67.61,11.56a4.47,4.47,0,0,1,1.84,1.61,5.37,5.37,0,0,1,.8,2.55,5.16,5.16,0,0,1-.45,2.64,4.33,4.33,0,0,1-1.6,1.84,4.88,4.88,0,0,1-2.39.78,3.66,3.66,0,0,1-3-1l.3,4.47-2.78.19-.89-13,2.66-.19.07,1.11a3.69,3.69,0,0,1,2.93-1.45A4.79,4.79,0,0,1,67.61,11.56Zm-.73,6.33a2.67,2.67,0,0,0,.55-2A2.67,2.67,0,0,0,66.62,14a2.5,2.5,0,0,0-3.51.24,2.69,2.69,0,0,0-.56,2,2.72,2.72,0,0,0,.82,1.89,2.34,2.34,0,0,0,1.8.6A2.3,2.3,0,0,0,66.88,17.89Z" transform="translate(0 -2.73)"/><path class="cls-1" d="M79,11.23a4.07,4.07,0,0,1,1.41,3.12l.38,5.47-2.6.18-.08-1.2a3.12,3.12,0,0,1-2.83,1.54,4.47,4.47,0,0,1-1.95-.25,2.82,2.82,0,0,1-1.3-.94,2.68,2.68,0,0,1-.53-1.47,2.5,2.5,0,0,1,.86-2.17,5.14,5.14,0,0,1,3.05-1l2.21-.15A1.76,1.76,0,0,0,76.94,13a2.45,2.45,0,0,0-1.69-.38,4.83,4.83,0,0,0-1.49.35,3.68,3.68,0,0,0-1.21.73l-1.14-1.87a6.13,6.13,0,0,1,1.83-1,8.34,8.34,0,0,1,2.23-.45A5,5,0,0,1,79,11.23ZM77,18a1.73,1.73,0,0,0,.72-1l-.07-1-1.9.13c-1.14.08-1.68.49-1.63,1.24a1,1,0,0,0,.47.82,1.93,1.93,0,0,0,1.17.23A2.33,2.33,0,0,0,77,18Z" transform="translate(0 -2.73)"/><path class="cls-1" d="M84.14,19.43a6.21,6.21,0,0,1-1.87-.61l.79-2.06a6,6,0,0,0,1.6.56,6.53,6.53,0,0,0,1.8.14c1.17-.08,1.74-.41,1.7-1,0-.27-.19-.45-.52-.55a7.14,7.14,0,0,0-1.5-.2,15,15,0,0,1-2-.28,3,3,0,0,1-1.38-.73,2.32,2.32,0,0,1-.68-1.63,2.62,2.62,0,0,1,.42-1.65A3.31,3.31,0,0,1,84,10.22a6.71,6.71,0,0,1,2.35-.56,10,10,0,0,1,2,.09,5.68,5.68,0,0,1,1.71.5l-.79,2a5.61,5.61,0,0,0-2.81-.53,2.88,2.88,0,0,0-1.32.35.71.71,0,0,0-.4.67.64.64,0,0,0,.52.59,8.47,8.47,0,0,0,1.56.23,15.89,15.89,0,0,1,2,.29,2.86,2.86,0,0,1,1.36.72,2.34,2.34,0,0,1,.66,1.6,2.5,2.5,0,0,1-.43,1.62A3.39,3.39,0,0,1,88.9,19a7.19,7.19,0,0,1-2.41.55A9.24,9.24,0,0,1,84.14,19.43Z" transform="translate(0 -2.73)"/><path class="cls-1" d="M93.6,18.79a6.2,6.2,0,0,1-1.87-.62l.79-2.06a5.67,5.67,0,0,0,1.6.56,6.5,6.5,0,0,0,1.8.14c1.17-.08,1.74-.41,1.7-1a.62.62,0,0,0-.52-.56,7.88,7.88,0,0,0-1.5-.2,13.44,13.44,0,0,1-2-.28,3.06,3.06,0,0,1-1.38-.72,2.37,2.37,0,0,1-.68-1.64A2.62,2.62,0,0,1,92,10.77a3.38,3.38,0,0,1,1.45-1.2A6.5,6.5,0,0,1,95.79,9a9.3,9.3,0,0,1,2,.08,5.68,5.68,0,0,1,1.71.5l-.79,2a5.5,5.5,0,0,0-2.81-.52,2.73,2.73,0,0,0-1.32.34.72.72,0,0,0-.4.67.63.63,0,0,0,.52.59A8.29,8.29,0,0,0,96.3,13a16.14,16.14,0,0,1,2,.28A3,3,0,0,1,99.6,14a2.3,2.3,0,0,1,.67,1.6,2.53,2.53,0,0,1-.43,1.63,3.44,3.44,0,0,1-1.48,1.18,7.19,7.19,0,0,1-2.41.55A9.71,9.71,0,0,1,93.6,18.79Z" transform="translate(0 -2.73)"/><path class="cls-1" d="M101.54,7A1.47,1.47,0,0,1,101,5.9a1.42,1.42,0,0,1,.4-1.13,1.75,1.75,0,0,1,1.22-.53,1.78,1.78,0,0,1,1.27.34,1.38,1.38,0,0,1,.56,1A1.54,1.54,0,0,1,104,6.8a2,2,0,0,1-2.5.18Zm0,1.79,2.78-.19.66,9.58-2.78.19Z" transform="translate(0 -2.73)"/><path class="cls-1" d="M116.4,7.75,113,17.61l-2.87.2L105.46,8.5l2.87-.2,3.1,6.34,2.29-6.71Z" transform="translate(0 -2.73)"/><path class="cls-1" d="M127,12.62l-7.25.5a2.34,2.34,0,0,0,1,1.35,3.06,3.06,0,0,0,1.85.39,3.71,3.71,0,0,0,1.31-.32,3.13,3.13,0,0,0,1-.77l1.59,1.5a5,5,0,0,1-3.85,1.82,6.25,6.25,0,0,1-2.91-.44,4.57,4.57,0,0,1-2-1.62,4.84,4.84,0,0,1-.86-2.5,4.92,4.92,0,0,1,.5-2.59,4.62,4.62,0,0,1,1.71-1.88,5.42,5.42,0,0,1,2.57-.82,5.32,5.32,0,0,1,2.59.44,4.39,4.39,0,0,1,1.91,1.61,5.29,5.29,0,0,1,.83,2.58S127,12.16,127,12.62ZM120.27,10a2.26,2.26,0,0,0-.68,1.51l4.72-.32a2.32,2.32,0,0,0-.88-1.4,2.57,2.57,0,0,0-3.16.21Z" transform="translate(0 -2.73)"/><path class="cls-1" d="M128.26,3.28,131,3.09l.9,13.22-2.78.19Z" transform="translate(0 -2.73)"/><path class="cls-1" d="M143.38,5.9l-3.63,10.47a4.94,4.94,0,0,1-1.47,2.44,4,4,0,0,1-2.29.84,5.08,5.08,0,0,1-1.5-.13,3.3,3.3,0,0,1-1.24-.56l.88-2.05a2.46,2.46,0,0,0,.77.4,2.25,2.25,0,0,0,.84.1,1.46,1.46,0,0,0,.91-.34,2.39,2.39,0,0,0,.58-1l0-.09-4.81-9.37,2.86-.2,3.14,6.32,2.26-6.69Z" transform="translate(0 -2.73)"/><path class="cls-1" d="M144,3l3.31-.23v8.18l-2.21.15Zm1.27,12.11a1.52,1.52,0,0,1-.57-1.12,1.5,1.5,0,0,1,.4-1.16,1.77,1.77,0,0,1,1.2-.54,1.74,1.74,0,0,1,1.26.37,1.5,1.5,0,0,1,.56,1.1,1.55,1.55,0,0,1-.41,1.18,1.72,1.72,0,0,1-1.19.56A1.7,1.7,0,0,1,145.24,15.07Z" transform="translate(0 -2.73)"/><path class="cls-4" d="M50.85,48.85C41.52,40.4,27.69,42,26.26,42.19a33.65,33.65,0,0,0-13.6,4.6C6.34,50.69-1,58.59.11,74,.65,81.61,3.28,87.65,8,92c8.89,8.28,22,7.22,23.34,7.09.19,0,.6,0,1.21-.11a36.39,36.39,0,0,0,11.38-3.32,11.58,11.58,0,0,1-2.66-6.19,1.94,1.94,0,0,1,0-.24A30.7,30.7,0,0,1,30.8,92.08h-.18C30.5,92.11,19,93.23,12,86.64c-3.32-3.09-5.12-7.33-5.52-13-1.48-21,16.75-24.06,20-24.44l.48,0,.19,0c.12,0,12.36-1.67,19.8,5.09,3.49,3.18,5.37,7.64,5.76,13.66a26,26,0,0,1-1,9.72,9.37,9.37,0,0,1,6,2.56A31.43,31.43,0,0,0,59,67.57C58.49,59.59,55.74,53.29,50.85,48.85Z" transform="translate(0 -2.73)"/><path class="cls-1" d="M28.53,85.71c-7.13-.57-8.59-4.24-9.33-6.17a2.37,2.37,0,0,1,.33-2.46,1.66,1.66,0,0,1,1.4-.41L35.07,80.8c1.32.45,1.46.8,1.51,1.22a1.82,1.82,0,0,1-1,1.88A11.42,11.42,0,0,1,28.53,85.71Z" transform="translate(0 -2.73)"/><path class="cls-1" d="M21.2,73.53h0c-1.52.18-2.95-1.38-3.43-5.48L17,61.18a2.79,2.79,0,0,1,2.44-3.08h0a2.78,2.78,0,0,1,3.07,2.44l.8,6.87C23.72,71.17,22.73,73.35,21.2,73.53Z" transform="translate(0 -2.73)"/><path class="cls-1" d="M36.76,71.72h0c-1.52.18-3-1.38-3.43-5.48l-.8-6.87A2.78,2.78,0,0,1,35,56.29h0A2.79,2.79,0,0,1,38,58.73l.8,6.87C39.28,69.36,38.28,71.54,36.76,71.72Z" transform="translate(0 -2.73)"/><path class="cls-5" d="M51.31,95.44a7.15,7.15,0,0,1-.82-14.25,5.92,5.92,0,0,1,.84,0,7.15,7.15,0,0,1,.81,14.25A7.86,7.86,0,0,1,51.31,95.44Z" transform="translate(0 -2.73)"/><path class="cls-6" d="M51.33,82.14A6.15,6.15,0,0,1,52,94.4c-.24,0-.48,0-.72,0a6.15,6.15,0,0,1-.7-12.26,5.79,5.79,0,0,1,.72,0m0-2c-.32,0-.64,0-.95,0a8.15,8.15,0,0,0,.93,16.25,7.69,7.69,0,0,0,.95-.06,8.15,8.15,0,0,0-.93-16.24Z" transform="translate(0 -2.73)"/><path class="cls-1" d="M72.11,65.5a3.55,3.55,0,0,1-1.5-.94l.94-1.45a2.52,2.52,0,0,0,2.2,1c1.08-.13,1.54-.83,1.39-2.1l-.62-5.37L70.83,57l-.19-1.61,5.62-.66.8,6.88a3.82,3.82,0,0,1-.57,2.84A3.5,3.5,0,0,1,74,65.68,4.17,4.17,0,0,1,72.11,65.5Z" transform="translate(0 -2.73)"/><path class="cls-1" d="M86.73,56l.92,7.91-1.77.21-.11-1a3,3,0,0,1-1,1,3.31,3.31,0,0,1-5.22-2.64L79,56.93l1.86-.22L81.35,61A2.38,2.38,0,0,0,82,62.52a1.78,1.78,0,0,0,1.43.36A2.06,2.06,0,0,0,85,62.09a2.51,2.51,0,0,0,.38-1.84l-.47-4Z" transform="translate(0 -2.73)"/><path class="cls-1" d="M90.62,63.45A4.75,4.75,0,0,1,89.08,63l.55-1.49a4.56,4.56,0,0,0,1.35.42,5.06,5.06,0,0,0,1.5,0c1.11-.12,1.62-.48,1.56-1.06a.59.59,0,0,0-.49-.53,7.26,7.26,0,0,0-1.39-.16,11,11,0,0,1-1.64-.15,2.48,2.48,0,0,1-1.14-.55,1.88,1.88,0,0,1-.61-1.29,2.1,2.1,0,0,1,.73-1.91,4.33,4.33,0,0,1,2.46-1,7.09,7.09,0,0,1,1.66,0,4.55,4.55,0,0,1,1.39.35l-.55,1.49a4.38,4.38,0,0,0-2.34-.33,2.5,2.5,0,0,0-1.21.39.72.72,0,0,0-.34.69.65.65,0,0,0,.52.58,6.91,6.91,0,0,0,1.44.18,11.75,11.75,0,0,1,1.6.16,2.47,2.47,0,0,1,1.12.53,1.86,1.86,0,0,1,.59,1.26,2.07,2.07,0,0,1-.76,1.89,4.58,4.58,0,0,1-2.54,1A7.71,7.71,0,0,1,90.62,63.45Z" transform="translate(0 -2.73)"/><path class="cls-1" d="M102.42,61.79a2.12,2.12,0,0,1-.75.49,3.37,3.37,0,0,1-1,.25,2.81,2.81,0,0,1-2.09-.45,2.62,2.62,0,0,1-.94-1.9l-.45-3.81-1.3.15L95.75,55l1.3-.15-.21-1.81,1.85-.22.21,1.81,2.12-.25.18,1.49-2.12.24.43,3.77a1.31,1.31,0,0,0,.39.85,1.06,1.06,0,0,0,.85.21,1.66,1.66,0,0,0,1-.45Z" transform="translate(0 -2.73)"/><path class="cls-1" d="M111.77,59.5l.19,1.61-7.79.91L103,51.64l7.57-.88.19,1.62-5.65.66.32,2.69,5-.58.18,1.59-5,.58.33,2.86Z" transform="translate(0 -2.73)"/><path class="cls-1" d="M118.72,53.06a3.28,3.28,0,0,1,1.22,2.42l.54,4.64-1.75.21-.11-1a2.2,2.2,0,0,1-.88.91,3.85,3.85,0,0,1-1.49.45,3.74,3.74,0,0,1-1.59-.12,2.39,2.39,0,0,1-1.13-.73,2.13,2.13,0,0,1-.5-1.18,2.07,2.07,0,0,1,.59-1.8A4,4,0,0,1,116,56l2-.24v-.12a1.62,1.62,0,0,0-.65-1.21,2.19,2.19,0,0,0-1.53-.28,4.79,4.79,0,0,0-1.28.36,3.3,3.3,0,0,0-1,.71l-.88-1.26a4.57,4.57,0,0,1,1.41-.91,6.73,6.73,0,0,1,1.83-.46A3.89,3.89,0,0,1,118.72,53.06Zm-1,5.8a1.68,1.68,0,0,0,.66-1l-.11-.92-1.91.23c-1.07.12-1.56.53-1.48,1.24a1,1,0,0,0,.5.75,1.84,1.84,0,0,0,1.14.17A2.38,2.38,0,0,0,117.68,58.86Z" transform="translate(0 -2.73)"/><path class="cls-1" d="M126.5,51.31l.21,1.76a2.11,2.11,0,0,0-.44,0,2.23,2.23,0,0,0-1.61.82,2.53,2.53,0,0,0-.4,1.89l.45,3.84-1.86.22-.92-7.92,1.77-.2.13,1.15A3.1,3.1,0,0,1,126.5,51.31Z" transform="translate(0 -2.73)"/><path class="cls-1" d="M135.07,51.2a3.45,3.45,0,0,1,1.2,2.49l.53,4.53-1.85.22-.5-4.3a2.29,2.29,0,0,0-.67-1.51,1.85,1.85,0,0,0-1.46-.36,2.17,2.17,0,0,0-1.54.8,2.46,2.46,0,0,0-.39,1.84l.47,4-1.86.21-.92-7.91,1.77-.21.12,1a2.82,2.82,0,0,1,1.06-1,4.23,4.23,0,0,1,1.53-.47A3.39,3.39,0,0,1,135.07,51.2Z" transform="translate(0 -2.73)"/><path class="cls-1" d="M146.25,53.71l-6.21.72a2.17,2.17,0,0,0,1,1.29,2.78,2.78,0,0,0,1.77.31,2.9,2.9,0,0,0,2-1.11L146,56a3.28,3.28,0,0,1-1.24,1.12,5.37,5.37,0,0,1-4.15.29,3.77,3.77,0,0,1-1.71-1.27,4.09,4.09,0,0,1-.78-2,4.13,4.13,0,0,1,.28-2.14,3.74,3.74,0,0,1,1.3-1.62,4.52,4.52,0,0,1,4.17-.49,3.71,3.71,0,0,1,1.59,1.27,4.48,4.48,0,0,1,.76,2.08C146.23,53.29,146.24,53.47,146.25,53.71Zm-5.78-2a2.22,2.22,0,0,0-.59,1.49l4.49-.53a2.16,2.16,0,0,0-.88-1.3,2.43,2.43,0,0,0-3,.34Z" transform="translate(0 -2.73)"/><path class="cls-1" d="M152.1,48.33l.21,1.76a2.11,2.11,0,0,0-.44,0,2.25,2.25,0,0,0-1.62.83,2.54,2.54,0,0,0-.39,1.88l.44,3.84-1.85.22L147.53,49l1.77-.2.13,1.15A3.12,3.12,0,0,1,152.1,48.33Z" transform="translate(0 -2.73)"/><path class="cls-1" d="M161.51,53.69l.19,1.64-7.65.88-.15-1.28,3.67-4.4a4.48,4.48,0,0,0,.8-1.27,2.27,2.27,0,0,0,.14-1,1.37,1.37,0,0,0-.62-1.06A2.34,2.34,0,0,0,156.4,47a2.91,2.91,0,0,0-2.3,1.37l-1.47-.88A4,4,0,0,1,154.12,46a5.73,5.73,0,0,1,2.25-.72,4.27,4.27,0,0,1,2.79.48,2.64,2.64,0,0,1,1.26,2.07,3.55,3.55,0,0,1-.17,1.62,6.06,6.06,0,0,1-1.16,1.85l-2.47,3Z" transform="translate(0 -2.73)"/><path class="cls-1" d="M164.82,54.47a4.23,4.23,0,0,1-1.76-1.66,7.66,7.66,0,0,1-.66-5.73,4.31,4.31,0,0,1,1.32-2,4.14,4.14,0,0,1,2.15-.89,4.2,4.2,0,0,1,2.31.37,4.36,4.36,0,0,1,1.76,1.66,7.62,7.62,0,0,1,.67,5.74,4.26,4.26,0,0,1-1.34,2,4.14,4.14,0,0,1-2.15.89A4.06,4.06,0,0,1,164.82,54.47Zm3.75-2.42a4.84,4.84,0,0,0,.33-2.82,4.8,4.8,0,0,0-1-2.67,2.15,2.15,0,0,0-3.5.41,4.9,4.9,0,0,0-.32,2.82,4.79,4.79,0,0,0,1,2.66,2,2,0,0,0,1.85.72A2.06,2.06,0,0,0,168.57,52.05Z" transform="translate(0 -2.73)"/><path class="cls-7" d="M79.75,71.81,78.5,76.88l-.84.1-1.84-3.52-1,3.85-.84.1-2.37-4.65.83-.1,1.86,3.71,1-4,.74-.09L78,76l1-4.06Z" transform="translate(0 -2.73)"/><path class="cls-7" d="M87.91,70.86l-1.24,5.07-.85.1L84,72.51l-1,3.85-.84.1-2.38-4.65.84-.1,1.86,3.71,1-4,.74-.09L86.13,75l1-4.06Z" transform="translate(0 -2.73)"/><path class="cls-7" d="M96.08,69.91,94.83,75l-.84.1-1.83-3.52-1,3.85-.85.1L88,70.86l.84-.1,1.86,3.7,1-4,.75-.08,1.89,3.72,1-4.06Z" transform="translate(0 -2.73)"/><path class="cls-7" d="M97,74.6a.59.59,0,0,1-.23-.43.57.57,0,0,1,.13-.46.64.64,0,0,1,.87-.11A.6.6,0,0,1,98,74a.59.59,0,0,1-.12.47.57.57,0,0,1-.41.23A.6.6,0,0,1,97,74.6Z" transform="translate(0 -2.73)"/><path class="cls-7" d="M98.39,76.35a1.14,1.14,0,0,1-.48-.17l.2-.71a1.15,1.15,0,0,0,.75.15.69.69,0,0,0,.51-.28,1,1,0,0,0,.11-.66l-.59-5.1.88-.1.59,5.08a1.65,1.65,0,0,1-.27,1.23,1.46,1.46,0,0,1-1.09.56A2.08,2.08,0,0,1,98.39,76.35Zm.38-7.87a.54.54,0,0,1-.21-.38.56.56,0,0,1,.12-.43.64.64,0,0,1,.85-.11.57.57,0,0,1,.09.82.57.57,0,0,1-.4.22A.6.6,0,0,1,98.77,68.48Z" transform="translate(0 -2.73)"/><path class="cls-7" d="M106,68.76l.57,4.86-.83.1-.09-.74a1.92,1.92,0,0,1-.63.67,2.28,2.28,0,0,1-.93.31,1.92,1.92,0,0,1-2.33-1.87l-.33-2.8.88-.1.31,2.69a1.49,1.49,0,0,0,.47,1,1.24,1.24,0,0,0,1,.25,1.45,1.45,0,0,0,1.05-.55,1.64,1.64,0,0,0,.27-1.24l-.3-2.51Z" transform="translate(0 -2.73)"/><path class="cls-7" d="M108.45,73.29a2.69,2.69,0,0,1-.91-.31l.29-.74a2.64,2.64,0,0,0,.82.28,3.72,3.72,0,0,0,.94,0c.77-.09,1.13-.36,1.08-.8a.47.47,0,0,0-.19-.33,1.1,1.1,0,0,0-.42-.14l-.68-.06a5.11,5.11,0,0,1-1-.1,1.43,1.43,0,0,1-.68-.32,1.14,1.14,0,0,1-.36-.77,1.25,1.25,0,0,1,.42-1.12,2.49,2.49,0,0,1,1.43-.57,4.1,4.1,0,0,1,1,0,2.7,2.7,0,0,1,.84.23l-.3.74a2.58,2.58,0,0,0-1.45-.22,1.65,1.65,0,0,0-.83.28.58.58,0,0,0-.24.52.48.48,0,0,0,.21.36,1,1,0,0,0,.43.15c.17,0,.4,0,.7.07a6.89,6.89,0,0,1,1,.11,1.35,1.35,0,0,1,.66.31,1.13,1.13,0,0,1,.35.74,1.25,1.25,0,0,1-.44,1.12,2.78,2.78,0,0,1-1.49.57A4.56,4.56,0,0,1,108.45,73.29Z" transform="translate(0 -2.73)"/><path class="cls-7" d="M115.51,72.29a1.48,1.48,0,0,1-.45.3,1.86,1.86,0,0,1-.57.16,1.58,1.58,0,0,1-1.19-.26,1.48,1.48,0,0,1-.53-1.08l-.31-2.67-.83.1-.08-.73.82-.09L112.25,67l.88-.1.12,1.06,1.4-.16.08.73-1.39.16.3,2.63a.86.86,0,0,0,.27.58.75.75,0,0,0,.59.15,1.14,1.14,0,0,0,.66-.31Z" transform="translate(0 -2.73)"/><path class="cls-7" d="M120.56,69.82l-3.94.46a1.6,1.6,0,0,0,.69,1,1.89,1.89,0,0,0,1.24.25,1.82,1.82,0,0,0,1.33-.75l.55.51a2.14,2.14,0,0,1-.75.68,3,3,0,0,1-1.07.33,2.81,2.81,0,0,1-1.4-.16,2.22,2.22,0,0,1-1-.78,2.46,2.46,0,0,1-.47-1.24,2.5,2.5,0,0,1,.17-1.31,2.21,2.21,0,0,1,.76-1,2.66,2.66,0,0,1,2.5-.29,2.2,2.2,0,0,1,1,.79,2.69,2.69,0,0,1,.46,1.26A2.1,2.1,0,0,1,120.56,69.82Zm-3.63-1.24a1.59,1.59,0,0,0-.38,1.07l3.11-.37a1.56,1.56,0,0,0-.61-.94,1.5,1.5,0,0,0-1.1-.27A1.52,1.52,0,0,0,116.93,68.58Z" transform="translate(0 -2.73)"/><path class="cls-7" d="M124.71,67a1.93,1.93,0,0,1,.71,1.42l.34,2.93-.83.1-.08-.64a1.44,1.44,0,0,1-.56.59,2.41,2.41,0,0,1-1,.29,2.09,2.09,0,0,1-1.35-.24,1.27,1.27,0,0,1-.61-1,1.29,1.29,0,0,1,.34-1.09,2.41,2.41,0,0,1,1.44-.56l1.4-.16,0-.18a1.16,1.16,0,0,0-.43-.83,1.39,1.39,0,0,0-1-.19,2.47,2.47,0,0,0-.83.24,2.29,2.29,0,0,0-.65.46l-.44-.61A2.59,2.59,0,0,1,122,67a3.58,3.58,0,0,1,1.09-.29A2.23,2.23,0,0,1,124.71,67Zm-.46,3.67a1.29,1.29,0,0,0,.46-.7l-.08-.68-1.36.16c-.74.09-1.08.38-1,.88a.69.69,0,0,0,.35.54,1.31,1.31,0,0,0,.82.12A1.61,1.61,0,0,0,124.25,70.7Z" transform="translate(0 -2.73)"/><path class="cls-7" d="M128.37,66.33a2.5,2.5,0,0,1,1.07-.35l.1.85-.21,0a1.47,1.47,0,0,0-1.07.56,1.68,1.68,0,0,0-.27,1.26l.28,2.42-.88.1-.56-4.86.84-.1.1.82A1.5,1.5,0,0,1,128.37,66.33Z" transform="translate(0 -2.73)"/><path class="cls-7" d="M134.65,65.92a2.2,2.2,0,0,1,.73,1.51l.32,2.79-.88.11-.31-2.7a1.49,1.49,0,0,0-.47-1,1.28,1.28,0,0,0-1-.25,1.53,1.53,0,0,0-1.08.55,1.67,1.67,0,0,0-.27,1.25l.29,2.5-.88.1-.57-4.86.85-.1.08.74a1.79,1.79,0,0,1,.65-.66,2.67,2.67,0,0,1,1-.33A2,2,0,0,1,134.65,65.92Z" transform="translate(0 -2.73)"/><path class="cls-7" d="M137.09,69.94a.61.61,0,0,1-.24-.43A.6.6,0,0,1,137,69a.63.63,0,0,1,.42-.23.6.6,0,0,1,.45.12.63.63,0,0,1,.23.43.62.62,0,0,1-.13.48.59.59,0,0,1-.4.23A.63.63,0,0,1,137.09,69.94Z" transform="translate(0 -2.73)"/><path class="cls-7" d="M143.38,64.41l.49,4.2a2.53,2.53,0,0,1-.41,2,2.62,2.62,0,0,1-1.82.83,4.91,4.91,0,0,1-1.33,0,2.67,2.67,0,0,1-1.07-.42l.34-.73a2.45,2.45,0,0,0,.89.36,2.9,2.9,0,0,0,1.06.05,1.69,1.69,0,0,0,1.21-.55A1.63,1.63,0,0,0,143,68.8l0-.39a1.93,1.93,0,0,1-.7.66,2.57,2.57,0,0,1-1,.3,2.8,2.8,0,0,1-1.3-.15,2.25,2.25,0,0,1-1-.73,2.56,2.56,0,0,1-.29-2.45,2.23,2.23,0,0,1,.79-.93,2.63,2.63,0,0,1,1.23-.44,2.42,2.42,0,0,1,1,.08,1.92,1.92,0,0,1,.85.5l-.09-.75Zm-1.24,3.88a1.55,1.55,0,0,0,.65-1.48,1.47,1.47,0,0,0-.6-1.09,1.76,1.76,0,0,0-1.25-.3,1.71,1.71,0,0,0-1.16.58,1.48,1.48,0,0,0-.33,1.2,1.45,1.45,0,0,0,.31.79,1.49,1.49,0,0,0,.66.5,2,2,0,0,0,.89.1A1.92,1.92,0,0,0,142.14,68.29Z" transform="translate(0 -2.73)"/><path class="cls-7" d="M149.71,63.67l.49,4.2a2.55,2.55,0,0,1-.41,2,2.69,2.69,0,0,1-1.82.83,4.61,4.61,0,0,1-1.34,0,2.79,2.79,0,0,1-1.07-.42l.35-.73a2.57,2.57,0,0,0,.89.37,3.37,3.37,0,0,0,1,0,1.79,1.79,0,0,0,1.22-.55,1.7,1.7,0,0,0,.26-1.28l-.05-.38a1.9,1.9,0,0,1-.7.65,2.46,2.46,0,0,1-1,.3,2.52,2.52,0,0,1-1.29-.15,2.26,2.26,0,0,1-1-.73,2.37,2.37,0,0,1-.46-1.19,2.43,2.43,0,0,1,.18-1.26,2.15,2.15,0,0,1,.79-.93,2.8,2.8,0,0,1,2.27-.36,1.91,1.91,0,0,1,.84.51l-.08-.75Zm-1.24,3.88a1.62,1.62,0,0,0,.53-.63,1.71,1.71,0,0,0,.12-.85,1.55,1.55,0,0,0-.6-1.09,1.73,1.73,0,0,0-1.26-.29,1.69,1.69,0,0,0-1.15.58,1.49,1.49,0,0,0-.34,1.19,1.66,1.66,0,0,0,.31.8,1.47,1.47,0,0,0,.66.49,1.76,1.76,0,0,0,.89.1A1.92,1.92,0,0,0,148.47,67.55Z" transform="translate(0 -2.73)"/><path class="cls-4" d="M174.7,124.49,18.08,142.72c-1.1-.35-4.39-1.67-4.7-4.33L11,118.1c-.31-2.65,5.72-4.85,7.45-5.74L171.22,94.58a4.85,4.85,0,0,1,5.37,4.25L179,119.12A4.84,4.84,0,0,1,174.7,124.49Z" transform="translate(0 -2.73)"/><path d="M62.58,125.82a4,4,0,0,1-2.52-3.34,4.07,4.07,0,0,1,.31-2.18,4,4,0,0,1,1.38-1.65,4.53,4.53,0,0,1,2.15-.78,4.58,4.58,0,0,1,1.9.14,3.77,3.77,0,0,1,1.53.88l-1,1.23a2.58,2.58,0,0,0-2.11-.7,2.72,2.72,0,0,0-1.28.48,2.33,2.33,0,0,0-.8,1,2.63,2.63,0,0,0-.17,1.35,2.72,2.72,0,0,0,.48,1.28,2.28,2.28,0,0,0,1,.8,2.63,2.63,0,0,0,1.35.17,2.54,2.54,0,0,0,1.89-1.17l1.31,1a3.87,3.87,0,0,1-1.29,1.22,4.64,4.64,0,0,1-1.83.58A4.73,4.73,0,0,1,62.58,125.82Z" transform="translate(0 -2.73)"/><path d="M68.24,117l1.77-.21,1,8.42-1.77.21Z" transform="translate(0 -2.73)"/><path d="M76.64,119a2.61,2.61,0,0,1,1,2l.4,3.48-1.66.2-.09-.76a2,2,0,0,1-1.76,1.07,3,3,0,0,1-1.25-.1,1.81,1.81,0,0,1-.86-.57,1.74,1.74,0,0,1-.39-.92,1.61,1.61,0,0,1,.49-1.41,3.23,3.23,0,0,1,1.92-.72l1.41-.17a1.12,1.12,0,0,0-.45-.85,1.61,1.61,0,0,0-1.1-.19,3.16,3.16,0,0,0-.94.27,2.61,2.61,0,0,0-.75.51l-.78-1.17a3.9,3.9,0,0,1,1.13-.68,4.94,4.94,0,0,1,1.42-.36A3.21,3.21,0,0,1,76.64,119Zm-1,4.39a1.2,1.2,0,0,0,.43-.68l-.08-.62-1.21.14c-.73.08-1.07.36-1,.84a.65.65,0,0,0,.33.51,1.18,1.18,0,0,0,.75.11A1.49,1.49,0,0,0,75.62,123.37Z" transform="translate(0 -2.73)"/><path d="M78.89,117a.9.9,0,0,1-.39-.67.93.93,0,0,1,.22-.73,1.14,1.14,0,0,1,.77-.38,1.12,1.12,0,0,1,.82.18.86.86,0,0,1,.39.64,1,1,0,0,1-.22.77,1.13,1.13,0,0,1-.76.39A1.15,1.15,0,0,1,78.89,117Zm0,1.15,1.77-.21.71,6.11-1.77.21Z" transform="translate(0 -2.73)"/><path d="M92.06,117.18a2.73,2.73,0,0,1,.91,1.95l.41,3.5-1.77.2-.38-3.22a1.65,1.65,0,0,0-.42-1,1.1,1.1,0,0,0-.9-.26,1.29,1.29,0,0,0-.94.52,1.76,1.76,0,0,0-.23,1.24l.36,3.07-1.77.2L87,120.11c-.11-1-.55-1.4-1.32-1.31a1.26,1.26,0,0,0-.93.52,1.76,1.76,0,0,0-.23,1.24l.36,3.06-1.77.21-.71-6.11,1.69-.2.08.71a2.32,2.32,0,0,1,.77-.69,3,3,0,0,1,1.06-.33,2.65,2.65,0,0,1,1.2.12,2,2,0,0,1,.93.65,2.5,2.5,0,0,1,.86-.85,2.94,2.94,0,0,1,1.22-.41A2.5,2.5,0,0,1,92.06,117.18Z" transform="translate(0 -2.73)"/><path class="cls-1" d="M99.08,121.84a4.14,4.14,0,0,1-1.49-.5l.47-1.45a4.3,4.3,0,0,0,1.28.46,5,5,0,0,0,1.44.06,2.23,2.23,0,0,0,1.13-.37.7.7,0,0,0,.3-.66.55.55,0,0,0-.28-.44,1.64,1.64,0,0,0-.6-.24,9.22,9.22,0,0,0-1-.14,12,12,0,0,1-1.53-.26,2.43,2.43,0,0,1-1.08-.58,1.87,1.87,0,0,1-.56-1.22,2.24,2.24,0,0,1,.23-1.3,2.53,2.53,0,0,1,1-1,4.5,4.5,0,0,1,1.8-.54,6.36,6.36,0,0,1,1.51,0,4.4,4.4,0,0,1,1.33.38l-.4,1.46a4.53,4.53,0,0,0-2.28-.37,2.06,2.06,0,0,0-1.11.39.75.75,0,0,0-.29.7.63.63,0,0,0,.49.55,7.3,7.3,0,0,0,1.35.25,14.61,14.61,0,0,1,1.54.25,2.47,2.47,0,0,1,1.07.57A1.84,1.84,0,0,1,104,119a2.2,2.2,0,0,1-.23,1.29,2.56,2.56,0,0,1-1,1,4.77,4.77,0,0,1-1.81.55A6.43,6.43,0,0,1,99.08,121.84Z" transform="translate(0 -2.73)"/><path class="cls-1" d="M109.33,120.47a2,2,0,0,1-.6.37,3.38,3.38,0,0,1-.79.19,2.42,2.42,0,0,1-1.75-.36,2.15,2.15,0,0,1-.79-1.57l-.29-2.51-1,.11-.15-1.36.94-.11-.17-1.49,1.77-.2.17,1.48,1.52-.17.16,1.36-1.52.18.29,2.48a.86.86,0,0,0,.27.58.73.73,0,0,0,.58.14,1.16,1.16,0,0,0,.69-.31Z" transform="translate(0 -2.73)"/><path class="cls-1" d="M114.37,114.59a2.61,2.61,0,0,1,1,2l.4,3.48-1.66.2-.08-.76a2,2,0,0,1-1.77,1.06,2.83,2.83,0,0,1-1.25-.09,1.81,1.81,0,0,1-.86-.57,1.77,1.77,0,0,1-.39-.92,1.63,1.63,0,0,1,.49-1.42,3.29,3.29,0,0,1,1.92-.71l1.41-.17a1.12,1.12,0,0,0-.45-.85,1.61,1.61,0,0,0-1.1-.19,3.24,3.24,0,0,0-.94.27,2.59,2.59,0,0,0-.75.5l-.78-1.16a4,4,0,0,1,1.14-.68,4.88,4.88,0,0,1,1.41-.36A3.21,3.21,0,0,1,114.37,114.59Zm-1,4.39a1.2,1.2,0,0,0,.43-.68l-.08-.63-1.21.15c-.73.08-1.07.36-1,.84a.69.69,0,0,0,.33.51,1.21,1.21,0,0,0,.76.11A1.58,1.58,0,0,0,113.35,119Z" transform="translate(0 -2.73)"/><path class="cls-1" d="M121.28,119.08a1.91,1.91,0,0,1-.61.37,3.38,3.38,0,0,1-.79.19,2.43,2.43,0,0,1-1.75-.36,2.19,2.19,0,0,1-.79-1.57l-.29-2.51-.94.11L116,114l.94-.11-.17-1.49,1.77-.2.17,1.48,1.53-.17.15,1.36-1.52.18.29,2.48a.86.86,0,0,0,.27.58.76.76,0,0,0,.59.14,1.16,1.16,0,0,0,.69-.31Z" transform="translate(0 -2.73)"/><path class="cls-1" d="M127.75,112.44l.72,6.11-1.68.19-.09-.73a2.28,2.28,0,0,1-.77.71,2.55,2.55,0,0,1-1,.33,2.58,2.58,0,0,1-2-.47,2.74,2.74,0,0,1-.94-2l-.4-3.45,1.77-.21.37,3.19c.11,1,.58,1.43,1.41,1.33a1.32,1.32,0,0,0,1-.53,1.71,1.71,0,0,0,.24-1.28l-.35-3Z" transform="translate(0 -2.73)"/><path class="cls-1" d="M130.67,118.19a4,4,0,0,1-1.21-.33l.44-1.34a4,4,0,0,0,1,.31,4.54,4.54,0,0,0,1.16,0c.75-.09,1.1-.32,1.06-.69a.4.4,0,0,0-.35-.34,4.54,4.54,0,0,0-1-.08,9.47,9.47,0,0,1-1.26-.12,2,2,0,0,1-.91-.42,1.48,1.48,0,0,1-.48-1,1.62,1.62,0,0,1,.21-1.06,2.19,2.19,0,0,1,.9-.82,4.37,4.37,0,0,1,1.49-.42,6.27,6.27,0,0,1,1.3,0,3.35,3.35,0,0,1,1.11.27l-.45,1.33a3.47,3.47,0,0,0-1.81-.25,1.69,1.69,0,0,0-.83.26.45.45,0,0,0-.24.44.4.4,0,0,0,.35.36,6.21,6.21,0,0,0,1,.1,11,11,0,0,1,1.26.13,1.78,1.78,0,0,1,.89.41,1.51,1.51,0,0,1,.48,1,1.6,1.6,0,0,1-.23,1,2.12,2.12,0,0,1-.91.8,4.32,4.32,0,0,1-1.52.43A5.87,5.87,0,0,1,130.67,118.19Z" transform="translate(0 -2.73)"/><path d="M142.25,115.45l.17,1.47-6.15.72-.93-8,6-.7.17,1.48-4.18.48.2,1.73,3.69-.43.17,1.43-3.69.43.21,1.84Z" transform="translate(0 -2.73)"/><path d="M147.71,110.71a2.58,2.58,0,0,1,1,2l.41,3.48-1.66.19-.09-.76a2,2,0,0,1-1.76,1.07,2.82,2.82,0,0,1-1.25-.09,1.81,1.81,0,0,1-.86-.57,1.69,1.69,0,0,1-.39-.92,1.63,1.63,0,0,1,.49-1.42,3.36,3.36,0,0,1,1.92-.72l1.41-.16a1.13,1.13,0,0,0-.46-.85,1.57,1.57,0,0,0-1.09-.19,3.16,3.16,0,0,0-.94.27,2.4,2.4,0,0,0-.75.5l-.78-1.16a3.77,3.77,0,0,1,1.13-.68,4.86,4.86,0,0,1,1.42-.36A3.13,3.13,0,0,1,147.71,110.71Zm-1,4.38a1.1,1.1,0,0,0,.43-.67l-.07-.63-1.22.14c-.72.09-1.06.37-1,.85a.64.64,0,0,0,.33.51,1.18,1.18,0,0,0,.75.11A1.52,1.52,0,0,0,146.69,115.09Z" transform="translate(0 -2.73)"/><path d="M152.57,109.69a3,3,0,0,1,1.22-.37L154,111l-.4,0a1.61,1.61,0,0,0-1.14.57,1.7,1.7,0,0,0-.28,1.33l.33,2.88-1.77.21-.71-6.11,1.69-.2.09.81A2,2,0,0,1,152.57,109.69Z" transform="translate(0 -2.73)"/><path d="M160.47,109.23a2.75,2.75,0,0,1,.94,1.94l.4,3.5-1.77.2-.37-3.22a1.61,1.61,0,0,0-.45-1.05,1.17,1.17,0,0,0-1-.25,1.39,1.39,0,0,0-1,.54,1.7,1.7,0,0,0-.25,1.28l.35,3-1.77.2-.71-6.11,1.69-.2.08.72a2.52,2.52,0,0,1,.81-.7,3.06,3.06,0,0,1,1.12-.34A2.51,2.51,0,0,1,160.47,109.23Z" transform="translate(0 -2.73)"/><path class="cls-1" d="M45.35,127.59a32.93,32.93,0,0,0-2.56-7.36A36.07,36.07,0,0,0,38,112.86a1,1,0,0,0-.5-.33A30.31,30.31,0,0,0,30,111.08l-.19,0c-.32,0-.35,0-.49.46s-.34,1-.49,1.45a.37.37,0,0,1-.41.3,1.47,1.47,0,0,1-.21,0,28.58,28.58,0,0,0-4.89.33c-1,.17-2.06.35-3.07.61-.35.09-.39.07-.6-.25l-.55-.87-.33-.48c-.19-.29-.23-.29-.58-.19a33,33,0,0,0-6.92,3.09,1.45,1.45,0,0,0-.58.62,45.7,45.7,0,0,0-2,5,32.26,32.26,0,0,0-1.58,8,29.35,29.35,0,0,0-.05,4,38.51,38.51,0,0,0,.68,5.44.62.62,0,0,0,.35.48l1.08.57c.31.16.63.33,1,.49a31.27,31.27,0,0,0,7.6,2.58c.42.09.46.08.67-.33.41-.85.8-1.72,1.19-2.59a3.75,3.75,0,0,0,.23-.67,17.8,17.8,0,0,1-3.45-1.25c.2-.19.36-.33.51-.5a.46.46,0,0,1,.58-.14,24.25,24.25,0,0,0,4.87,1,22.25,22.25,0,0,0,3.74.07c.92-.07,1.83-.23,2.74-.37A20.46,20.46,0,0,0,33,136.69,23.39,23.39,0,0,0,36.43,135c.1-.06.26-.12.34-.08a2.1,2.1,0,0,1,.75.54,24.17,24.17,0,0,1-3,2,1.07,1.07,0,0,0,.12.26c.7.91,1.41,1.8,2.1,2.71a.36.36,0,0,0,.51.08c.6-.3,1.21-.59,1.81-.9a31.64,31.64,0,0,0,6.8-4.85.82.82,0,0,0,.29-.68c0-.35,0-.7,0-1A46.71,46.71,0,0,0,45.35,127.59Zm-22.93,3.74a3.24,3.24,0,0,1-3.75,1.43,3.36,3.36,0,0,1-1.33-.8,4.47,4.47,0,0,1-.5-5.74,3.19,3.19,0,0,1,4.17-.91,3.75,3.75,0,0,1,1.91,2.62,4.27,4.27,0,0,1,.11.56A4.23,4.23,0,0,1,22.42,131.33ZM35.2,130a3.25,3.25,0,0,1-4.55.85,4.42,4.42,0,0,1-1-6,3.24,3.24,0,0,1,4.7-.68,4.07,4.07,0,0,1,1.56,2.82A4.52,4.52,0,0,1,35.2,130Z" transform="translate(0 -2.73)"/><path class="cls-1" d="M17.2,317a4.14,4.14,0,0,1,1.9,1.38,4.1,4.1,0,0,1,.79,2.26,4.2,4.2,0,0,1-.47,2.34,4.06,4.06,0,0,1-1.7,1.63,6.77,6.77,0,0,1-2.72.71l-2.41.16.22,3.3-2.76.19-.82-12,5.17-.36A6.73,6.73,0,0,1,17.2,317Zm-.65,5.41a1.88,1.88,0,0,0,.54-1.57,1.93,1.93,0,0,0-.75-1.51,2.9,2.9,0,0,0-1.94-.4l-2.25.15.28,4.15,2.26-.15A2.93,2.93,0,0,0,16.55,322.41Z" transform="translate(0 -2.73)"/><path class="cls-1" d="M21.49,315.46l2.66-.19L25,327.94l-2.66.18Z" transform="translate(0 -2.73)"/><path class="cls-1" d="M33.91,319a3.87,3.87,0,0,1,1.35,3l.36,5.25-2.49.17-.08-1.15a3,3,0,0,1-2.71,1.47,4.22,4.22,0,0,1-1.86-.23,2.67,2.67,0,0,1-1.25-.91,2.46,2.46,0,0,1-.51-1.4,2.38,2.38,0,0,1,.82-2.08,4.88,4.88,0,0,1,2.93-.94l2.12-.15a1.71,1.71,0,0,0-.62-1.3,2.32,2.32,0,0,0-1.62-.36,4.44,4.44,0,0,0-1.43.33,3.77,3.77,0,0,0-1.16.7l-1.08-1.79a5.89,5.89,0,0,1,1.74-.95,8.13,8.13,0,0,1,2.14-.43A4.75,4.75,0,0,1,33.91,319Zm-1.84,6.49a1.74,1.74,0,0,0,.69-1l-.06-.94-1.83.12c-1.09.08-1.61.47-1.57,1.19a1,1,0,0,0,.46.78,1.83,1.83,0,0,0,1.12.23A2.44,2.44,0,0,0,32.07,325.48Z" transform="translate(0 -2.73)"/><path class="cls-1" d="M46.35,317.25l-3.48,10a4.82,4.82,0,0,1-1.41,2.34,3.88,3.88,0,0,1-2.2.8,4.92,4.92,0,0,1-1.43-.12,3.19,3.19,0,0,1-1.19-.54l.84-2a2.35,2.35,0,0,0,1.54.48,1.43,1.43,0,0,0,.87-.33,2.27,2.27,0,0,0,.56-.92l0-.09-4.61-9,2.74-.19,3,6.06,2.17-6.41Z" transform="translate(0 -2.73)"/><path class="cls-1" d="M60.7,325.5l-2.53-3.17H58l-2.4.16.22,3.33-2.76.19-.82-11.95,5.17-.36a6.72,6.72,0,0,1,2.8.35,4.05,4.05,0,0,1,1.9,1.37,4.51,4.51,0,0,1,.31,4.61,4.17,4.17,0,0,1-1.72,1.6l2.94,3.65Zm-1.32-9.11a2.92,2.92,0,0,0-1.94-.41l-2.25.15.29,4.17,2.25-.16a2.88,2.88,0,0,0,1.86-.67,2.17,2.17,0,0,0-.21-3.08Z" transform="translate(0 -2.73)"/><path class="cls-1" d="M67.18,324.58A4.5,4.5,0,0,1,65.27,323a4.6,4.6,0,0,1-.82-2.39,4.72,4.72,0,0,1,.48-2.49,4.5,4.5,0,0,1,1.69-1.8,5.51,5.51,0,0,1,2.56-.79,5.58,5.58,0,0,1,2.64.43,4.56,4.56,0,0,1,1.91,1.56,5,5,0,0,1,.33,4.88,4.49,4.49,0,0,1-1.68,1.81,5.9,5.9,0,0,1-5.2.35ZM71.31,322a2.54,2.54,0,0,0,.53-1.9,2.6,2.6,0,0,0-.78-1.81,2.42,2.42,0,0,0-3.37.23,2.57,2.57,0,0,0-.54,1.9,2.53,2.53,0,0,0,.79,1.81,2.3,2.3,0,0,0,1.74.58A2.23,2.23,0,0,0,71.31,322Z" transform="translate(0 -2.73)"/><path class="cls-1" d="M78.4,323.81a4.5,4.5,0,0,1-1.94-1.55,4.85,4.85,0,0,1-.34-4.88,4.53,4.53,0,0,1,1.72-1.81,5.63,5.63,0,0,1,2.59-.79,5.25,5.25,0,0,1,2.58.43,3.63,3.63,0,0,1,1.7,1.63l-2,1.25A2.28,2.28,0,0,0,80.56,317a2.32,2.32,0,0,0-1.67.8,2.87,2.87,0,0,0,.25,3.72,2.36,2.36,0,0,0,1.77.57,2.25,2.25,0,0,0,2-1.41l2.15,1a3.71,3.71,0,0,1-1.47,1.81,5.06,5.06,0,0,1-2.49.79A5.52,5.52,0,0,1,78.4,323.81Z" transform="translate(0 -2.73)"/><path class="cls-1" d="M90.35,319.85l-1.19,1.35.16,2.34-2.67.18-.86-12.67,2.66-.18.49,7.17,3.64-4,3.18-.22L92.2,318l4.53,5-3.23.22Z" transform="translate(0 -2.73)"/><path class="cls-1" d="M100.11,320.06a1.62,1.62,0,0,1,.54,1.16,3.2,3.2,0,0,1,0,.69,6.82,6.82,0,0,1-.31,1l-.8,2.52-1.69.12.57-2.77a1.37,1.37,0,0,1-.72-.51,1.66,1.66,0,0,1-.31-.88,1.59,1.59,0,0,1,.39-1.21,1.65,1.65,0,0,1,1.16-.54A1.63,1.63,0,0,1,100.11,320.06Z" transform="translate(0 -2.73)"/><path class="cls-1" d="M114.73,310.32a4,4,0,0,1,1.9,1.38,4.53,4.53,0,0,1,.32,4.6,4,4,0,0,1-1.7,1.63,6.68,6.68,0,0,1-2.72.71l-2.41.16.23,3.3-2.77.19-.82-12,5.18-.36A6.66,6.66,0,0,1,114.73,310.32Zm-.65,5.41a2.16,2.16,0,0,0-.21-3.07,2.89,2.89,0,0,0-1.93-.41l-2.26.15.29,4.15,2.25-.15A2.93,2.93,0,0,0,114.08,315.73Z" transform="translate(0 -2.73)"/><path class="cls-1" d="M126.05,312.68a3.87,3.87,0,0,1,1.35,3l.36,5.25-2.49.17-.08-1.15a3,3,0,0,1-2.71,1.48,4.36,4.36,0,0,1-1.86-.24,2.67,2.67,0,0,1-1.25-.91,2.46,2.46,0,0,1-.51-1.4,2.38,2.38,0,0,1,.82-2.08,4.88,4.88,0,0,1,2.93-.94l2.12-.15a1.71,1.71,0,0,0-.62-1.3,2.32,2.32,0,0,0-1.62-.36,4.44,4.44,0,0,0-1.43.33,3.77,3.77,0,0,0-1.16.7l-1.08-1.79a5.66,5.66,0,0,1,1.74-.94,7.76,7.76,0,0,1,2.14-.44A4.76,4.76,0,0,1,126.05,312.68Zm-1.84,6.49a1.74,1.74,0,0,0,.69-1l-.06-.94-1.83.12c-1.09.08-1.61.47-1.57,1.19a1,1,0,0,0,.46.78,1.83,1.83,0,0,0,1.12.23A2.35,2.35,0,0,0,124.21,319.17Z" transform="translate(0 -2.73)"/><path class="cls-1" d="M137.33,311.48a4.16,4.16,0,0,1,1.76,1.54,5,5,0,0,1,.77,2.44,5.07,5.07,0,0,1-.43,2.53,4.25,4.25,0,0,1-1.53,1.77,4.72,4.72,0,0,1-2.29.75,3.57,3.57,0,0,1-2.84-.92l.29,4.28-2.66.18-.86-12.49,2.54-.18.08,1.06a3.52,3.52,0,0,1,2.8-1.39A4.61,4.61,0,0,1,137.33,311.48Zm-.7,6.07a3,3,0,0,0-.25-3.71,2.26,2.26,0,0,0-1.73-.58,2.23,2.23,0,0,0-1.63.81,2.58,2.58,0,0,0-.54,1.9,2.65,2.65,0,0,0,.79,1.81,2.41,2.41,0,0,0,3.36-.23Z" transform="translate(0 -2.73)"/><path class="cls-1" d="M150.63,315.48l-6.94.48a2.13,2.13,0,0,0,1,1.28,2.94,2.94,0,0,0,1.78.38,3.43,3.43,0,0,0,1.26-.3,3.13,3.13,0,0,0,1-.74l1.53,1.43a4.81,4.81,0,0,1-3.69,1.75,6,6,0,0,1-2.79-.42,4.46,4.46,0,0,1-2-1.55,4.75,4.75,0,0,1-.82-2.4,4.7,4.7,0,0,1,.48-2.48,4.46,4.46,0,0,1,1.64-1.81,5.33,5.33,0,0,1,2.46-.78,5.12,5.12,0,0,1,2.48.42,4.27,4.27,0,0,1,1.83,1.54,5,5,0,0,1,.79,2.48A7.07,7.07,0,0,1,150.63,315.48ZM144.2,313a2.19,2.19,0,0,0-.66,1.46l4.53-.31a2.22,2.22,0,0,0-.85-1.35,2.5,2.5,0,0,0-3,.2Z" transform="translate(0 -2.73)"/><path class="cls-1" d="M155.94,310a4.89,4.89,0,0,1,1.85-.47l.17,2.46h-.61a2.44,2.44,0,0,0-1.74.76,2.57,2.57,0,0,0-.52,2l.3,4.33-2.67.19-.63-9.19,2.55-.17.08,1.21A3,3,0,0,1,155.94,310Z" transform="translate(0 -2.73)"/><path class="cls-1" d="M161.93,315.83a1.66,1.66,0,0,1,.54,1.16,3.14,3.14,0,0,1,0,.68,6.23,6.23,0,0,1-.31,1.05l-.8,2.53-1.69.12.57-2.77a1.34,1.34,0,0,1-.72-.51,1.69,1.69,0,0,1-.31-.88,1.61,1.61,0,0,1,.39-1.22,1.79,1.79,0,0,1,2.37-.16Z" transform="translate(0 -2.73)"/><path class="cls-1" d="M170.58,317.79a6.48,6.48,0,0,1-2.2-.85l.8-2.15a6.47,6.47,0,0,0,1.89.78,6.79,6.79,0,0,0,2.14.2,3.37,3.37,0,0,0,1.72-.47,1.07,1.07,0,0,0,.5-1,.88.88,0,0,0-.39-.68,2.38,2.38,0,0,0-.88-.4c-.36-.09-.83-.18-1.44-.28a20.7,20.7,0,0,1-2.28-.49,3.7,3.7,0,0,1-1.56-.94,2.84,2.84,0,0,1-.76-1.87,3.38,3.38,0,0,1,.44-1.93,3.76,3.76,0,0,1,1.61-1.45,7,7,0,0,1,2.74-.69,9.39,9.39,0,0,1,2.25.12,6.44,6.44,0,0,1,2,.66l-.71,2.15a6.77,6.77,0,0,0-3.38-.71,3.14,3.14,0,0,0-1.69.5,1.16,1.16,0,0,0-.49,1,1,1,0,0,0,.71.87,9.69,9.69,0,0,0,2,.46,19.72,19.72,0,0,1,2.28.49,3.75,3.75,0,0,1,1.57.93,2.73,2.73,0,0,1,.75,1.85,3.27,3.27,0,0,1-.44,1.91,3.88,3.88,0,0,1-1.63,1.45,6.82,6.82,0,0,1-2.75.69A9.78,9.78,0,0,1,170.58,317.79Z" transform="translate(0 -2.73)"/><path class="cls-1" d="M181.88,316.73a4.55,4.55,0,0,1-1.95-1.56,4.88,4.88,0,0,1-.33-4.88,4.57,4.57,0,0,1,1.71-1.81,5.66,5.66,0,0,1,2.6-.78,5,5,0,0,1,2.57.43,3.57,3.57,0,0,1,1.7,1.62l-2,1.25a2.25,2.25,0,0,0-2.15-1.12,2.4,2.4,0,0,0-1.68.8,2.91,2.91,0,0,0,.26,3.73,2.33,2.33,0,0,0,1.77.56,2.23,2.23,0,0,0,2-1.41l2.14,1a3.71,3.71,0,0,1-1.46,1.82,5,5,0,0,1-2.49.78A5.62,5.62,0,0,1,181.88,316.73Z" transform="translate(0 -2.73)"/><path class="cls-1" d="M189.59,305.73a1.41,1.41,0,0,1-.54-1,1.38,1.38,0,0,1,.39-1.09,1.92,1.92,0,0,1,2.39-.18,1.3,1.3,0,0,1,.53,1,1.49,1.49,0,0,1-.38,1.14,1.67,1.67,0,0,1-1.17.51A1.66,1.66,0,0,1,189.59,305.73Zm0,1.71,2.66-.18.63,9.19-2.66.18Z" transform="translate(0 -2.73)"/><path class="cls-1" d="M196.18,316.08a6,6,0,0,1-1.79-.59l.76-2a5.12,5.12,0,0,0,1.52.54,6.05,6.05,0,0,0,1.73.13c1.13-.08,1.67-.39,1.63-.95a.59.59,0,0,0-.5-.53,6.45,6.45,0,0,0-1.43-.2,14.16,14.16,0,0,1-1.89-.26,3,3,0,0,1-1.33-.7,2.26,2.26,0,0,1-.65-1.57,2.57,2.57,0,0,1,.4-1.58,3.32,3.32,0,0,1,1.4-1.15,6.36,6.36,0,0,1,2.25-.53,9.1,9.1,0,0,1,1.95.08,5.5,5.5,0,0,1,1.64.48l-.76,2a5.25,5.25,0,0,0-2.69-.5,2.67,2.67,0,0,0-1.26.32.7.7,0,0,0-.39.65.61.61,0,0,0,.5.56,8.7,8.7,0,0,0,1.49.23,14.79,14.79,0,0,1,1.87.27,2.74,2.74,0,0,1,1.3.69,2.24,2.24,0,0,1,.64,1.54,2.42,2.42,0,0,1-.41,1.55,3.24,3.24,0,0,1-1.42,1.14,6.66,6.66,0,0,1-2.31.52A8.91,8.91,0,0,1,196.18,316.08Z" transform="translate(0 -2.73)"/><path class="cls-1" d="M205.25,315.45a5.85,5.85,0,0,1-1.8-.58l.76-2a5.29,5.29,0,0,0,1.53.54,6,6,0,0,0,1.72.13c1.13-.08,1.68-.39,1.64-.95a.6.6,0,0,0-.5-.53,6.66,6.66,0,0,0-1.44-.2,14.16,14.16,0,0,1-1.89-.26,2.92,2.92,0,0,1-1.32-.7,2.22,2.22,0,0,1-.65-1.57,2.5,2.5,0,0,1,.4-1.58,3.29,3.29,0,0,1,1.39-1.15,6.42,6.42,0,0,1,2.26-.53,9.1,9.1,0,0,1,2,.08,5.59,5.59,0,0,1,1.64.48l-.76,2a5.27,5.27,0,0,0-2.69-.5,2.6,2.6,0,0,0-1.27.32.71.71,0,0,0-.38.65.6.6,0,0,0,.5.56,8.53,8.53,0,0,0,1.49.23,15.07,15.07,0,0,1,1.87.27,2.79,2.79,0,0,1,1.3.69,2.24,2.24,0,0,1,.64,1.54,2.42,2.42,0,0,1-.41,1.55,3.3,3.3,0,0,1-1.42,1.14,6.66,6.66,0,0,1-2.31.52A8.91,8.91,0,0,1,205.25,315.45Z" transform="translate(0 -2.73)"/><path class="cls-1" d="M215.2,314.45a4.5,4.5,0,0,1-1.91-1.56,4.57,4.57,0,0,1-.82-2.4A4.72,4.72,0,0,1,213,308a4.56,4.56,0,0,1,1.69-1.8,5.93,5.93,0,0,1,5.19-.36,4.55,4.55,0,0,1,2.73,4,4.52,4.52,0,0,1-2.16,4.29,5.38,5.38,0,0,1-2.55.78A5.51,5.51,0,0,1,215.2,314.45Zm4.13-2.57a2.95,2.95,0,0,0-.25-3.7,2.22,2.22,0,0,0-1.73-.58,2.25,2.25,0,0,0-1.64.81,2.91,2.91,0,0,0,.25,3.7,2.39,2.39,0,0,0,3.37-.23Z" transform="translate(0 -2.73)"/><path class="cls-1" d="M227.87,305a4.7,4.7,0,0,1,1.84-.47l.17,2.46a4.83,4.83,0,0,0-.6,0,2.42,2.42,0,0,0-1.75.76,2.63,2.63,0,0,0-.52,2l.3,4.34-2.66.18-.63-9.19,2.54-.17.09,1.21A2.88,2.88,0,0,1,227.87,305Z" transform="translate(0 -2.73)"/><path class="cls-1" d="M232.82,313.57A6,6,0,0,1,231,313l.75-2a5.29,5.29,0,0,0,1.53.54,6,6,0,0,0,1.73.13c1.12-.07,1.67-.39,1.63-.95a.59.59,0,0,0-.5-.53,6.59,6.59,0,0,0-1.44-.19,15.57,15.57,0,0,1-1.88-.27,2.86,2.86,0,0,1-1.33-.7,2.26,2.26,0,0,1-.65-1.57,2.5,2.5,0,0,1,.4-1.58,3.32,3.32,0,0,1,1.4-1.15,6.31,6.31,0,0,1,2.25-.53,9.8,9.8,0,0,1,2,.08,5.59,5.59,0,0,1,1.64.48l-.76,2a5.27,5.27,0,0,0-2.69-.5,2.88,2.88,0,0,0-1.27.32.71.71,0,0,0-.38.65.61.61,0,0,0,.5.56,7.8,7.8,0,0,0,1.49.23,15.07,15.07,0,0,1,1.87.27,2.79,2.79,0,0,1,1.3.69,2.26,2.26,0,0,1,.64,1.54,2.41,2.41,0,0,1-.41,1.55,3.24,3.24,0,0,1-1.42,1.14,6.66,6.66,0,0,1-2.31.52A8.91,8.91,0,0,1,232.82,313.57Z" transform="translate(0 -2.73)"/><path class="cls-1" d="M239.88,301.22l3.17-.22v7.84l-2.12.15Zm1.21,11.61a1.49,1.49,0,0,1-.54-1.07,1.45,1.45,0,0,1,.39-1.12,1.82,1.82,0,0,1,2.35-.16,1.43,1.43,0,0,1,.54,1.06,1.49,1.49,0,0,1-.4,1.13,1.62,1.62,0,0,1-1.14.53A1.65,1.65,0,0,1,241.09,312.83Z" transform="translate(0 -2.73)"/><path class="cls-1" d="M93.63,381.67a2.37,2.37,0,0,1,.18-3.51,2.45,2.45,0,0,1,3.26.26l5.46,5.46c2.62-19.66,20.79-20.87,22.06-21.08a2.57,2.57,0,0,1,3.06,1.35c.47,1.22-.07,2.84-1.36,3.06-.78.14-17.13,2.06-19.19,18.27l7.43-3.29a2.36,2.36,0,0,1,3.17,1.32,2.45,2.45,0,0,1-1.37,3.06l-11.51,5.1a1.35,1.35,0,0,1-1.48-.27l-.51-.52h0Z" transform="translate(0 -2.73)"/><path class="cls-1" d="M125.67,457.09a2.36,2.36,0,0,1-3.35,1.06,2.47,2.47,0,0,1-.9-3.15l3.22-7c-19.34,4.41-26.82-12.19-27.47-13.31a2.58,2.58,0,0,1,.21-3.34c1-.86,2.68-.92,3.34.21.4.68,7.91,15.33,23.82,11.6l-5.68-5.81a2.38,2.38,0,0,1,.13-3.44,2.47,2.47,0,0,1,3.35.22l8.79,9a1.31,1.31,0,0,1,.26,1.48l-.3.67h0Z" transform="translate(0 -2.73)"/><path class="cls-4" d="M157.77,372.38l-6.48,7.3a.37.37,0,0,1-.36.11l-10.76-2.06c-.36-.08-.39-.44,0-.57l5.08-.93-6.09.11-6,1.73-6.58.46a.43.43,0,0,1-.22,0l-10.24-5.64a1.26,1.26,0,0,1-.57-1.55l4-10.37a.09.09,0,0,1,0-.06l4.81-7.86a3.71,3.71,0,0,1,1.32-1.29l10.33-6a.31.31,0,0,1,.21-.05l4.13.21a.39.39,0,0,1,.32.23l5.87,6.4a.37.37,0,0,1-.44.51l-9.4-3.75,6.93,4,9,4.42a.35.35,0,0,1,.16.2l5.13,14.1A.36.36,0,0,1,157.77,372.38Z" transform="translate(0 -2.73)"/><path class="cls-1" d="M184.61,387.27a2.37,2.37,0,0,1,2.63,2.33A2.47,2.47,0,0,1,185,392l-7.67.84c13.72,14.33,3.32,29.27,2.69,30.4a2.57,2.57,0,0,1-3,1.54c-1.25-.39-2.17-1.82-1.54-3,.38-.7,9.1-14.66-2.29-26.4l-2.06,7.86a2.37,2.37,0,0,1-3,1.65,2.46,2.46,0,0,1-1.53-3l3.2-12.17a1.34,1.34,0,0,1,1.14-1l.73-.08h0Z" transform="translate(0 -2.73)"/><path class="cls-4" d="M107.29,407.3c-6.59-1.47-9.77,7.26-9.77,7.26l-3.94,12.55,0,0,8-3.1Z" transform="translate(0 -2.73)"/><path class="cls-4" d="M106.67,444c-.31-3.39-3.58-5.85-6.08-7.26a20.84,20.84,0,0,0-2.92-1.37l.08-.24,15.4-5.53S121.73,426,120,419.5l-19.51,7.6-7.87,3.07-.23.09s-3.42-8.36-9-8.64-12.74,2.26-13.89,8.18,2.52,9.75,7.22,10.59,12.35-2.18,12.35-2.18l1.15-.42L89.87,439s-.25.7-.56,1.8c-.73,2.58-1.84,7.37-1.12,10.63,1,4.67,5,8.17,10.88,6.78S107.16,449.51,106.67,444ZM85.11,432.58l-5.37,1.84a3.9,3.9,0,0,1-2.34.07,3,3,0,0,1-2-1.51,3.69,3.69,0,0,1,1.94-4.5,22,22,0,0,1,2.82-1.06s2.91-1,5.25,2.11a2.18,2.18,0,0,1,.43,2.41A1.32,1.32,0,0,1,85.11,432.58ZM95.65,452.4a3.05,3.05,0,0,1-1.59-1.92,4,4,0,0,1,0-2.34l1.61-5.44a1.3,1.3,0,0,1,.61-.78,2.2,2.2,0,0,1,2.43.33c3.19,2.21,2.32,5.16,2.32,5.16a22.4,22.4,0,0,1-.94,2.86A3.7,3.7,0,0,1,95.65,452.4Z" transform="translate(0 -2.73)"/><path class="cls-4" d="M169.73,465s20-11.18,25-20.75a3.33,3.33,0,0,0-.62-3.88c-9.6-9.66-27.23-31.57-27.23-31.57s-13.66,12.81-13.35,14.07c.25,1,8.39,8.27,11.61,11.1a3.4,3.4,0,0,1,.78,4.14c-1.2,2.17-4.48,5.39-13,9.2A157.66,157.66,0,0,1,169.73,465Z" transform="translate(0 -2.73)"/><path class="cls-4" d="M151.28,425.37c-.64,3.56-1.44,14.18-.74,18.38a1.47,1.47,0,0,0,1.74,1.2c2.33-.45,6.45-2.86,10.83-7.12a1.87,1.87,0,0,0-.06-2.77,127.11,127.11,0,0,1-10.71-10A.61.61,0,0,0,151.28,425.37Z" transform="translate(0 -2.73)"/></g></g></svg>