
<svg width="55" height="67" fill="none" xmlns="http://www.w3.org/2000/svg"><g filter="url(#filter0_d)"><path d="M44.8461 22.5637c.7129-4.8477-2.9656-7.4711-8.0414-9.2106l1.6539-6.58708-3.9922-.99805-1.5969 6.41603c-1.055-.2567-2.1386-.5133-3.2222-.7414l1.5968-6.44455L27.252 4l-1.6254 6.5586c-.884-.1996-1.7395-.3992-2.5664-.59884v-.02851L17.5281 8.5625l-1.0551 4.2773s2.9657.6844 2.9086.7129c1.6254.3993 1.9106 1.4828 1.8536 2.3383l-1.8821 7.4996c.1141.0285.2567.0571.4278.1426-.1426-.0285-.2852-.057-.4278-.1141l-2.6234 10.4938c-.1996.4848-.7129 1.2262-1.825.941.0285.057-2.9086-.7129-2.9086-.7129L10 38.732l5.2184 1.3117c.9695.2567 1.9105.4848 2.8515.7415l-1.6539 6.6441 3.9922.998 1.6539-6.5871c1.0836.2852 2.1672.5703 3.1938.827l-1.6254 6.5586 3.9922.998 1.6539-6.6441c6.8437 1.2832 11.9765.7699 14.1152-5.418 1.7394-4.9617-.0856-7.8418-3.6785-9.7238 2.6519-.5988 4.6195-2.3383 5.1328-5.8742zm-9.1535 12.832c-1.2262 4.9617-9.6098 2.2812-12.3188 1.5969l2.1957-8.8114c2.709.6844 11.4348 2.0247 10.1231 7.2145zm1.2547-12.9176c-1.1407 4.534-8.0985 2.2242-10.3512 1.6539l1.9961-7.9843c2.2527.5703 9.5242 1.6253 8.3551 6.3304z" fill="url(#paint0_linear)"/></g><defs><linearGradient id="paint0_linear" x1="52.5" y1="61.5" x2="21.5" y2="-8.5" gradientUnits="userSpaceOnUse"><stop stop-color="#F7931A"/><stop offset=".854678" stop-color="#FFCF53"/></linearGradient><filter id="filter0_d" x="0" y="0" width="54.9346" height="66.2238" filterUnits="userSpaceOnUse" color-interpolation-filters="sRGB"><feFlood flood-opacity="0" result="BackgroundImageFix"/><feColorMatrix in="SourceAlpha" values="0 0 0 0 0 0 0 0 0 0 0 0 0 0 0 0 0 0 127 0"/><feOffset dy="6"/><feGaussianBlur stdDeviation="5"/><feColorMatrix values="0 0 0 0 0 0 0 0 0 0 0 0 0 0 0 0 0 0 0.1 0"/><feBlend in2="BackgroundImageFix" result="effect1_dropShadow"/><feBlend in="SourceGraphic" in2="effect1_dropShadow" result="shape"/></filter></defs></svg>