<svg xmlns="http://www.w3.org/2000/svg" viewBox="0 0 106.8 106.81"><defs><style>.cls-1{fill:#4a4845;}.cls-2{fill:#f15c5e;}.cls-3{fill:#fbb040;}.cls-4{fill:#fff;}</style></defs><g id="Layer_2" data-name="Layer 2"><g id="Layer_2-2" data-name="Layer 2"><path class="cls-1" d="M106,58.71A52.68,52.68,0,0,1,96.7,83.8l-.38-.37L93.85,81l-3.5-3.5A44.54,44.54,0,0,1,80.07,88.51L86,94.42l.37.36a52.45,52.45,0,0,1-25.41,11V96.86a44.12,44.12,0,0,1-15.09,0v8.91a52.45,52.45,0,0,1-25.41-11l6.28-6.28a43.92,43.92,0,0,1-10.28-11L10.1,83.8A52.59,52.59,0,0,1,.75,58.71H9.61a44.35,44.35,0,0,1,.77-15.09h-9A52.4,52.4,0,0,1,12,20.45l.37.37L15,23.38l.35.35L17.58,26l.34.34.81.81a44.73,44.73,0,0,1,11.35-10l-.74-.74L29,16.07l-.34-.34L23,10.11A52.42,52.42,0,0,1,45.85,1V11.25a44.79,44.79,0,0,1,15.09,0V1A52.53,52.53,0,0,1,83.79,10.1l-.37.38L80.92,13l-2.76,2.76-.34.35-.37.37-.74.74a44.57,44.57,0,0,1,11.35,10l.81-.81.34-.34,2.38-2.39.36-.36,2.46-2.45.37-.37a52.49,52.49,0,0,1,10.61,23.17h-9a44.35,44.35,0,0,1,.77,15.09Z"/><path class="cls-2" d="M9.29,53.4a44.28,44.28,0,0,0,.32,5.31H.27A51.87,51.87,0,0,1,0,53.4a53.42,53.42,0,0,1,.9-9.78h9.48A44.42,44.42,0,0,0,9.29,53.4Z"/><path class="cls-2" d="M18.73,27.16a44.8,44.8,0,0,0-8,15v0c-.15.48-.29,1-.41,1.44H9.87a44.38,44.38,0,0,1,8.05-17.27Z"/><path class="cls-2" d="M45.85,9.43v1.82a44.16,44.16,0,0,0-15.77,5.94l-.74-.74L29,16.07A44.25,44.25,0,0,1,45.85,9.43Z"/><path class="cls-2" d="M77.82,16.08l-.37.37-.74.74a44.16,44.16,0,0,0-15.77-5.94V9.43A44.16,44.16,0,0,1,77.82,16.08Z"/><path class="cls-2" d="M96.92,43.62h-.46c-.11-.41-.23-.82-.35-1.23,0,0,0,0,0-.07a44.52,44.52,0,0,0-8-15.15l.81-.81A44.19,44.19,0,0,1,96.92,43.62Z"/><path class="cls-2" d="M28.62,15.73l.34.34.38.38A43.53,43.53,0,0,1,45.85,9.94v-1A44.37,44.37,0,0,0,28.62,15.73Zm-19,43h-1a44.87,44.87,0,0,0,7.12,19.47l.72-.72A43.67,43.67,0,0,1,9.61,58.71Zm70.46,29.8a43.76,43.76,0,0,1-19.13,8.35v1a44.81,44.81,0,0,0,19.84-8.65Zm17.11-29.8a43.8,43.8,0,0,1-6.83,18.74l.72.72a44.7,44.7,0,0,0,7.12-19.46ZM96.11,42.39l.3,1.23h1A44.82,44.82,0,0,0,89.21,26l-.34.34-.37.37a44,44,0,0,1,7.59,15.59S96.1,42.37,96.11,42.39ZM26.72,88.5l-.72.72a44.8,44.8,0,0,0,19.85,8.65v-1A43.66,43.66,0,0,1,26.72,88.5Zm-8.8-62.15L17.58,26A44.93,44.93,0,0,0,9.36,43.62h1c.11-.48.23-1,.36-1.44v0A43.6,43.6,0,0,1,18.3,26.73Zm43-17.42v1a43.92,43.92,0,0,1,16.51,6.51l.37-.37.34-.35A44.54,44.54,0,0,0,60.94,8.93Z"/><path class="cls-2" d="M22.65,9.76l.35.35.37.37A52,52,0,0,1,45.85,1.55v-1A52.91,52.91,0,0,0,22.65,9.76Zm-21.38,49h-1A53.09,53.09,0,0,0,9.75,84.15l.73-.73A51.94,51.94,0,0,1,1.27,58.71ZM86.35,94.78,86,94.42a52.15,52.15,0,0,1-25,10.84v1A53.06,53.06,0,0,0,86.69,95.13Zm19.18-36.07a52.08,52.08,0,0,1-9.21,24.72l.38.37.34.34a52.86,52.86,0,0,0,9.49-25.43Zm.37-15.09A53.11,53.11,0,0,0,95.12,20.11l-.34.34-.37.37a52.19,52.19,0,0,1,10.47,22.8ZM20.81,94.41l-.71.71a53,53,0,0,0,25.75,11.15v-1A52.07,52.07,0,0,1,20.81,94.41ZM12,20.45l-.34-.34A53.11,53.11,0,0,0,.9,43.62h1a52,52,0,0,1,10.47-22.8ZM60.94.54v1a52,52,0,0,1,22.48,8.93l.37-.38.34-.34A53,53,0,0,0,60.94.54Z"/><path class="cls-2" d="M25.94,13.05l.36.36A47.84,47.84,0,0,1,45.85,5.63V5.11A48.41,48.41,0,0,0,25.94,13.05ZM5.4,58.71H4.9a48.5,48.5,0,0,0,8.16,22.13l.35-.35A48.16,48.16,0,0,1,5.4,58.71ZM83.15,91.59a48.06,48.06,0,0,1-22.21,9.62v.52A48.65,48.65,0,0,0,83.51,92Zm18.43-32.88a48.1,48.1,0,0,1-8.09,21.88l.36.36a48.47,48.47,0,0,0,8.23-22.24Zm-.19-15.09A48.76,48.76,0,0,0,92,23.27l-.36.36a48,48,0,0,1,9.28,20ZM23.71,91.51l-.36.36a48.77,48.77,0,0,0,22.5,9.83v-.52A48,48,0,0,1,23.71,91.51ZM15,23.38A48.55,48.55,0,0,0,5.59,43.62H6.1a48.19,48.19,0,0,1,9.2-19.89Zm46-18.3V5.6a48,48,0,0,1,19.62,7.73l.36-.36A48.63,48.63,0,0,0,60.94,5.08Z"/><path class="cls-2" d="M95.12,20.11l-.34.34-.37.37L92,23.27l-.36.36L89.21,26l-.34.34-.81.81a44.57,44.57,0,0,0-11.35-10l.74-.74.37-.37.34-.35L80.92,13l2.5-2.49.37-.38.34-.34A53.43,53.43,0,0,1,95.12,20.11Z"/><path class="cls-2" d="M60.94.54V11.25a44.79,44.79,0,0,0-15.09,0V.54a53,53,0,0,1,15.09,0Z"/><path class="cls-2" d="M30.08,17.19a44.73,44.73,0,0,0-11.35,10l-.81-.81L17.58,26,15.3,23.73,15,23.38l-2.56-2.56L12,20.45l-.34-.34a53.34,53.34,0,0,1,11-10.35l.35.35,5.62,5.62.34.34.38.38Z"/><path class="cls-2" d="M26.72,88.5,20.1,95.12a53.89,53.89,0,0,1-10.35-11l6.69-6.69A43.92,43.92,0,0,0,26.72,88.5Z"/><path class="cls-2" d="M60.94,96.86v9.41a53,53,0,0,1-15.09,0V96.86a44.12,44.12,0,0,0,15.09,0Z"/><path class="cls-2" d="M97,84.14a53.7,53.7,0,0,1-10.35,11l-.34-.35L86,94.42l-5.91-5.91A44.54,44.54,0,0,0,90.35,77.45l3.5,3.5,2.47,2.48.38.37Z"/><path class="cls-2" d="M106.8,53.4a51.87,51.87,0,0,1-.27,5.31H97.18a44.35,44.35,0,0,0-.77-15.09h9.49A53.42,53.42,0,0,1,106.8,53.4Z"/><path class="cls-3" d="M37.55,31c-.21-1-.41-2-.65-3.19,1.56.5,3,.94,4.43,1.43.38.13.59.13.78-.29,1.18-2.72,2.39-5.42,3.59-8.13.24.35,0,.65-.12.95-1,2.28-2.07,4.52-3.06,6.81-.4.94-.68,1.07-1.64.76s-2-.64-3-1c-.51-.18-.69-.07-.57.49.2.9.41,1.8.54,2.71.11.73.42.9,1.13.72,2.62-.66,5.28-1.12,7.94-1.6,1.94-.35,3.91-.24,5.86-.48,1.13-.13,2.25-.32,3.36-.56.62-.13.89-.44.74-1.11-.25-1.08-.45-2.17-.66-3.25-.11-.61-.33-.75-.83-.29-.81.76-1.67,1.45-2.51,2.17-.44.38-.84.46-1.28,0-1.88-1.9-3.65-3.9-5.56-5.78a.57.57,0,0,1-.19-.58C47.81,23,50,25,52,27.16c.36.38.53,0,.73-.16,1.12-.95,2.23-1.91,3.48-3,.26,1.23.5,2.34.74,3.45,0,.13,0,.25,0,.37.37,1.77.37,1.78-1.35,2.16a20.56,20.56,0,0,1-4.2.54,57.77,57.77,0,0,0-11.7,1.79C37.91,32.71,37.92,32.75,37.55,31Z"/><path class="cls-3" d="M61.11,44.55a34.57,34.57,0,0,1,2.14,9.85,2.33,2.33,0,0,1-.76,1.85c-4,4.16-7.88,8.36-11.88,12.5-.68.71-.7,1.13.06,1.67a3.49,3.49,0,0,1,.45.47,7.71,7.71,0,0,1-3.32-.06A18.78,18.78,0,0,1,36.42,65a21.21,21.21,0,0,1-1.56-2.16,6.06,6.06,0,0,0-2.13-2c-.57-.3-.48-.53-.16-.95a12.63,12.63,0,0,1,8.18-4.68c1.58-.3,1.61-.26,1.94,1.31a10.2,10.2,0,0,0,1.53,3.61c2.17,3.21,7.54,2.39,9.07-.72a15.17,15.17,0,0,0,1.31-7,48.74,48.74,0,0,0-1.49-11c-.09-.4-.13-.7-.67-.62A41.87,41.87,0,0,0,40.62,44a20.91,20.91,0,0,0-5,3.3c0-1.27,0-2.55,0-3.82,0-2.19,0-4.37-.07-6.56a1.27,1.27,0,0,1,.94-1.4,37.32,37.32,0,0,1,8.66-2.37c3.24-.57,6.51-.8,9.77-1.12a13,13,0,0,0,5.34-1.89c.71,2.64,2.1,5,1.87,7.85a21,21,0,0,1-1,5A2.18,2.18,0,0,0,61.11,44.55Z"/><path class="cls-3" d="M74.48,58a.18.18,0,0,1-.2,0h0l0,0h.27Z"/><path class="cls-2" d="M55.63,30a20.56,20.56,0,0,1-4.2.54,57.77,57.77,0,0,0-11.7,1.79c-1.82.39-1.81.43-2.18-1.34-.21-1-.41-2-.65-3.19,1.56.5,3,.94,4.43,1.43.38.13.59.13.78-.29,1.18-2.72,2.39-5.42,3.59-8.13h.18C47.81,23,50,25,52,27.16c.36.38.53,0,.73-.16,1.12-.95,2.23-1.91,3.48-3,.26,1.23.5,2.34.74,3.45,0,.13,0,.25,0,.37C57.35,29.6,57.35,29.61,55.63,30Z"/><path class="cls-3" d="M74.48,58a.18.18,0,0,1-.2,0h0l0,0h.27Z"/><path class="cls-2" d="M65.83,66.8c2.94.11,5.71,0,8.47.2v.14c0,1.93,0,3.87,0,5.81v.12H65.92a.39.39,0,0,0-.06.11c1,1.1,2,2.08,2.89,3,1.43,1.49,2.83,3,4.28,4.46.5.5.47.8,0,1.27-1.3,1.22-2.56,2.49-3.8,3.77-.37.37-.57.38-.94,0q-7-7.26-14.06-14.5a10,10,0,0,0-1-1c-.6-.46-.6-.81-.06-1.37q7.65-8,15.25-16c.27-.28.45-.66.92-.17,1.59,1.67,3.22,3.31,4.83,5a1.35,1.35,0,0,1,.15.32h-.1l0,0h0L65.8,66.71l-.09.09Z"/><path class="cls-4" d="M50.61,68.75c-.68.71-.7,1.13.06,1.67a3.49,3.49,0,0,1,.45.47,7.71,7.71,0,0,1-3.32-.06A18.78,18.78,0,0,1,36.42,65a21.21,21.21,0,0,1-1.56-2.16,6.06,6.06,0,0,0-2.13-2c-.57-.3-.48-.53-.16-.95a12.63,12.63,0,0,1,8.18-4.68c1.58-.3,1.61-.26,1.94,1.31a10.2,10.2,0,0,0,1.53,3.61c2.17,3.21,7.54,2.39,9.07-.72a15.17,15.17,0,0,0,1.31-7,48.74,48.74,0,0,0-1.49-11c-.09-.4-.13-.7-.67-.62A41.87,41.87,0,0,0,40.62,44a20.91,20.91,0,0,0-5,3.3c0-1.27,0-2.55,0-3.82,0-2.19,0-4.37-.07-6.56a1.27,1.27,0,0,1,.94-1.4,37.32,37.32,0,0,1,8.66-2.37c3.24-.57,6.51-.8,9.77-1.12a13,13,0,0,0,5.34-1.89c.71,2.64,2.1,5,1.87,7.85a21,21,0,0,1-1,5,2.18,2.18,0,0,0,0,1.49,34.57,34.57,0,0,1,2.14,9.85,2.33,2.33,0,0,1-.76,1.85C58.53,60.41,54.61,64.61,50.61,68.75Z"/><path class="cls-3" d="M74.31,58l0,0h0l0,0Z"/></g></g></svg>