<svg xmlns="http://www.w3.org/2000/svg" xmlns:xlink="http://www.w3.org/1999/xlink" viewBox="0 0 95.34 101.05"><defs><style>.cls-1{fill:none;}.cls-2{isolation:isolate;}.cls-3{fill:#8e3133;}.cls-4{clip-path:url(#clip-path);}.cls-5{fill:#913235;}.cls-6{fill:#41403d;}.cls-7{clip-path:url(#clip-path-2);}.cls-8{fill:#42413d;}.cls-9{clip-path:url(#clip-path-3);}.cls-10{fill:#8e3134;}.cls-11{fill:#ed5a5d;}.cls-12{clip-path:url(#clip-path-4);}.cls-13{clip-path:url(#clip-path-5);}.cls-14{clip-path:url(#clip-path-6);}.cls-15{clip-path:url(#clip-path-7);}.cls-16{clip-path:url(#clip-path-8);}.cls-17{clip-path:url(#clip-path-9);}.cls-18{clip-path:url(#clip-path-10);}.cls-19{clip-path:url(#clip-path-11);}.cls-20{clip-path:url(#clip-path-12);}.cls-21{clip-path:url(#clip-path-13);}.cls-22{fill:#4a4844;}.cls-23{fill:#933436;}.cls-24{clip-path:url(#clip-path-14);}.cls-25{clip-path:url(#clip-path-15);}.cls-26{clip-path:url(#clip-path-16);}.cls-27{clip-path:url(#clip-path-17);}.cls-28{clip-path:url(#clip-path-18);}.cls-29{clip-path:url(#clip-path-19);}.cls-30{clip-path:url(#clip-path-20);}.cls-31{clip-path:url(#clip-path-21);}.cls-32{clip-path:url(#clip-path-22);}.cls-33{clip-path:url(#clip-path-23);}.cls-34{clip-path:url(#clip-path-24);}.cls-35{clip-path:url(#clip-path-25);}.cls-36{clip-path:url(#clip-path-26);}.cls-37{clip-path:url(#clip-path-27);}.cls-38{clip-path:url(#clip-path-28);}.cls-39{clip-path:url(#clip-path-29);}.cls-40{clip-path:url(#clip-path-30);}.cls-41{fill:#956920;}.cls-42{clip-path:url(#clip-path-31);}.cls-43{clip-path:url(#clip-path-32);}.cls-44{clip-path:url(#clip-path-33);}.cls-45{clip-path:url(#clip-path-34);}.cls-46{clip-path:url(#clip-path-35);}.cls-47{clip-path:url(#clip-path-36);}.cls-48{clip-path:url(#clip-path-37);}.cls-49{clip-path:url(#clip-path-38);}.cls-50{clip-path:url(#clip-path-39);}.cls-51{clip-path:url(#clip-path-40);}.cls-52{clip-path:url(#clip-path-41);}.cls-53{clip-path:url(#clip-path-42);}.cls-54{clip-path:url(#clip-path-43);}.cls-55{clip-path:url(#clip-path-44);}.cls-56{clip-path:url(#clip-path-45);}.cls-57{clip-path:url(#clip-path-46);}.cls-58{clip-path:url(#clip-path-47);}.cls-59{clip-path:url(#clip-path-48);}.cls-60{clip-path:url(#clip-path-49);}.cls-61{clip-path:url(#clip-path-50);}.cls-62{clip-path:url(#clip-path-51);}.cls-63{clip-path:url(#clip-path-52);}.cls-64{clip-path:url(#clip-path-53);}.cls-65{clip-path:url(#clip-path-54);}.cls-66{clip-path:url(#clip-path-55);}.cls-67{clip-path:url(#clip-path-56);}.cls-68{clip-path:url(#clip-path-57);}.cls-69{clip-path:url(#clip-path-58);}.cls-70{clip-path:url(#clip-path-59);}.cls-71{clip-path:url(#clip-path-60);}.cls-72{clip-path:url(#clip-path-61);}.cls-73{clip-path:url(#clip-path-62);}.cls-74{clip-path:url(#clip-path-63);}.cls-75{clip-path:url(#clip-path-64);}.cls-76{clip-path:url(#clip-path-65);}.cls-77{clip-path:url(#clip-path-66);}.cls-78{clip-path:url(#clip-path-67);}.cls-79{clip-path:url(#clip-path-68);}.cls-80{clip-path:url(#clip-path-69);}.cls-81{clip-path:url(#clip-path-70);}.cls-82{clip-path:url(#clip-path-71);}.cls-83{clip-path:url(#clip-path-72);}.cls-84{clip-path:url(#clip-path-73);}.cls-85{clip-path:url(#clip-path-74);}.cls-86{clip-path:url(#clip-path-75);}.cls-87{fill:#858585;}.cls-88{clip-path:url(#clip-path-76);}.cls-89{clip-path:url(#clip-path-77);}.cls-90{clip-path:url(#clip-path-78);}.cls-91{clip-path:url(#clip-path-79);}.cls-92{clip-path:url(#clip-path-80);}.cls-93{clip-path:url(#clip-path-81);}.cls-94{clip-path:url(#clip-path-82);}.cls-95{clip-path:url(#clip-path-83);}.cls-96{clip-path:url(#clip-path-84);}.cls-97{clip-path:url(#clip-path-85);}.cls-98{clip-path:url(#clip-path-86);}.cls-99{clip-path:url(#clip-path-87);}.cls-100{clip-path:url(#clip-path-88);}.cls-101{clip-path:url(#clip-path-89);}.cls-102{clip-path:url(#clip-path-90);}.cls-103{clip-path:url(#clip-path-91);}.cls-104{clip-path:url(#clip-path-92);}.cls-105{fill:#933336;}.cls-106{clip-path:url(#clip-path-93);}.cls-107{clip-path:url(#clip-path-94);}.cls-108{clip-path:url(#clip-path-95);}.cls-109{fill:#923335;}.cls-110{clip-path:url(#clip-path-96);}.cls-111{clip-path:url(#clip-path-97);}.cls-112{clip-path:url(#clip-path-98);}.cls-113{clip-path:url(#clip-path-99);}.cls-114{clip-path:url(#clip-path-100);}.cls-115{clip-path:url(#clip-path-101);}.cls-116{fill:#fcfcfc;}.cls-117{clip-path:url(#clip-path-102);}.cls-118{clip-path:url(#clip-path-103);}.cls-119{clip-path:url(#clip-path-104);}.cls-120{clip-path:url(#clip-path-105);}.cls-121{clip-path:url(#clip-path-106);}.cls-122{clip-path:url(#clip-path-107);}.cls-123{clip-path:url(#clip-path-108);}.cls-124{clip-path:url(#clip-path-109);}.cls-125{fill:#93671f;}.cls-126{fill:#91661e;}.cls-127{fill:#f7ad3e;}.cls-128{clip-path:url(#clip-path-110);}.cls-129{fill:#976b21;}.cls-130{fill:#41413d;}.cls-131{fill:#946820;}.cls-132{fill:#943436;}.cls-133{clip-path:url(#clip-path-111);}.cls-134{clip-path:url(#clip-path-112);}.cls-135{clip-path:url(#clip-path-113);}.cls-136{clip-path:url(#clip-path-114);}.cls-137{clip-path:url(#clip-path-115);}.cls-138{clip-path:url(#clip-path-116);}.cls-139{clip-path:url(#clip-path-117);}.cls-140{clip-path:url(#clip-path-118);}.cls-141{clip-path:url(#clip-path-119);}.cls-142{clip-path:url(#clip-path-120);}.cls-143{clip-path:url(#clip-path-121);}.cls-144{clip-path:url(#clip-path-122);}.cls-145{clip-path:url(#clip-path-123);}.cls-146{clip-path:url(#clip-path-124);}.cls-147{clip-path:url(#clip-path-125);}.cls-148{clip-path:url(#clip-path-126);}.cls-149{clip-path:url(#clip-path-127);}.cls-150{clip-path:url(#clip-path-128);}.cls-151{clip-path:url(#clip-path-129);}.cls-152{clip-path:url(#clip-path-130);}.cls-153{clip-path:url(#clip-path-131);}.cls-154{clip-path:url(#clip-path-132);}.cls-155{clip-path:url(#clip-path-133);}.cls-156{clip-path:url(#clip-path-134);}.cls-157{clip-path:url(#clip-path-135);}.cls-158{clip-path:url(#clip-path-136);}.cls-159{clip-path:url(#clip-path-137);}.cls-160{clip-path:url(#clip-path-138);}</style><clipPath id="clip-path" transform="translate(-5.73 -2.88)"><path class="cls-1" d="M17.89,31.53l5.39,4.22a65.68,65.68,0,0,0-10,22.34L7.93,53.87A65.49,65.49,0,0,1,17.89,31.53Z"/></clipPath><clipPath id="clip-path-2" transform="translate(-5.73 -2.88)"><path class="cls-1" d="M23.08,41l-5.39-4.22c.7-1.19,1.44-2.36,2.22-3.52l5.39,4.22C24.52,38.6,23.78,39.77,23.08,41Z"/></clipPath><clipPath id="clip-path-3" transform="translate(-5.73 -2.88)"><path class="cls-1" d="M23.08,41A64.66,64.66,0,0,0,20,46.86l-.63-.49-.67-.52L18,45.3l-.71-.55-.7-.55-.7-.54-.66-.53-.63-.49a62.24,62.24,0,0,1,3.06-5.9Z"/></clipPath><clipPath id="clip-path-4" transform="translate(-5.73 -2.88)"><path class="cls-1" d="M15.53,51.74l-3.4-2.66a59.47,59.47,0,0,1,2.5-6.44L20,46.86a59.47,59.47,0,0,0-2.5,6.44l-.23-.18-.25-.2-.25-.2-.27-.2-.26-.2L16,52.11l-.25-.19Z"/></clipPath><clipPath id="clip-path-5" transform="translate(-5.73 -2.88)"><path class="cls-1" d="M17.06,54.8Q16.7,56,16.4,57.29l-2.7-2.11-1-.82-.51-.4-.26-.2c-.07-.06-.15-.19-.24-.19l-.63-.5q.3-1.24.66-2.49Z"/></clipPath><clipPath id="clip-path-6" transform="translate(-5.73 -2.88)"><path class="cls-1" d="M20.18,33.46l5.4,4.22a61.18,61.18,0,0,0-8.75,19.5L11.44,53A61.15,61.15,0,0,1,20.18,33.46Z"/></clipPath><clipPath id="clip-path-7" transform="translate(-5.73 -2.88)"><path class="cls-1" d="M27.38,39.19A61.32,61.32,0,0,0,23.44,46l-.63-.49L22.15,45l-.7-.54-.7-.55L20,43.38l-.69-.55-1.3-1A61.32,61.32,0,0,1,22,35Z"/></clipPath><clipPath id="clip-path-8" transform="translate(-5.73 -2.88)"><path class="cls-1" d="M23,46.13l-5.08-4,.16-.33L23.44,46c-.05.11-.1.22-.16.33l-.16-.12,0,0,0,0,0,0Z"/></clipPath><clipPath id="clip-path-9" transform="translate(-5.73 -2.88)"><path class="cls-1" d="M22.31,47.11,22,46.9l-.28-.22-.28-.23-.29-.22L20.9,46l-.28-.22-.26-.21-.26-.19-1.36-1.07L18.38,44,18,43.77l-.34-.27-.32-.25c.17-.37.34-.73.52-1.1l5.39,4.22c-.17.37-.35.73-.51,1.1l-.06,0-.05,0-.06,0-.06,0-.06,0-.05,0-.06,0Z"/></clipPath><clipPath id="clip-path-10" transform="translate(-5.73 -2.88)"><path class="cls-1" d="M22.77,47.47c-.11.23-.21.46-.31.68l-1.3-1-.69-.54L19.76,46l-.7-.55L18.37,45l-.67-.52-.63-.5.3-.68Z"/></clipPath><clipPath id="clip-path-11" transform="translate(-5.73 -2.88)"><path class="cls-1" d="M33,24.49l5.39,4.22A60.87,60.87,0,0,0,28.28,40l-5.39-4.22A60.87,60.87,0,0,1,33,24.49Z"/></clipPath><clipPath id="clip-path-12" transform="translate(-5.73 -2.88)"><path class="cls-1" d="M47,7.3l5.39,4.22A62.45,62.45,0,0,0,33,24.26L27.64,20A62.49,62.49,0,0,1,47,7.3Z"/></clipPath><clipPath id="clip-path-13" transform="translate(-5.73 -2.88)"><path class="cls-1" d="M38.3,23.13l-5.39-4.22a58.19,58.19,0,0,1,10-6.65l5.39,4.22A58.19,58.19,0,0,0,38.3,23.13Z"/></clipPath><clipPath id="clip-path-14" transform="translate(-5.73 -2.88)"><path class="cls-1" d="M48.31,16.48l-5.39-4.22c.46-.24.93-.48,1.39-.7l5.4,4.22C49.24,16,48.78,16.24,48.31,16.48Z"/></clipPath><clipPath id="clip-path-15" transform="translate(-5.73 -2.88)"><path class="cls-1" d="M52.21,14.65c-.84.35-1.68.73-2.5,1.13l-5.4-4.22c.83-.4,1.67-.78,2.51-1.13Z"/></clipPath><clipPath id="clip-path-16" transform="translate(-5.73 -2.88)"><path class="cls-1" d="M22.46,48.15a53.27,53.27,0,0,0-2.89,8.32l-2.7-2.11-1.31-1-.51-.4c-.07-.06-.15-.19-.24-.19l-.63-.5a53.27,53.27,0,0,1,2.89-8.32Z"/></clipPath><clipPath id="clip-path-17" transform="translate(-5.73 -2.88)"><path class="cls-1" d="M22.56,35.45,28,39.67a55.74,55.74,0,0,0-7.14,15.22l-5.39-4.22A55.45,55.45,0,0,1,22.56,35.45Z"/></clipPath><clipPath id="clip-path-18" transform="translate(-5.73 -2.88)"><path class="cls-1" d="M22.89,35.73,28.28,40a58.55,58.55,0,0,0-7.47,14.94l-5.39-4.22A58.55,58.55,0,0,1,22.89,35.73Z"/></clipPath><clipPath id="clip-path-19" transform="translate(-5.73 -2.88)"><path class="cls-1" d="M46.79,10.89l5.39,4.22a57.34,57.34,0,0,0-16.83,11.1L30,22A57.34,57.34,0,0,1,46.79,10.89Z"/></clipPath><clipPath id="clip-path-20" transform="translate(-5.73 -2.88)"><path class="cls-1" d="M15.42,50.67l5.39,4.22c-.14.46-.26.92-.38,1.36L15,52C15.16,51.59,15.28,51.13,15.42,50.67Z"/></clipPath><clipPath id="clip-path-21" transform="translate(-5.73 -2.88)"><path class="cls-1" d="M46.62,13.79,52,18a53.32,53.32,0,0,0-14.84,9.73l-5.39-4.22A53.41,53.41,0,0,1,46.62,13.79Z"/></clipPath><clipPath id="clip-path-22" transform="translate(-5.73 -2.88)"><path class="cls-1" d="M46.57,14.68,52,18.9a52.32,52.32,0,0,0-14.21,9.32L32.36,24A52.17,52.17,0,0,1,46.57,14.68Z"/></clipPath><clipPath id="clip-path-23" transform="translate(-5.73 -2.88)"><path class="cls-1" d="M46.5,15.84l5.4,4.22a52,52,0,0,0-13.56,8.65L33,24.49A52.1,52.1,0,0,1,46.5,15.84Z"/></clipPath><clipPath id="clip-path-24" transform="translate(-5.73 -2.88)"><path class="cls-1" d="M15,52l5.39,4.22A45.69,45.69,0,0,0,19,65.1l-5.39-4.22A45.69,45.69,0,0,1,15,52Z"/></clipPath><clipPath id="clip-path-25" transform="translate(-5.73 -2.88)"><path class="cls-1" d="M43.54,36.59l-5.39-4.22v0l5.39,4.22Z"/></clipPath><clipPath id="clip-path-26" transform="translate(-5.73 -2.88)"><path class="cls-1" d="M15.37,74.19,10,70c-.15-1.12-.26-2.28-.32-3.46l5.4,4.22C15.11,71.91,15.22,73.07,15.37,74.19Z"/></clipPath><clipPath id="clip-path-27" transform="translate(-5.73 -2.88)"><path class="cls-1" d="M13.63,60.88,19,65.1a41.56,41.56,0,0,0,0,4.6l-5.39-4.22A41.56,41.56,0,0,1,13.63,60.88Z"/></clipPath><clipPath id="clip-path-28" transform="translate(-5.73 -2.88)"><path class="cls-1" d="M43.79,39.09l-2.58-2-.67-.52L39.88,36l-.63-.5-.6-.46,0,0h-.05v0h0c-.12-.83-.24-1.66-.37-2.6l1.3,1,1,.82,3,2.39c.13.94.25,1.77.37,2.6h0l0,0h-.05v0h0Z"/></clipPath><clipPath id="clip-path-29" transform="translate(-5.73 -2.88)"><path class="cls-1" d="M43.92,39.22h0l-.63-.5-.67-.52-.69-.54-.71-.55-.7-.56-.7-.54-.67-.52L38.53,35h0v0l5.39,4.22Z"/></clipPath><clipPath id="clip-path-30" transform="translate(-5.73 -2.88)"><path class="cls-1" d="M43.53,36.55c.14,1,.26,1.82.39,2.67l-.63-.5-.67-.52-.69-.54-.71-.55-.7-.56-.7-.54-.66-.52L38.53,35c-.13-.85-.25-1.7-.39-2.67C39.76,33.6,42.51,34.77,43.53,36.55Z"/></clipPath><clipPath id="clip-path-31" transform="translate(-5.73 -2.88)"><path class="cls-1" d="M43.92,39.22c.1.66.15,1,.31,1.14l-5.39-4.22c-.16-.13-.22-.48-.31-1.14l2.69,2.11.71.55.69.54.34.26.33.26C43.48,38.87,43.8,39,43.92,39.22Z"/></clipPath><clipPath id="clip-path-32" transform="translate(-5.73 -2.88)"><path class="cls-1" d="M43.92,39.22c.1.66.15,1,.31,1.14l-5.39-4.22c-.16-.13-.22-.48-.31-1.14l2.69,2.11.35.27.36.28.35.27.68.53.33.26C43.48,38.87,43.8,39,43.92,39.22Z"/></clipPath><clipPath id="clip-path-33" transform="translate(-5.73 -2.88)"><path class="cls-1" d="M44.35,40.42l-.12-.06-5.39-4.22a.21.21,0,0,0,.12,0Z"/></clipPath><clipPath id="clip-path-34" transform="translate(-5.73 -2.88)"><path class="cls-1" d="M41.78,32.63l5.4,4.22c-1.18-.12-2.37-.2-3.65-.3l-5.39-4.22C39.42,32.43,40.61,32.51,41.78,32.63Z"/></clipPath><clipPath id="clip-path-35" transform="translate(-5.73 -2.88)"><path class="cls-1" d="M44.57,40.4a.6.6,0,0,1-.22,0l-.63-.5-.66-.52-.7-.54-.7-.56L41,37.75l-.69-.54-.67-.52-.63-.5a.42.42,0,0,0,.22,0Z"/></clipPath><clipPath id="clip-path-36" transform="translate(-5.73 -2.88)"><path class="cls-1" d="M45.89,24.27l5.39,4.22c-1.14,2.65-2.29,5.29-3.43,7.94-.12.26-.23.38-.38.41a.69.69,0,0,1-.29,0l-5.4-4.22a.73.73,0,0,0,.3,0c.15,0,.26-.15.38-.41C43.59,29.56,44.75,26.92,45.89,24.27Z"/></clipPath><clipPath id="clip-path-37" transform="translate(-5.73 -2.88)"><path class="cls-1" d="M44.59,40.39l-4.76-3.72-.09-.07-.08-.06-.08-.06-.07-.06-.08-.06-.08-.07-.08-.06-.07-.06a7.08,7.08,0,0,0,1.08-.47l4.8,3.76.32.25.23.18,0,0A7.08,7.08,0,0,1,44.59,40.39Z"/></clipPath><clipPath id="clip-path-38" transform="translate(-5.73 -2.88)"><path class="cls-1" d="M56.27,32.74l-5.39-4.22,0,0c-1.6-1.43-3.3-2.73-4.81-4.27l5.39,4.22C53,30,54.65,31.29,56.25,32.72Z"/></clipPath><clipPath id="clip-path-39" transform="translate(-5.73 -2.88)"><path class="cls-1" d="M56.27,32.74l-5.39-4.22a.23.23,0,0,0,.21.06c.15,0,.27-.24.39-.37,1-1.09,2-2.18,3.08-3.39L60,29c-1.11,1.21-2.09,2.3-3.08,3.39-.12.13-.23.33-.38.37A.24.24,0,0,1,56.27,32.74Z"/></clipPath><clipPath id="clip-path-40" transform="translate(-5.73 -2.88)"><path class="cls-1" d="M45.67,39.92,40.28,35.7a60.43,60.43,0,0,1,9.93-4.11l5.4,4.22A60.17,60.17,0,0,0,45.67,39.92Z"/></clipPath><clipPath id="clip-path-41" transform="translate(-5.73 -2.88)"><path class="cls-1" d="M55.61,35.81l-5.4-4.22a20.62,20.62,0,0,0,3.56-1.39l5.39,4.22A20.53,20.53,0,0,1,55.61,35.81Z"/></clipPath><clipPath id="clip-path-42" transform="translate(-5.73 -2.88)"><path class="cls-1" d="M44.23,40.36l-5.39-4.22a.37.37,0,0,0,.36,0,7.08,7.08,0,0,0,1.08-.47,60.43,60.43,0,0,1,9.93-4.11,20.62,20.62,0,0,0,3.56-1.39c1-.49,1.32-.65,1.35-1.17a5.87,5.87,0,0,0-.1-1l5.39,4.22a5.87,5.87,0,0,1,.1,1c0,.53-.34.68-1.35,1.17a20.53,20.53,0,0,1-3.55,1.39,60.17,60.17,0,0,0-9.94,4.11,7.08,7.08,0,0,1-1.08.47A.37.37,0,0,1,44.23,40.36Z"/></clipPath><clipPath id="clip-path-43" transform="translate(-5.73 -2.88)"><path class="cls-1" d="M44.59,40.39h0l-.63-.49-.67-.53-.69-.54-.71-.55-.7-.55-.7-.55-.66-.52-.63-.49h0Z"/></clipPath><clipPath id="clip-path-44" transform="translate(-5.73 -2.88)"><path class="cls-1" d="M59.19,12.56l5.39,4.22a36.53,36.53,0,0,0-6.31,1.07,42.53,42.53,0,0,0-6.37,2.21l-5.4-4.22a42.26,42.26,0,0,1,6.38-2.21A36.37,36.37,0,0,1,59.19,12.56Z"/></clipPath><clipPath id="clip-path-45" transform="translate(-5.73 -2.88)"><path class="cls-1" d="M15.37,74.19a34.46,34.46,0,0,0,1.5,6.48l-5.39-4.22A34.46,34.46,0,0,1,10,70l.25.21,4.28,3.34.46.36.12.1.06,0,.11.09S15.35,74.16,15.37,74.19Z"/></clipPath><clipPath id="clip-path-46" transform="translate(-5.73 -2.88)"><path class="cls-1" d="M6.61,67.3,12,71.52a35,35,0,0,0,6.49,19.74L13.1,87A35,35,0,0,1,6.61,67.3Z"/></clipPath><clipPath id="clip-path-47" transform="translate(-5.73 -2.88)"><path class="cls-1" d="M16.87,80.67a29.92,29.92,0,0,0,2.23,5.09l-.63-.5-.67-.52-1.4-1.09-.7-.56-.7-.54-1.29-1a29.92,29.92,0,0,1-2.23-5.09c.89.71,1.79,1.41,2.69,2.11l1.06.83.34.27.67.52A3.42,3.42,0,0,1,16.87,80.67Z"/></clipPath><clipPath id="clip-path-48" transform="translate(-5.73 -2.88)"><path class="cls-1" d="M19.24,86a27.08,27.08,0,0,0,1.54,2.43l-5.39-4.22a27.16,27.16,0,0,1-1.55-2.43l1.73,1.35,1.83,1.44.24.18.24.19.47.37.46.36A3.5,3.5,0,0,1,19.24,86Z"/></clipPath><clipPath id="clip-path-49" transform="translate(-5.73 -2.88)"><path class="cls-1" d="M10.08,66.4l5.39,4.22A32.69,32.69,0,0,0,21.1,88.05l-5.39-4.22A32.6,32.6,0,0,1,10.08,66.4Z"/></clipPath><clipPath id="clip-path-50" transform="translate(-5.73 -2.88)"><path class="cls-1" d="M19.29,77,19,76.81l-.27-.21-.29-.23-.29-.22-.29-.23-.28-.22-.28-.22-.26-.2L16.7,75l-.39-.31-.41-.32L15.49,74l-.42-.33-.41-.32-.39-.3-.37-.29a34.54,34.54,0,0,1-1.13-7.1l5.4,4.22A34.55,34.55,0,0,0,19.29,77Z"/></clipPath><clipPath id="clip-path-51" transform="translate(-5.73 -2.88)"><path class="cls-1" d="M19.29,77c.14.5.29,1,.45,1.49l-5.39-4.23c-.16-.48-.31-1-.45-1.48l3.17,2.48,1.11.87.15.11.29.23.41.32C19.11,76.87,19.24,76.93,19.29,77Z"/></clipPath><clipPath id="clip-path-52" transform="translate(-5.73 -2.88)"><path class="cls-1" d="M19.74,78.51h0L19.11,78l-.66-.53-.7-.54-.7-.55-.71-.55-.69-.54L15,74.79l-.63-.49v0c.89.71,1.79,1.41,2.69,2.11l1.74,1.36.65.51A1.89,1.89,0,0,1,19.74,78.51Z"/></clipPath><clipPath id="clip-path-53" transform="translate(-5.73 -2.88)"><path class="cls-1" d="M20.23,79.88l-1-.81-4.35-3.41c-.18-.44-.34-.9-.49-1.36l5.39,4.22C19.89,79,20.06,79.44,20.23,79.88Z"/></clipPath><clipPath id="clip-path-54" transform="translate(-5.73 -2.88)"><path class="cls-1" d="M78.12,7l5.4,4.22a33.12,33.12,0,0,0-18.45-3L59.68,4A33.07,33.07,0,0,1,78.12,7Z"/></clipPath><clipPath id="clip-path-55" transform="translate(-5.73 -2.88)"><path class="cls-1" d="M68.7,11.17a1.74,1.74,0,0,1-.38-.29l-.39-.31-.41-.32-.42-.32-.41-.33-.41-.32L65.88,9l-.37-.29-1.1-.86-.29-.23-.28-.22-.28-.22L63.3,7a33,33,0,0,1,5.15.45l5.39,4.22A33,33,0,0,0,68.7,11.17Z"/></clipPath><clipPath id="clip-path-56" transform="translate(-5.73 -2.88)"><path class="cls-1" d="M54.56,24.82,60,29c.15,1,.3,1.94.44,2.87L55,27.69C54.85,26.76,54.71,25.84,54.56,24.82Z"/></clipPath><clipPath id="clip-path-57" transform="translate(-5.73 -2.88)"><path class="cls-1" d="M55,27.69l5.39,4.22c0,.11,0,.22,0,.32L55,28C55,27.91,55,27.8,55,27.69Z"/></clipPath><clipPath id="clip-path-58" transform="translate(-5.73 -2.88)"><path class="cls-1" d="M59.54,34.24l-.38.18-.63-.49-.67-.52-.69-.54-.71-.56-.7-.55-.7-.54-.66-.52-.63-.5.37-.18Z"/></clipPath><clipPath id="clip-path-59" transform="translate(-5.73 -2.88)"><path class="cls-1" d="M60.51,33.25c0,.45-.26.63-1,1L54.14,30c.72-.36,1-.54,1-1Z"/></clipPath><clipPath id="clip-path-60" transform="translate(-5.73 -2.88)"><path class="cls-1" d="M78.29,12.74a27.86,27.86,0,0,0-4.45-1.12l-.63-.49-.66-.53-.7-.54-.7-.55L70.44,9l-.69-.55-.67-.52-.63-.49A27.86,27.86,0,0,1,72.9,8.52Z"/></clipPath><clipPath id="clip-path-61" transform="translate(-5.73 -2.88)"><path class="cls-1" d="M57.63,29.37,63,33.59a15,15,0,0,1-4.57,2.82c-2.76,1-5.53,1.91-8.28,3.11a41.42,41.42,0,0,0-7.39,4,1.6,1.6,0,0,0-.87,1.38l-5.39-4.22a1.61,1.61,0,0,1,.86-1.38,41.84,41.84,0,0,1,7.4-4c2.75-1.2,5.51-2.12,8.28-3.11A15,15,0,0,0,57.63,29.37Z"/></clipPath><clipPath id="clip-path-62" transform="translate(-5.73 -2.88)"><path class="cls-1" d="M38.25,65.74h0l-5.39-4.22h0l5.39,4.22Z"/></clipPath><clipPath id="clip-path-63" transform="translate(-5.73 -2.88)"><path class="cls-1" d="M38,66.23h0L32.63,62h0L38,66.22,32.63,62a1.35,1.35,0,0,1,.23-.49l5.39,4.22A1.35,1.35,0,0,0,38,66.23Z"/></clipPath><clipPath id="clip-path-64" transform="translate(-5.73 -2.88)"><path class="cls-1" d="M20.23,79.88a27,27,0,0,0,2.93,5.63l-5.39-4.22a27,27,0,0,1-2.93-5.63l.5.4.54.42.56.44.57.45.57.44.56.44,1.05.82.52.41.07,0,.13.11.13.1.07.05Z"/></clipPath><clipPath id="clip-path-65" transform="translate(-5.73 -2.88)"><path class="cls-1" d="M38,66.23a.2.2,0,0,0,.09.2l-5.39-4.22a.2.2,0,0,1-.09-.2Z"/></clipPath><clipPath id="clip-path-66" transform="translate(-5.73 -2.88)"><path class="cls-1" d="M28.91,90.23,23.51,86a24.15,24.15,0,0,1-5.1-5.51l5.39,4.22A24.19,24.19,0,0,0,28.91,90.23Z"/></clipPath><clipPath id="clip-path-67" transform="translate(-5.73 -2.88)"><path class="cls-1" d="M23.18,97.54l-5.39-4.22a28.28,28.28,0,0,0,2.8,1.92L26,99.46A28.28,28.28,0,0,1,23.18,97.54Z"/></clipPath><clipPath id="clip-path-68" transform="translate(-5.73 -2.88)"><path class="cls-1" d="M31.88,92.2a22.16,22.16,0,0,1-3-2L23.51,86a22.93,22.93,0,0,0,3,2h0l5.39,4.22Z"/></clipPath><clipPath id="clip-path-69" transform="translate(-5.73 -2.88)"><path class="cls-1" d="M47.54,95.4a27,27,0,0,1-15.66-3.2L26.49,88a27,27,0,0,0,15.66,3.2,35.64,35.64,0,0,0,6.3-1.07,40.51,40.51,0,0,0,6.38-2.21A53.52,53.52,0,0,0,71.34,76.39l5.39,4.23A53.86,53.86,0,0,1,60.22,92.13a41.76,41.76,0,0,1-6.37,2.2A35.9,35.9,0,0,1,47.54,95.4Z"/></clipPath><clipPath id="clip-path-70" transform="translate(-5.73 -2.88)"><path class="cls-1" d="M42.09,92.07l5.4,4.22A27.78,27.78,0,0,1,31.24,93l-5.39-4.22A27.75,27.75,0,0,0,42.09,92.07Z"/></clipPath><clipPath id="clip-path-71" transform="translate(-5.73 -2.88)"><path class="cls-1" d="M41.93,95l5.39,4.22A29.75,29.75,0,0,1,29.2,95.5l-5.39-4.22A29.75,29.75,0,0,0,41.93,95Z"/></clipPath><clipPath id="clip-path-72" transform="translate(-5.73 -2.88)"><path class="cls-1" d="M41.9,95.45l5.39,4.22A30.27,30.27,0,0,1,28.88,95.9l-5.39-4.22A30.27,30.27,0,0,0,41.9,95.45Z"/></clipPath><clipPath id="clip-path-73" transform="translate(-5.73 -2.88)"><path class="cls-1" d="M41.72,98.57l5.39,4.22a32.36,32.36,0,0,1-20.5-4.1l-5.39-4.22A32.36,32.36,0,0,0,41.72,98.57Z"/></clipPath><clipPath id="clip-path-74" transform="translate(-5.73 -2.88)"><path class="cls-1" d="M13.62,65.48,19,69.7a29.64,29.64,0,0,0,4.79,15L18.41,80.5A29.64,29.64,0,0,1,13.62,65.48Z"/></clipPath><clipPath id="clip-path-75" transform="translate(-5.73 -2.88)"><path class="cls-1" d="M50.93,40.37l5.39,4.22a.28.28,0,0,0-.25,0l-.14,0a47,47,0,0,0-10.1,5.44,27.39,27.39,0,0,0-4.39,4l-5.39-4.22a27.39,27.39,0,0,1,4.39-4,47,47,0,0,1,10.1-5.44l.14,0A.29.29,0,0,1,50.93,40.37Z"/></clipPath><clipPath id="clip-path-76" transform="translate(-5.73 -2.88)"><path class="cls-1" d="M33.87,62.8,39.26,67a2.69,2.69,0,0,0-.92-.48.7.7,0,0,1-.23-.11l-5.39-4.22a.7.7,0,0,0,.23.11A2.69,2.69,0,0,1,33.87,62.8Z"/></clipPath><clipPath id="clip-path-77" transform="translate(-5.73 -2.88)"><path class="cls-1" d="M78.29,12.74l-.06-.05-.56-.44-.15-.11L77.39,12l-.14-.11-.06-.05-.5-.39-.53-.41L75,10.19l-.56-.43-.55-.44-.53-.41-.5-.39a25.25,25.25,0,0,1,3,1.21L81.29,14A26.11,26.11,0,0,0,78.29,12.74Z"/></clipPath><clipPath id="clip-path-78" transform="translate(-5.73 -2.88)"><path class="cls-1" d="M75.57,10.12,81,14.34a30.57,30.57,0,0,0-16.1-2.54L59.47,7.58A30.49,30.49,0,0,1,75.57,10.12Z"/></clipPath><clipPath id="clip-path-79" transform="translate(-5.73 -2.88)"><path class="cls-1" d="M73.44,12.75,78.83,17A28.35,28.35,0,0,0,64.7,14.73l-5.4-4.22A28.39,28.39,0,0,1,73.44,12.75Z"/></clipPath><clipPath id="clip-path-80" transform="translate(-5.73 -2.88)"><path class="cls-1" d="M72.8,13.54l5.4,4.22a28.15,28.15,0,0,0-13.56-2.14L59.25,11.4A28.09,28.09,0,0,1,72.8,13.54Z"/></clipPath><clipPath id="clip-path-81" transform="translate(-5.73 -2.88)"><path class="cls-1" d="M72.15,14.36l5.39,4.22a28.25,28.25,0,0,0-13-1.8l-5.39-4.22A28.12,28.12,0,0,1,72.15,14.36Z"/></clipPath><clipPath id="clip-path-82" transform="translate(-5.73 -2.88)"><path class="cls-1" d="M45.37,59.84a16.16,16.16,0,0,0-7.12,5.9l-.63-.49L37,64.73l-.7-.55-.7-.55-.71-.55-.69-.54L33.49,62l-.63-.5A16.16,16.16,0,0,1,40,55.62Z"/></clipPath><clipPath id="clip-path-83" transform="translate(-5.73 -2.88)"><path class="cls-1" d="M45.37,59.84h0l-.63-.5-.67-.52-.69-.54-.71-.55-.7-.55-.69-.55-.67-.52L40,55.62h0Z"/></clipPath><clipPath id="clip-path-84" transform="translate(-5.73 -2.88)"><path class="cls-1" d="M46.24,59.49a5.72,5.72,0,0,0-.87.35l-.63-.5-.67-.52-.69-.54-.71-.55-.7-.56-.69-.54-.67-.52L40,55.62a5.72,5.72,0,0,1,.87-.35l5.39,4.21L45.61,59l-.67-.52-.69-.54-.71-.55-.7-.56-.69-.54-.67-.52-.63-.49h0l5.39,4.22Z"/></clipPath><clipPath id="clip-path-85" transform="translate(-5.73 -2.88)"><path class="cls-1" d="M40,67.83h0l-5.39-4.22h0a4.56,4.56,0,0,0-.77-.81L39.26,67A4.56,4.56,0,0,1,40,67.83Z"/></clipPath><clipPath id="clip-path-86" transform="translate(-5.73 -2.88)"><path class="cls-1" d="M46.63,59.52a.42.42,0,0,0-.39,0l-.63-.5L45,58.47l-.7-.54-.7-.55-.71-.55-.69-.55-.67-.52-.63-.49a.42.42,0,0,1,.39,0Z"/></clipPath><clipPath id="clip-path-87" transform="translate(-5.73 -2.88)"><path class="cls-1" d="M41.23,69.4c.22.2.45.4.68.58l-5.39-4.22c-.23-.18-.46-.38-.68-.58a11.82,11.82,0,0,1-1.2-1.57L40,67.83A12.74,12.74,0,0,0,41.23,69.4Z"/></clipPath><clipPath id="clip-path-88" transform="translate(-5.73 -2.88)"><path class="cls-1" d="M41.24,55.3l5.39,4.22c.16.12.22.45.31,1A6.51,6.51,0,0,0,48,63.42a2.38,2.38,0,0,0,.49.51l-5.39-4.22a2.38,2.38,0,0,1-.49-.51,6.51,6.51,0,0,1-1.09-2.85C41.45,55.75,41.4,55.42,41.24,55.3Z"/></clipPath><clipPath id="clip-path-89" transform="translate(-5.73 -2.88)"><path class="cls-1" d="M78.07,17.76,83.46,22a23.93,23.93,0,0,0-5.92-3.4l-5.39-4.22A23.93,23.93,0,0,1,78.07,17.76Z"/></clipPath><clipPath id="clip-path-90" transform="translate(-5.73 -2.88)"><path class="cls-1" d="M50.39,64.47a2.78,2.78,0,0,1-1.87-.54l-5.39-4.22a2.78,2.78,0,0,0,1.87.54Z"/></clipPath><clipPath id="clip-path-91" transform="translate(-5.73 -2.88)"><path class="cls-1" d="M51.4,64.32a4.49,4.49,0,0,1-1,.15L49.76,64l-.67-.52-.69-.54-.71-.56-.7-.55-.69-.54-.67-.52-.63-.5a4.57,4.57,0,0,0,1-.15,6.91,6.91,0,0,0,4.3-3.5,16.42,16.42,0,0,0,1.44-6.23,1.41,1.41,0,0,0,0-.2,41.12,41.12,0,0,0-.68-9.38c0-.19-.06-.35-.15-.42l5.39,4.22c.09.07.11.23.15.42a41.12,41.12,0,0,1,.68,9.38,1.41,1.41,0,0,1,0,.2,16.23,16.23,0,0,1-1.44,6.23A6.91,6.91,0,0,1,51.4,64.32Z"/></clipPath><clipPath id="clip-path-92" transform="translate(-5.73 -2.88)"><path class="cls-1" d="M86.57,24.89a27.09,27.09,0,0,1,6,11.59l-2.7-2.11-2.06-1.62-.63-.49a27.09,27.09,0,0,0-6-11.59,23.85,23.85,0,0,0-3.11-2.92L83.46,22A23.11,23.11,0,0,1,86.57,24.89Z"/></clipPath><clipPath id="clip-path-93" transform="translate(-5.73 -2.88)"><path class="cls-1" d="M83.6,9.26,89,13.48a28.48,28.48,0,0,1,3.87,3.66l-5.39-4.22A28.48,28.48,0,0,0,83.6,9.26Z"/></clipPath><clipPath id="clip-path-94" transform="translate(-5.73 -2.88)"><path class="cls-1" d="M87,24.41a27.44,27.44,0,0,1,5.59,12.07q-2.39-1.86-4.76-3.73l-.63-.49a27.44,27.44,0,0,0-5.59-12.07C83.19,21.46,85.49,23,87,24.41Z"/></clipPath><clipPath id="clip-path-95" transform="translate(-5.73 -2.88)"><path class="cls-1" d="M92.68,37.18,92.43,37l-.25-.21-.27-.21-.28-.21-.27-.21-.27-.21-.5-.4-.39-.3-.41-.32-.42-.33-.43-.34-.43-.34-.43-.33-.41-.32-.38-.3c-.05-.22-.09-.45-.13-.7l5.39,4.22C92.59,36.73,92.64,37,92.68,37.18Z"/></clipPath><clipPath id="clip-path-96" transform="translate(-5.73 -2.88)"><path class="cls-1" d="M92.68,37.18c0,.13,0,.25.07.37l-5.39-4.22c0-.12,0-.24-.07-.37l3.3,2.58,1,.82.14.11.79.61S92.66,37.14,92.68,37.18Z"/></clipPath><clipPath id="clip-path-97" transform="translate(-5.73 -2.88)"><path class="cls-1" d="M82.21,19.41l5.39,4.22a28.34,28.34,0,0,1,6,13.7l-5.39-4.22A28.34,28.34,0,0,0,82.21,19.41Z"/></clipPath><clipPath id="clip-path-98" transform="translate(-5.73 -2.88)"><path class="cls-1" d="M52.71,71l-5.39-4.22a.52.52,0,0,1-.22-.42,1.81,1.81,0,0,1,.48-.91c3.57-4.5,7.07-9.05,10.62-13.58a2.91,2.91,0,0,0,.73-1.66V50a26.25,26.25,0,0,0-1.3-8.21,1.84,1.84,0,0,1-.08-.7,2.1,2.1,0,0,1,.13-.6,24,24,0,0,0,1.13-4.65c0-.2,0-.39,0-.58.12-2.23-.79-3.93-1.23-5.92L63,33.59c.44,2,1.35,3.69,1.23,5.92,0,.19,0,.38,0,.58a22.66,22.66,0,0,1-1.13,4.65,2.5,2.5,0,0,0-.13.6A1.85,1.85,0,0,0,63,46a26.55,26.55,0,0,1,1.29,8.21v.13A2.9,2.9,0,0,1,63.6,56C60.05,60.57,56.54,65.12,53,69.62a1.9,1.9,0,0,0-.48.91A.52.52,0,0,0,52.71,71Z"/></clipPath><clipPath id="clip-path-99" transform="translate(-5.73 -2.88)"><path class="cls-1" d="M52.93,71.08a1.16,1.16,0,0,1-.22-.13l-5.39-4.22a1.16,1.16,0,0,0,.22.13Z"/></clipPath><clipPath id="clip-path-100" transform="translate(-5.73 -2.88)"><path class="cls-1" d="M47.63,66.92,53,71.14l-.09-.06-5.39-4.22Z"/></clipPath><clipPath id="clip-path-101" transform="translate(-5.73 -2.88)"><path class="cls-1" d="M47.63,66.92,53,71.14c.08.06.15.15.27.26L47.9,67.18C47.78,67.07,47.71,67,47.63,66.92Z"/></clipPath><clipPath id="clip-path-102" transform="translate(-5.73 -2.88)"><path class="cls-1" d="M41.92,70l-5.4-4.22a11.49,11.49,0,0,0,8.59,2.09,11.91,11.91,0,0,0,1.69-.25,4.84,4.84,0,0,0,1.1-.42l5.39,4.22a4.84,4.84,0,0,1-1.1.42,11.71,11.71,0,0,1-1.69.25A11.45,11.45,0,0,1,41.92,70Z"/></clipPath><clipPath id="clip-path-103" transform="translate(-5.73 -2.88)"><path class="cls-1" d="M68.74,51.76q-6.81,8.72-13.63,17.42l-.63-.49-.67-.53-.69-.54-.71-.55-.7-.55L51,66l-.67-.53L49.71,65q6.84-8.7,13.64-17.42h0l5.39,4.22Z"/></clipPath><clipPath id="clip-path-104" transform="translate(-5.73 -2.88)"><path class="cls-1" d="M69.19,51.28c-.16,0-.29.27-.45.48l-.63-.5-.67-.52-.69-.54L66,49.65l-.7-.56-.7-.54L64,48l-.63-.49c.16-.21.28-.43.45-.48Z"/></clipPath><clipPath id="clip-path-105" transform="translate(-5.73 -2.88)"><path class="cls-1" d="M69.19,51.28h0L63.8,47.06h0a.31.31,0,0,1,.28.09l5.39,4.22A.31.31,0,0,0,69.19,51.28Z"/></clipPath><clipPath id="clip-path-106" transform="translate(-5.73 -2.88)"><path class="cls-1" d="M55.11,69.18c-.43.55-.49.85-.17,1.11l-5.39-4.22c-.33-.26-.26-.56.16-1.11Z"/></clipPath><clipPath id="clip-path-107" transform="translate(-5.73 -2.88)"><path class="cls-1" d="M49.91,66.31l5.39,4.22a1.07,1.07,0,0,0-.22-.15l-.14-.09-5.39-4.22.14.09A1.07,1.07,0,0,1,49.91,66.31Z"/></clipPath><clipPath id="clip-path-108" transform="translate(-5.73 -2.88)"><path class="cls-1" d="M64.08,47.15l5.39,4.22,0,0c1.25,1.13,2.54,2.21,3.81,3.31L67.94,50.5c-1.27-1.11-2.56-2.18-3.81-3.31Z"/></clipPath><clipPath id="clip-path-109" transform="translate(-5.73 -2.88)"><path class="cls-1" d="M68,50.76,73.36,55c-2.44,3.16-4.92,6.29-7.52,9.55l-5.39-4.22C63,57.05,65.53,53.92,68,50.76Z"/></clipPath><clipPath id="clip-path-110" transform="translate(-5.73 -2.88)"><path class="cls-1" d="M67.94,50.5l5.39,4.22a.82.82,0,0,1,.11.25l-5.39-4.22A.82.82,0,0,0,67.94,50.5Z"/></clipPath><clipPath id="clip-path-111" transform="translate(-5.73 -2.88)"><path class="cls-1" d="M67.58,58.72,73,62.94c-2.31.38-4.64,1.12-7.11,1.66l-5.39-4.22C62.94,59.84,65.27,59.1,67.58,58.72Z"/></clipPath><clipPath id="clip-path-112" transform="translate(-5.73 -2.88)"><path class="cls-1" d="M55.85,71l8.27,7.23L58.72,74l-8.26-7.23c-.19-.16-.35-.35-.55-.5l5.39,4.22C55.5,70.68,55.67,70.87,55.85,71Z"/></clipPath><clipPath id="clip-path-113" transform="translate(-5.73 -2.88)"><path class="cls-1" d="M67.58,58.84,73,63.06c-.12,1.7-.22,3.42-.33,5.12L67.25,64C67.36,62.26,67.46,60.54,67.58,58.84Z"/></clipPath><clipPath id="clip-path-114" transform="translate(-5.73 -2.88)"><path class="cls-1" d="M92.76,37.61a37.58,37.58,0,0,1,.41,8.31L87.78,41.7a38.19,38.19,0,0,0-.41-8.31l2,1.54.7.55.35.28.69.54.35.27,1.28,1S92.75,37.59,92.76,37.61Z"/></clipPath><clipPath id="clip-path-115" transform="translate(-5.73 -2.88)"><path class="cls-1" d="M64.12,78.26l2.81,2.47-.63-.49-.66-.52-.7-.54-.7-.56-.71-.55-.69-.54L62.17,77l-.63-.5L58.72,74l2.7,2.11,1.4,1.09C63.25,77.58,63.69,77.91,64.12,78.26Z"/></clipPath><clipPath id="clip-path-116" transform="translate(-5.73 -2.88)"><path class="cls-1" d="M66.94,80.74l.06.05-5.4-4.22a.1.1,0,0,0-.06,0h0l5.39,4.22Z"/></clipPath><clipPath id="clip-path-117" transform="translate(-5.73 -2.88)"><path class="cls-1" d="M67,80.79l-5.4-4.22a.35.35,0,0,0,.32.09c.12,0,.24-.14.41-.35,1.11-1.39,2.23-2.78,3.39-4.13.45-.54.5-.8.1-1.14-1.15-1-2.25-2-3.37-3C61.71,67.4,61,66.73,60.17,66l5.39,4.22,2.28,2.06c1.12,1,2.23,2,3.37,3,.4.34.35.6-.1,1.14-1.15,1.35-2.28,2.74-3.39,4.13a.86.86,0,0,1-.41.35A.33.33,0,0,1,67,80.79Z"/></clipPath><clipPath id="clip-path-118" transform="translate(-5.73 -2.88)"><path class="cls-1" d="M92.76,37.61h0l-3-2.37-2.33-1.82v-.06l5.39,4.22Z"/></clipPath><clipPath id="clip-path-119" transform="translate(-5.73 -2.88)"><path class="cls-1" d="M84.32,16.79,89.72,21A30.36,30.36,0,0,1,96.5,36.58l-5.39-4.22A30.28,30.28,0,0,0,84.32,16.79Z"/></clipPath><clipPath id="clip-path-120" transform="translate(-5.73 -2.88)"><path class="cls-1" d="M84.65,16.39,90,20.61a30.82,30.82,0,0,1,6.9,15.86l-5.39-4.22A30.9,30.9,0,0,0,84.65,16.39Z"/></clipPath><clipPath id="clip-path-121" transform="translate(-5.73 -2.88)"><path class="cls-1" d="M86.84,13.7l5.39,4.22a33.1,33.1,0,0,1,7.64,17.79l-5.39-4.22A33.1,33.1,0,0,0,86.84,13.7Z"/></clipPath><clipPath id="clip-path-122" transform="translate(-5.73 -2.88)"><path class="cls-1" d="M41.67,99.46l5.39,4.22A33,33,0,0,1,26,99.46l-5.39-4.22C26.41,98.79,33.63,100.36,41.67,99.46Z"/></clipPath><clipPath id="clip-path-123" transform="translate(-5.73 -2.88)"><path class="cls-1" d="M87.47,12.92l5.39,4.22a33.65,33.65,0,0,1,7.87,18.35l-5.39-4.22A33.8,33.8,0,0,0,87.47,12.92Z"/></clipPath><clipPath id="clip-path-124" transform="translate(-5.73 -2.88)"><path class="cls-1" d="M93.17,45.92a44.83,44.83,0,0,1-.54,4.75L92,50.18l-.67-.53-.69-.54-.71-.55-.7-.55-.7-.55-.66-.52-.63-.49a44.83,44.83,0,0,0,.54-4.75Z"/></clipPath><clipPath id="clip-path-125" transform="translate(-5.73 -2.88)"><path class="cls-1" d="M54.35,96.18l5.39,4.22a49.54,49.54,0,0,1-6.37,2.12,43.42,43.42,0,0,1-6.31,1.16l-5.39-4.22A43.92,43.92,0,0,0,48,98.3,49.54,49.54,0,0,0,54.35,96.18Z"/></clipPath><clipPath id="clip-path-126" transform="translate(-5.73 -2.88)"><path class="cls-1" d="M85.93,68.65a60.72,60.72,0,0,1-9.2,12l-.63-.5-.67-.52-.69-.54L74,78.5l-.7-.55-.7-.54L72,76.89l-.63-.5a60.75,60.75,0,0,0,9.2-12,53.27,53.27,0,0,0,6.7-18l5.39,4.22A53.27,53.27,0,0,1,85.93,68.65Z"/></clipPath><clipPath id="clip-path-127" transform="translate(-5.73 -2.88)"><path class="cls-1" d="M95.34,31.27l5.39,4.22A45.59,45.59,0,0,1,101,43.9c-.09,1.58-.26,3.15-.5,4.74L95.1,44.42c.24-1.59.4-3.16.49-4.74A46.51,46.51,0,0,0,95.34,31.27Z"/></clipPath><clipPath id="clip-path-128" transform="translate(-5.73 -2.88)"><path class="cls-1" d="M88.08,46.23l5.4,4.22a54.25,54.25,0,0,1-7,18.67L81.11,64.9A54,54,0,0,0,88.08,46.23Z"/></clipPath><clipPath id="clip-path-129" transform="translate(-5.73 -2.88)"><path class="cls-1" d="M71.9,76.87l5.39,4.22A54.71,54.71,0,0,1,60.17,93l-5.39-4.22A54.71,54.71,0,0,0,71.9,76.87Z"/></clipPath><clipPath id="clip-path-130" transform="translate(-5.73 -2.88)"><path class="cls-1" d="M73.77,78.43l5.39,4.23A58.64,58.64,0,0,1,60,96l-5.39-4.22A58.52,58.52,0,0,0,73.77,78.43Z"/></clipPath><clipPath id="clip-path-131" transform="translate(-5.73 -2.88)"><path class="cls-1" d="M90.94,45.49l5.39,4.22a58.61,58.61,0,0,1-7.92,21L83,66.51A58.61,58.61,0,0,0,90.94,45.49Z"/></clipPath><clipPath id="clip-path-132" transform="translate(-5.73 -2.88)"><path class="cls-1" d="M91.36,45.38l5.39,4.22A59.17,59.17,0,0,1,88.7,71l-5.39-4.22A59.17,59.17,0,0,0,91.36,45.38Z"/></clipPath><clipPath id="clip-path-133" transform="translate(-5.73 -2.88)"><path class="cls-1" d="M94.26,44.63l5.39,4.22a63.57,63.57,0,0,1-9,23.76l-5.39-4.22A63.57,63.57,0,0,0,94.26,44.63Z"/></clipPath><clipPath id="clip-path-134" transform="translate(-5.73 -2.88)"><path class="cls-1" d="M74.05,78.67l5.39,4.22A59.18,59.18,0,0,1,60,96.41l-5.39-4.22A59.29,59.29,0,0,0,74.05,78.67Z"/></clipPath><clipPath id="clip-path-135" transform="translate(-5.73 -2.88)"><path class="cls-1" d="M76,80.31l5.39,4.22a63.74,63.74,0,0,1-21.61,15L54.4,95.3A63.74,63.74,0,0,0,76,80.31Z"/></clipPath><clipPath id="clip-path-136" transform="translate(-5.73 -2.88)"><path class="cls-1" d="M95.1,44.42l5.39,4.22a64.47,64.47,0,0,1-9.27,24.44l-5.39-4.22A64.47,64.47,0,0,0,95.1,44.42Z"/></clipPath><clipPath id="clip-path-137" transform="translate(-5.73 -2.88)"><path class="cls-1" d="M76.57,80.79,82,85A64.6,64.6,0,0,1,59.74,100.4l-5.39-4.22A64.74,64.74,0,0,0,76.57,80.79Z"/></clipPath><clipPath id="clip-path-138" transform="translate(-5.73 -2.88)"><path class="cls-1" d="M85.83,68.86l5.39,4.22A73.84,73.84,0,0,1,82,85l-5.39-4.22A74.41,74.41,0,0,0,85.83,68.86Z"/></clipPath></defs><g id="Layer_2" data-name="Layer 2"><g id="Layer_2-2" data-name="Layer 2"><g class="cls-2"><polygon class="cls-3" points="11.6 28.18 16.99 32.4 17.26 32.62 11.87 28.4 11.6 28.18"/><polygon class="cls-3" points="11.87 28.4 17.26 32.62 17.55 32.87 12.16 28.65 11.87 28.4"/><g class="cls-2"><g class="cls-4"><g class="cls-2"><path class="cls-5" d="M17.89,31.53l5.39,4.22a65.68,65.68,0,0,0-10,22.34L7.93,53.87a65.49,65.49,0,0,1,10-22.34" transform="translate(-5.73 -2.88)"/></g></g></g><polygon class="cls-6" points="12.16 28.65 17.55 32.87 19.57 34.56 14.18 30.34 12.16 28.65"/><g class="cls-2"><g class="cls-7"><g class="cls-2"><path class="cls-8" d="M19.91,33.22l5.39,4.22a61.9,61.9,0,0,0-8.9,19.85L11,53.07a61.69,61.69,0,0,1,8.9-19.85" transform="translate(-5.73 -2.88)"/></g></g></g><polygon class="cls-3" points="14.18 30.34 19.57 34.56 19.85 34.8 14.45 30.57 14.18 30.34"/><g class="cls-2"><g class="cls-9"><g class="cls-2"><path class="cls-8" d="M19.91,33.22l5.39,4.22a61.9,61.9,0,0,0-8.9,19.85L11,53.07a61.69,61.69,0,0,1,8.9-19.85" transform="translate(-5.73 -2.88)"/></g></g></g><polygon class="cls-10" points="1.76 51.1 7.15 55.32 6.73 55.43 1.34 51.21 1.76 51.1"/><polygon class="cls-10" points="2.2 50.99 7.59 55.21 7.15 55.32 1.76 51.1 2.2 50.99"/><path class="cls-11" d="M17.33,31.06l.27.23.29.24a65.49,65.49,0,0,0-10,22.34L7.49,54l-.42.11A67,67,0,0,1,17.33,31.06Z" transform="translate(-5.73 -2.88)"/><g class="cls-2"><g class="cls-12"><g class="cls-2"><path class="cls-8" d="M19.91,33.22l5.39,4.22a61.9,61.9,0,0,0-8.9,19.85L11,53.07a61.69,61.69,0,0,1,8.9-19.85" transform="translate(-5.73 -2.88)"/></g></g></g><g class="cls-2"><g class="cls-13"><g class="cls-2"><path class="cls-8" d="M19.91,33.22l5.39,4.22a61.9,61.9,0,0,0-8.9,19.85L11,53.07a61.69,61.69,0,0,1,8.9-19.85" transform="translate(-5.73 -2.88)"/></g></g></g><g class="cls-2"><g class="cls-14"><g class="cls-2"><path class="cls-5" d="M20.18,33.46l5.4,4.22a61.18,61.18,0,0,0-8.75,19.5L11.44,53a61.15,61.15,0,0,1,8.74-19.5" transform="translate(-5.73 -2.88)"/></g></g></g><g class="cls-2"><g class="cls-15"><g class="cls-2"><path class="cls-8" d="M22,35l5.39,4.22a56.8,56.8,0,0,0-7.81,17.28l-5.39-4.22A56.8,56.8,0,0,1,22,35" transform="translate(-5.73 -2.88)"/></g></g></g><g class="cls-2"><g class="cls-16"><g class="cls-2"><path class="cls-8" d="M22,35l5.39,4.22a56.8,56.8,0,0,0-7.81,17.28l-5.39-4.22A56.8,56.8,0,0,1,22,35" transform="translate(-5.73 -2.88)"/></g></g></g><g class="cls-2"><g class="cls-17"><g class="cls-2"><path class="cls-8" d="M22,35l5.39,4.22a56.8,56.8,0,0,0-7.81,17.28l-5.39-4.22A56.8,56.8,0,0,1,22,35" transform="translate(-5.73 -2.88)"/></g></g></g><g class="cls-2"><g class="cls-18"><g class="cls-2"><path class="cls-8" d="M22,35l5.39,4.22a56.8,56.8,0,0,0-7.81,17.28l-5.39-4.22A56.8,56.8,0,0,1,22,35" transform="translate(-5.73 -2.88)"/></g></g></g><path class="cls-11" d="M27.08,19.57l.27.23.3.24,2,1.71L30,22l1.83,1.53.27.23.3.25.59.49A60.87,60.87,0,0,0,22.89,35.73l-.64-.54L22,35l-1.81-1.51-.27-.24-2-1.69-.29-.24-.27-.23A72.45,72.45,0,0,1,27.08,19.57Z" transform="translate(-5.73 -2.88)"/><g class="cls-2"><g class="cls-19"><g class="cls-2"><path class="cls-5" d="M33,24.49l5.39,4.22A60.87,60.87,0,0,0,28.28,40l-5.39-4.22A60.87,60.87,0,0,1,33,24.49" transform="translate(-5.73 -2.88)"/></g></g></g><g class="cls-2"><g class="cls-20"><g class="cls-2"><path class="cls-5" d="M47,7.3l5.39,4.22A62.45,62.45,0,0,0,33,24.26L27.64,20A62.49,62.49,0,0,1,47,7.3" transform="translate(-5.73 -2.88)"/></g></g></g><g class="cls-2"><g class="cls-21"><g class="cls-2"><path class="cls-8" d="M46.82,10.43l5.39,4.22A58.24,58.24,0,0,0,35.07,26l-5.39-4.22A58.11,58.11,0,0,1,46.82,10.43" transform="translate(-5.73 -2.88)"/></g></g></g><polygon class="cls-6" points="5.28 50.19 10.67 54.41 7.59 55.21 2.2 50.99 5.28 50.19"/><path class="cls-22" d="M19.91,33.22A61.69,61.69,0,0,0,11,53.07l-3.08.8a65.49,65.49,0,0,1,10-22.34Z" transform="translate(-5.73 -2.88)"/><polygon class="cls-23" points="41.32 3.53 46.71 7.75 46.66 8.63 41.27 4.42 41.32 3.53"/><path class="cls-11" d="M27.35,19.8l-.27-.24a63.38,63.38,0,0,1,20-13.15l0,.89A62.49,62.49,0,0,0,27.64,20Z" transform="translate(-5.73 -2.88)"/><path class="cls-22" d="M14.18,52.25,11.44,53a61.15,61.15,0,0,1,8.74-19.5L22,35A56.8,56.8,0,0,0,14.18,52.25Z" transform="translate(-5.73 -2.88)"/><path class="cls-11" d="M11,53.07a61.69,61.69,0,0,1,8.9-19.85l.27.24A61.15,61.15,0,0,0,11.44,53Z" transform="translate(-5.73 -2.88)"/><polygon class="cls-10" points="5.71 50.08 11.1 54.3 10.67 54.41 5.28 50.19 5.71 50.08"/><g class="cls-2"><g class="cls-24"><g class="cls-2"><path class="cls-8" d="M46.82,10.43l5.39,4.22A58.24,58.24,0,0,0,35.07,26l-5.39-4.22A58.11,58.11,0,0,1,46.82,10.43" transform="translate(-5.73 -2.88)"/></g></g></g><g class="cls-2"><g class="cls-25"><g class="cls-2"><path class="cls-8" d="M46.82,10.43l5.39,4.22A58.24,58.24,0,0,0,35.07,26l-5.39-4.22A58.11,58.11,0,0,1,46.82,10.43" transform="translate(-5.73 -2.88)"/></g></g></g><path class="cls-11" d="M30,22l-.28-.24A58.11,58.11,0,0,1,46.82,10.43l0,.46A57.34,57.34,0,0,0,30,22Z" transform="translate(-5.73 -2.88)"/><path class="cls-22" d="M46.82,10.43A58.11,58.11,0,0,0,29.68,21.75l-2-1.71A62.49,62.49,0,0,1,47,7.3Z" transform="translate(-5.73 -2.88)"/><polygon class="cls-8" points="41.27 4.42 46.66 8.63 46.48 11.76 41.09 7.54 41.27 4.42"/><g class="cls-2"><g class="cls-26"><g class="cls-2"><path class="cls-8" d="M22,35l5.39,4.22a56.8,56.8,0,0,0-7.81,17.28l-5.39-4.22A56.8,56.8,0,0,1,22,35" transform="translate(-5.73 -2.88)"/></g></g></g><g class="cls-2"><g class="cls-27"><g class="cls-2"><path class="cls-5" d="M22.56,35.45,28,39.67a55.74,55.74,0,0,0-7.14,15.22l-5.39-4.22a55.45,55.45,0,0,1,7.14-15.22" transform="translate(-5.73 -2.88)"/></g></g></g><g class="cls-2"><g class="cls-28"><g class="cls-2"><path class="cls-5" d="M22.89,35.73,28.28,40a58.55,58.55,0,0,0-7.47,14.94l-5.39-4.22a58.55,58.55,0,0,1,7.47-14.94" transform="translate(-5.73 -2.88)"/></g></g></g><path class="cls-11" d="M22.56,35.45l.33.28a58.55,58.55,0,0,0-7.47,14.94A55.45,55.45,0,0,1,22.56,35.45Z" transform="translate(-5.73 -2.88)"/><polygon class="cls-6" points="8.45 49.37 13.84 53.59 11.1 54.3 5.71 50.08 8.45 49.37"/><polygon class="cls-23" points="41.09 7.54 46.48 11.76 46.45 12.22 41.06 8 41.09 7.54"/><g class="cls-2"><g class="cls-29"><g class="cls-2"><path class="cls-5" d="M46.79,10.89l5.39,4.22a57.34,57.34,0,0,0-16.83,11.1L30,22a57.34,57.34,0,0,1,16.83-11.1" transform="translate(-5.73 -2.88)"/></g></g></g><polygon class="cls-10" points="8.88 49.26 14.27 53.48 13.84 53.59 8.45 49.37 8.88 49.26"/><polygon class="cls-10" points="9.27 49.16 14.66 53.38 14.27 53.48 8.88 49.26 9.27 49.16"/><polygon class="cls-10" points="9.31 49.15 14.7 53.37 14.66 53.38 9.27 49.16 9.31 49.15"/><g class="cls-2"><g class="cls-30"><g class="cls-2"><path class="cls-5" d="M15.42,50.67l5.39,4.22c-.14.46-.26.92-.38,1.36L15,52c.12-.44.24-.9.38-1.36" transform="translate(-5.73 -2.88)"/></g></g></g><path class="cls-11" d="M22,35l.26.22.31.26a55.45,55.45,0,0,0-7.14,15.22c-.14.46-.26.92-.38,1.36h0l-.38.1-.43.11A56.8,56.8,0,0,1,22,35Z" transform="translate(-5.73 -2.88)"/><g class="cls-2"><g class="cls-31"><g class="cls-2"><path class="cls-8" d="M46.62,13.79,52,18a53.32,53.32,0,0,0-14.84,9.73l-5.39-4.22a53.41,53.41,0,0,1,14.83-9.73" transform="translate(-5.73 -2.88)"/></g></g></g><path class="cls-22" d="M46.62,13.79a53.41,53.41,0,0,0-14.83,9.73L30,22a57.34,57.34,0,0,1,16.83-11.1Z" transform="translate(-5.73 -2.88)"/><polygon class="cls-8" points="41.06 8 46.45 12.22 46.28 15.13 40.89 10.91 41.06 8"/><g class="cls-2"><g class="cls-32"><g class="cls-2"><path class="cls-5" d="M46.57,14.68,52,18.9a52.32,52.32,0,0,0-14.21,9.32L32.36,24a52.17,52.17,0,0,1,14.21-9.32" transform="translate(-5.73 -2.88)"/></g></g></g><polygon class="cls-23" points="40.89 10.91 46.28 15.13 46.23 16.02 40.84 11.8 40.89 10.91"/><path class="cls-11" d="M32.06,23.75l-.27-.23a53.41,53.41,0,0,1,14.83-9.73l0,.89A52.17,52.17,0,0,0,32.36,24Z" transform="translate(-5.73 -2.88)"/><g class="cls-2"><g class="cls-33"><g class="cls-2"><path class="cls-5" d="M46.5,15.84l5.4,4.22a52,52,0,0,0-13.56,8.65L33,24.49A52.1,52.1,0,0,1,46.5,15.84" transform="translate(-5.73 -2.88)"/></g></g></g><polygon class="cls-23" points="40.84 11.8 46.23 16.02 46.17 17.17 40.77 12.95 40.84 11.8"/><path class="cls-11" d="M46.57,14.68l-.07,1.16A52.1,52.1,0,0,0,33,24.49L32.36,24A52.17,52.17,0,0,1,46.57,14.68Z" transform="translate(-5.73 -2.88)"/><polygon class="cls-10" points="0.88 64.42 6.27 68.64 5.43 68.85 0.04 64.63 0.88 64.42"/><g class="cls-2"><g class="cls-34"><g class="cls-2"><path class="cls-5" d="M15,52l5.39,4.22A45.69,45.69,0,0,0,19,65.1l-5.39-4.22A45.69,45.69,0,0,1,15,52" transform="translate(-5.73 -2.88)"/></g></g></g><polygon class="cls-10" points="3.93 63.62 9.33 67.84 6.27 68.64 0.88 64.42 3.93 63.62"/><polygon class="cls-10" points="4.35 63.52 9.74 67.74 9.33 67.84 3.93 63.62 4.35 63.52"/><polygon class="cls-23" points="54 0.25 59.39 4.47 59.34 5.36 53.95 1.14 54 0.25"/><g class="cls-2"><g class="cls-35"><g class="cls-2"><path class="cls-8" d="M38.14,32.33l5.39,4.22c.14,1,.26,1.82.39,2.67.1.66.15,1,.31,1.14l-5.39-4.22c-.16-.13-.22-.48-.31-1.14-.13-.85-.25-1.7-.39-2.67" transform="translate(-5.73 -2.88)"/></g></g></g><polygon class="cls-10" points="7.04 62.82 12.44 67.04 9.74 67.74 4.35 63.52 7.04 62.82"/><g class="cls-2"><g class="cls-36"><g class="cls-2"><path class="cls-8" d="M9.66,66.51l5.4,4.22a32.86,32.86,0,0,0,5.72,17.7l-5.39-4.22a33,33,0,0,1-5.73-17.7" transform="translate(-5.73 -2.88)"/></g></g></g><polygon class="cls-10" points="7.89 62.6 13.28 66.82 12.44 67.04 7.04 62.82 7.89 62.6"/><path class="cls-11" d="M15,52a45.69,45.69,0,0,0-1.41,8.85,41.56,41.56,0,0,0,0,4.6l-.85.22-2.69.7-.42.11-3,.79-.84.21c-.06-1.5,0-3,0-4.61a54.2,54.2,0,0,1,1.26-8.81L7.49,54Z" transform="translate(-5.73 -2.88)"/><g class="cls-2"><g class="cls-37"><g class="cls-2"><path class="cls-5" d="M13.63,60.88,19,65.1a41.56,41.56,0,0,0,0,4.6l-5.39-4.22a41.56,41.56,0,0,1,0-4.6" transform="translate(-5.73 -2.88)"/></g></g></g><polygon class="cls-6" points="40.32 21.35 45.71 25.57 45.55 25.61 40.16 21.39 40.32 21.35"/><polygon class="cls-23" points="53.77 4.24 59.16 8.46 59.13 8.92 53.74 4.7 53.77 4.24"/><g class="cls-2"><g class="cls-38"><g class="cls-2"><path class="cls-8" d="M38.14,32.33l5.39,4.22c.14,1,.26,1.82.39,2.67.1.66.15,1,.31,1.14l-5.39-4.22c-.16-.13-.22-.48-.31-1.14-.13-.85-.25-1.7-.39-2.67" transform="translate(-5.73 -2.88)"/></g></g></g><g class="cls-2"><g class="cls-39"><g class="cls-2"><path class="cls-8" d="M38.14,32.33l5.39,4.22c.14,1,.26,1.82.39,2.67.1.66.15,1,.31,1.14l-5.39-4.22c-.16-.13-.22-.48-.31-1.14-.13-.85-.25-1.7-.39-2.67" transform="translate(-5.73 -2.88)"/></g></g></g><g class="cls-2"><g class="cls-40"><g class="cls-2"><path class="cls-41" d="M38.14,32.33l5.39,4.22c.14,1,.26,1.82.39,2.67.1.66.15,1,.31,1.14l-5.39-4.22c-.16-.13-.22-.48-.31-1.14-.13-.85-.25-1.7-.39-2.67" transform="translate(-5.73 -2.88)"/></g></g></g><g class="cls-2"><g class="cls-42"><g class="cls-2"><path class="cls-8" d="M38.14,32.33l5.39,4.22c.14,1,.26,1.82.39,2.67.1.66.15,1,.31,1.14l-5.39-4.22c-.16-.13-.22-.48-.31-1.14-.13-.85-.25-1.7-.39-2.67" transform="translate(-5.73 -2.88)"/></g></g></g><g class="cls-2"><g class="cls-43"><g class="cls-2"><path class="cls-41" d="M38.14,32.33l5.39,4.22c.14,1,.26,1.82.39,2.67.1.66.15,1,.31,1.14l-5.39-4.22c-.16-.13-.22-.48-.31-1.14-.13-.85-.25-1.7-.39-2.67" transform="translate(-5.73 -2.88)"/></g></g></g><g class="cls-2"><g class="cls-44"><g class="cls-2"><path class="cls-41" d="M55.12,29l5.39,4.22c0,.53-.34.68-1.35,1.17a20.53,20.53,0,0,1-3.55,1.39,60.17,60.17,0,0,0-9.94,4.11,7.08,7.08,0,0,1-1.08.47.37.37,0,0,1-.36,0l-5.39-4.22a.37.37,0,0,0,.36,0,7.08,7.08,0,0,0,1.08-.47,60.43,60.43,0,0,1,9.93-4.11,20.62,20.62,0,0,0,3.56-1.39c1-.49,1.32-.65,1.35-1.17" transform="translate(-5.73 -2.88)"/></g></g></g><g class="cls-2"><g class="cls-45"><g class="cls-2"><path class="cls-8" d="M41.78,32.63l5.4,4.22c-1.18-.12-2.37-.2-3.65-.3l-5.39-4.22c1.28.1,2.47.18,3.64.3" transform="translate(-5.73 -2.88)"/></g></g></g><g class="cls-2"><g class="cls-46"><g class="cls-2"><path class="cls-41" d="M55.12,29l5.39,4.22c0,.53-.34.68-1.35,1.17a20.53,20.53,0,0,1-3.55,1.39,60.17,60.17,0,0,0-9.94,4.11,7.08,7.08,0,0,1-1.08.47.37.37,0,0,1-.36,0l-5.39-4.22a.37.37,0,0,0,.36,0,7.08,7.08,0,0,0,1.08-.47,60.43,60.43,0,0,1,9.93-4.11,20.62,20.62,0,0,0,3.56-1.39c1-.49,1.32-.65,1.35-1.17" transform="translate(-5.73 -2.88)"/></g></g></g><g class="cls-2"><g class="cls-47"><g class="cls-2"><path class="cls-8" d="M45.89,24.27l5.39,4.22c-1.14,2.65-2.29,5.29-3.43,7.94-.12.26-.23.38-.38.41a.69.69,0,0,1-.29,0l-5.4-4.22a.73.73,0,0,0,.3,0c.15,0,.26-.15.38-.41,1.13-2.65,2.29-5.29,3.43-7.94" transform="translate(-5.73 -2.88)"/></g></g></g><g class="cls-2"><g class="cls-48"><g class="cls-2"><path class="cls-41" d="M55.12,29l5.39,4.22c0,.53-.34.68-1.35,1.17a20.53,20.53,0,0,1-3.55,1.39,60.17,60.17,0,0,0-9.94,4.11,7.08,7.08,0,0,1-1.08.47.37.37,0,0,1-.36,0l-5.39-4.22a.37.37,0,0,0,.36,0,7.08,7.08,0,0,0,1.08-.47,60.43,60.43,0,0,1,9.93-4.11,20.62,20.62,0,0,0,3.56-1.39c1-.49,1.32-.65,1.35-1.17" transform="translate(-5.73 -2.88)"/></g></g></g><g class="cls-2"><g class="cls-49"><g class="cls-2"><path class="cls-5" d="M46.05,24.23l5.39,4.22C53,30,54.65,31.29,56.25,32.72l0,0-5.39-4.22,0,0c-1.6-1.43-3.3-2.73-4.81-4.27" transform="translate(-5.73 -2.88)"/></g></g></g><g class="cls-2"><g class="cls-50"><g class="cls-2"><path class="cls-8" d="M54.56,24.82,60,29c-1.11,1.21-2.09,2.3-3.08,3.39-.12.13-.23.33-.38.37a.24.24,0,0,1-.22-.06l-5.39-4.22a.23.23,0,0,0,.21.06c.15,0,.27-.24.39-.37,1-1.09,2-2.18,3.08-3.39" transform="translate(-5.73 -2.88)"/></g></g></g><g class="cls-2"><g class="cls-51"><g class="cls-2"><path class="cls-41" d="M55.12,29l5.39,4.22c0,.53-.34.68-1.35,1.17a20.53,20.53,0,0,1-3.55,1.39,60.17,60.17,0,0,0-9.94,4.11,7.08,7.08,0,0,1-1.08.47.37.37,0,0,1-.36,0l-5.39-4.22a.37.37,0,0,0,.36,0,7.08,7.08,0,0,0,1.08-.47,60.43,60.43,0,0,1,9.93-4.11,20.62,20.62,0,0,0,3.56-1.39c1-.49,1.32-.65,1.35-1.17" transform="translate(-5.73 -2.88)"/></g></g></g><g class="cls-2"><g class="cls-52"><g class="cls-2"><path class="cls-41" d="M55.12,29l5.39,4.22c0,.53-.34.68-1.35,1.17a20.53,20.53,0,0,1-3.55,1.39,60.17,60.17,0,0,0-9.94,4.11,7.08,7.08,0,0,1-1.08.47.37.37,0,0,1-.36,0l-5.39-4.22a.37.37,0,0,0,.36,0,7.08,7.08,0,0,0,1.08-.47,60.43,60.43,0,0,1,9.93-4.11,20.62,20.62,0,0,0,3.56-1.39c1-.49,1.32-.65,1.35-1.17" transform="translate(-5.73 -2.88)"/></g></g></g><g class="cls-2"><g class="cls-53"><g class="cls-2"><path class="cls-5" d="M55,28l5.39,4.22a5.87,5.87,0,0,1,.1,1c0,.53-.34.68-1.35,1.17a20.53,20.53,0,0,1-3.55,1.39,60.17,60.17,0,0,0-9.94,4.11,7.08,7.08,0,0,1-1.08.47.37.37,0,0,1-.36,0l-5.39-4.22a.37.37,0,0,0,.36,0,7.08,7.08,0,0,0,1.08-.47,60.43,60.43,0,0,1,9.93-4.11,20.62,20.62,0,0,0,3.56-1.39c1-.49,1.32-.65,1.35-1.17a5.87,5.87,0,0,0-.1-1" transform="translate(-5.73 -2.88)"/></g></g></g><g class="cls-2"><g class="cls-54"><g class="cls-2"><path class="cls-41" d="M55.12,29l5.39,4.22c0,.53-.34.68-1.35,1.17a20.53,20.53,0,0,1-3.55,1.39,60.17,60.17,0,0,0-9.94,4.11,7.08,7.08,0,0,1-1.08.47.37.37,0,0,1-.36,0l-5.39-4.22a.37.37,0,0,0,.36,0,7.08,7.08,0,0,0,1.08-.47,60.43,60.43,0,0,1,9.93-4.11,20.62,20.62,0,0,0,3.56-1.39c1-.49,1.32-.65,1.35-1.17" transform="translate(-5.73 -2.88)"/></g></g></g><polygon class="cls-23" points="53.74 4.7 59.13 8.92 58.97 11.85 53.57 7.63 53.74 4.7"/><polygon class="cls-23" points="53.57 7.63 58.97 11.85 58.91 12.74 53.52 8.52 53.57 7.63"/><path class="cls-11" d="M53.42,4.3a43.48,43.48,0,0,1,6.31-1.17l0,.89-.18,3.1,0,.46-.17,2.93,0,.89-.06,1.16a36.37,36.37,0,0,0-6.31,1.07,42.26,42.26,0,0,0-6.38,2.21l.55-9.43A48.49,48.49,0,0,1,53.42,4.3Z" transform="translate(-5.73 -2.88)"/><g class="cls-2"><g class="cls-55"><g class="cls-2"><path class="cls-5" d="M59.19,12.56l5.39,4.22a36.53,36.53,0,0,0-6.31,1.07,42.53,42.53,0,0,0-6.37,2.21l-5.4-4.22a42.26,42.26,0,0,1,6.38-2.21,36.37,36.37,0,0,1,6.31-1.07" transform="translate(-5.73 -2.88)"/></g></g></g><polygon class="cls-23" points="53.52 8.52 58.91 12.74 58.85 13.89 53.45 9.68 53.52 8.52"/><g class="cls-2"><g class="cls-56"><g class="cls-2"><path class="cls-8" d="M9.66,66.51l5.4,4.22a32.86,32.86,0,0,0,5.72,17.7l-5.39-4.22a33,33,0,0,1-5.73-17.7" transform="translate(-5.73 -2.88)"/></g></g></g><g class="cls-2"><g class="cls-57"><g class="cls-2"><path class="cls-5" d="M6.61,67.3,12,71.52a35,35,0,0,0,6.49,19.74L13.1,87A35,35,0,0,1,6.61,67.3" transform="translate(-5.73 -2.88)"/></g></g></g><g class="cls-2"><g class="cls-58"><g class="cls-2"><path class="cls-8" d="M9.66,66.51l5.4,4.22a32.86,32.86,0,0,0,5.72,17.7l-5.39-4.22a33,33,0,0,1-5.73-17.7" transform="translate(-5.73 -2.88)"/></g></g></g><g class="cls-2"><g class="cls-59"><g class="cls-2"><path class="cls-8" d="M9.66,66.51l5.4,4.22a32.86,32.86,0,0,0,5.72,17.7l-5.39-4.22a33,33,0,0,1-5.73-17.7" transform="translate(-5.73 -2.88)"/></g></g></g><g class="cls-2"><g class="cls-60"><g class="cls-2"><path class="cls-5" d="M10.08,66.4l5.39,4.22A32.69,32.69,0,0,0,21.1,88.05l-5.39-4.22A32.6,32.6,0,0,1,10.08,66.4" transform="translate(-5.73 -2.88)"/></g></g></g><g class="cls-2"><g class="cls-61"><g class="cls-2"><path class="cls-8" d="M12.77,65.7l5.4,4.22a30.35,30.35,0,0,0,5,15.59l-5.39-4.22a30.35,30.35,0,0,1-5-15.59" transform="translate(-5.73 -2.88)"/></g></g></g><g class="cls-2"><g class="cls-62"><g class="cls-2"><path class="cls-8" d="M12.77,65.7l5.4,4.22a30.35,30.35,0,0,0,5,15.59l-5.39-4.22a30.35,30.35,0,0,1-5-15.59" transform="translate(-5.73 -2.88)"/></g></g></g><g class="cls-2"><g class="cls-63"><g class="cls-2"><path class="cls-8" d="M12.77,65.7l5.4,4.22a30.35,30.35,0,0,0,5,15.59l-5.39-4.22a30.35,30.35,0,0,1-5-15.59" transform="translate(-5.73 -2.88)"/></g></g></g><g class="cls-2"><g class="cls-64"><g class="cls-2"><path class="cls-8" d="M12.77,65.7l5.4,4.22a30.35,30.35,0,0,0,5,15.59l-5.39-4.22a30.35,30.35,0,0,1-5-15.59" transform="translate(-5.73 -2.88)"/></g></g></g><g class="cls-2"><g class="cls-65"><g class="cls-2"><path class="cls-5" d="M78.12,7l5.4,4.22a33.12,33.12,0,0,0-18.45-3L59.68,4A33.07,33.07,0,0,1,78.12,7" transform="translate(-5.73 -2.88)"/></g></g></g><g class="cls-2"><g class="cls-66"><g class="cls-2"><path class="cls-8" d="M75.89,9.73,81.29,14a31,31,0,0,0-16.4-2.61L59.5,7.12A30.92,30.92,0,0,1,75.89,9.73" transform="translate(-5.73 -2.88)"/></g></g></g><g class="cls-2"><g class="cls-67"><g class="cls-2"><path class="cls-5" d="M54.56,24.82,60,29c.15,1,.3,1.94.44,2.87L55,27.69c-.15-.93-.29-1.85-.44-2.87" transform="translate(-5.73 -2.88)"/></g></g></g><g class="cls-2"><g class="cls-68"><g class="cls-2"><path class="cls-5" d="M55,27.69l5.39,4.22c0,.11,0,.22,0,.32L55,28c0-.1,0-.21,0-.32" transform="translate(-5.73 -2.88)"/></g></g></g><g class="cls-2"><g class="cls-69"><g class="cls-2"><path class="cls-41" d="M55.12,29l5.39,4.22c0,.53-.34.68-1.35,1.17a20.53,20.53,0,0,1-3.55,1.39,60.17,60.17,0,0,0-9.94,4.11,7.08,7.08,0,0,1-1.08.47.37.37,0,0,1-.36,0l-5.39-4.22a.37.37,0,0,0,.36,0,7.08,7.08,0,0,0,1.08-.47,60.43,60.43,0,0,1,9.93-4.11,20.62,20.62,0,0,0,3.56-1.39c1-.49,1.32-.65,1.35-1.17" transform="translate(-5.73 -2.88)"/></g></g></g><g class="cls-2"><g class="cls-70"><g class="cls-2"><path class="cls-41" d="M55.12,29l5.39,4.22c0,.53-.34.68-1.35,1.17a20.53,20.53,0,0,1-3.55,1.39,60.17,60.17,0,0,0-9.94,4.11,7.08,7.08,0,0,1-1.08.47.37.37,0,0,1-.36,0l-5.39-4.22a.37.37,0,0,0,.36,0,7.08,7.08,0,0,0,1.08-.47,60.43,60.43,0,0,1,9.93-4.11,20.62,20.62,0,0,0,3.56-1.39c1-.49,1.32-.65,1.35-1.17" transform="translate(-5.73 -2.88)"/></g></g></g><path class="cls-11" d="M46.05,24.23c1.51,1.54,3.21,2.84,4.81,4.27a.24.24,0,0,0,.23.08c.15,0,.27-.24.39-.37,1-1.09,2-2.18,3.08-3.39.15,1,.29,1.94.44,2.87,0,.11,0,.22,0,.32a5.87,5.87,0,0,1,.1,1c0,.52-.34.68-1.35,1.17a20.62,20.62,0,0,1-3.56,1.39,60.43,60.43,0,0,0-9.93,4.11,7.08,7.08,0,0,1-1.08.47c-.48.13-.53-.18-.67-1.17s-.25-1.7-.39-2.67c1.28.1,2.47.18,3.64.3a.73.73,0,0,0,.3,0c.15,0,.26-.15.38-.41,1.13-2.65,2.29-5.29,3.43-7.94Z" transform="translate(-5.73 -2.88)"/><g class="cls-2"><g class="cls-71"><g class="cls-2"><path class="cls-8" d="M75.89,9.73,81.29,14a31,31,0,0,0-16.4-2.61L59.5,7.12A30.92,30.92,0,0,1,75.89,9.73" transform="translate(-5.73 -2.88)"/></g></g></g><g class="cls-2"><g class="cls-72"><g class="cls-2"><path class="cls-8" d="M57.63,29.37,63,33.59a15,15,0,0,1-4.57,2.82c-2.76,1-5.53,1.91-8.28,3.11a41.42,41.42,0,0,0-7.39,4,1.6,1.6,0,0,0-.87,1.38l-5.39-4.22a1.61,1.61,0,0,1,.86-1.38,41.84,41.84,0,0,1,7.4-4c2.75-1.2,5.51-2.12,8.28-3.11a15,15,0,0,0,4.57-2.82" transform="translate(-5.73 -2.88)"/></g></g></g><g class="cls-2"><g class="cls-73"><g class="cls-2"><path class="cls-8" d="M41.24,55.3l5.39,4.22a.42.42,0,0,0-.39,0,5.72,5.72,0,0,0-.87.35,16.16,16.16,0,0,0-7.12,5.9,1.35,1.35,0,0,0-.23.49.2.2,0,0,0,.09.2l-5.39-4.22a.2.2,0,0,1-.09-.2,1.35,1.35,0,0,1,.23-.49A16.16,16.16,0,0,1,40,55.62a5.72,5.72,0,0,1,.87-.35.42.42,0,0,1,.39,0" transform="translate(-5.73 -2.88)"/></g></g></g><g class="cls-2"><g class="cls-74"><g class="cls-2"><path class="cls-8" d="M41.24,55.3l5.39,4.22a.42.42,0,0,0-.39,0,5.72,5.72,0,0,0-.87.35,16.16,16.16,0,0,0-7.12,5.9,1.35,1.35,0,0,0-.23.49.2.2,0,0,0,.09.2l-5.39-4.22a.2.2,0,0,1-.09-.2,1.35,1.35,0,0,1,.23-.49A16.16,16.16,0,0,1,40,55.62a5.72,5.72,0,0,1,.87-.35.42.42,0,0,1,.39,0" transform="translate(-5.73 -2.88)"/></g></g></g><polygon class="cls-23" points="7.03 84.58 12.42 88.8 12.11 89.18 6.72 84.96 7.03 84.58"/><path class="cls-11" d="M5.77,67.51l.84-.21A35,35,0,0,0,13.1,87l-.34.42-.31.39C8.47,82.51,6.07,75.59,5.77,67.51Z" transform="translate(-5.73 -2.88)"/><polygon class="cls-23" points="7.37 84.16 12.76 88.38 12.42 88.8 7.03 84.58 7.37 84.16"/><path class="cls-11" d="M9.66,66.51l.42-.11a32.6,32.6,0,0,0,5.63,17.43l-.32.38A33,33,0,0,1,9.66,66.51Z" transform="translate(-5.73 -2.88)"/><polygon class="cls-23" points="9.97 80.94 15.37 85.17 15.05 85.55 9.66 81.33 9.97 80.94"/><g class="cls-2"><g class="cls-75"><g class="cls-2"><path class="cls-8" d="M12.77,65.7l5.4,4.22a30.35,30.35,0,0,0,5,15.59l-5.39-4.22a30.35,30.35,0,0,1-5-15.59" transform="translate(-5.73 -2.88)"/></g></g></g><g class="cls-2"><g class="cls-76"><g class="cls-2"><path class="cls-8" d="M41.24,55.3l5.39,4.22a.42.42,0,0,0-.39,0,5.72,5.72,0,0,0-.87.35,16.16,16.16,0,0,0-7.12,5.9,1.35,1.35,0,0,0-.23.49.2.2,0,0,0,.09.2l-5.39-4.22a.2.2,0,0,1-.09-.2,1.35,1.35,0,0,1,.23-.49A16.16,16.16,0,0,1,40,55.62a5.72,5.72,0,0,1,.87-.35.42.42,0,0,1,.39,0" transform="translate(-5.73 -2.88)"/></g></g></g><polygon class="cls-23" points="12.68 77.62 18.07 81.84 17.43 82.63 12.04 78.41 12.68 77.62"/><polygon class="cls-8" points="12.68 77.62 18.07 81.84 12.42 88.8 7.03 84.58 12.68 77.62"/><path class="cls-11" d="M12.77,65.7l.85-.22a29.64,29.64,0,0,0,4.79,15l-.64.79A30.35,30.35,0,0,1,12.77,65.7Z" transform="translate(-5.73 -2.88)"/><g class="cls-2"><g class="cls-77"><g class="cls-2"><path class="cls-5" d="M18.41,80.5l5.39,4.22a24.19,24.19,0,0,0,5.11,5.51L23.51,86a24.15,24.15,0,0,1-5.1-5.51" transform="translate(-5.73 -2.88)"/></g></g></g><g class="cls-2"><g class="cls-78"><g class="cls-2"><path class="cls-5" d="M20.59,95.24,26,99.46a28.28,28.28,0,0,1-2.8-1.92l-5.39-4.22a28.28,28.28,0,0,0,2.8,1.92" transform="translate(-5.73 -2.88)"/></g></g></g><g class="cls-2"><g class="cls-79"><g class="cls-2"><path class="cls-8" d="M87.78,41.7l5.39,4.22a44.83,44.83,0,0,1-.54,4.75,53.27,53.27,0,0,1-6.7,18,60.72,60.72,0,0,1-9.2,12A53.86,53.86,0,0,1,60.22,92.13a41.76,41.76,0,0,1-6.37,2.2,35.9,35.9,0,0,1-6.31,1.07,27,27,0,0,1-15.66-3.2,22.16,22.16,0,0,1-3-2L23.51,86a22.93,22.93,0,0,0,3,2,27,27,0,0,0,15.66,3.2,35.64,35.64,0,0,0,6.3-1.07,40.51,40.51,0,0,0,6.38-2.21A53.52,53.52,0,0,0,71.34,76.39a60.75,60.75,0,0,0,9.2-12,53.27,53.27,0,0,0,6.7-18,44.83,44.83,0,0,0,.54-4.75" transform="translate(-5.73 -2.88)"/></g></g></g><polygon class="cls-23" points="20.76 85.1 26.15 89.32 20.25 96.58 14.86 92.36 20.76 85.1"/><polygon class="cls-8" points="15.49 91.59 20.89 95.81 20.55 96.22 15.16 92 15.49 91.59"/><g class="cls-2"><g class="cls-80"><g class="cls-2"><path class="cls-8" d="M87.78,41.7l5.39,4.22a44.83,44.83,0,0,1-.54,4.75,53.27,53.27,0,0,1-6.7,18,60.72,60.72,0,0,1-9.2,12A53.86,53.86,0,0,1,60.22,92.13a41.76,41.76,0,0,1-6.37,2.2,35.9,35.9,0,0,1-6.31,1.07,27,27,0,0,1-15.66-3.2,22.16,22.16,0,0,1-3-2L23.51,86a22.93,22.93,0,0,0,3,2,27,27,0,0,0,15.66,3.2,35.64,35.64,0,0,0,6.3-1.07,40.51,40.51,0,0,0,6.38-2.21A53.52,53.52,0,0,0,71.34,76.39a60.75,60.75,0,0,0,9.2-12,53.27,53.27,0,0,0,6.7-18,44.83,44.83,0,0,0,.54-4.75" transform="translate(-5.73 -2.88)"/></g></g></g><g class="cls-2"><g class="cls-81"><g class="cls-2"><path class="cls-5" d="M42.09,92.07l5.4,4.22A27.78,27.78,0,0,1,31.24,93l-5.39-4.22a27.75,27.75,0,0,0,16.24,3.3" transform="translate(-5.73 -2.88)"/></g></g></g><g class="cls-2"><g class="cls-82"><g class="cls-2"><path class="cls-8" d="M41.93,95l5.39,4.22A29.75,29.75,0,0,1,29.2,95.5l-5.39-4.22A29.75,29.75,0,0,0,41.93,95" transform="translate(-5.73 -2.88)"/></g></g></g><path class="cls-11" d="M23.49,91.68l.32-.4A29.75,29.75,0,0,0,41.93,95l0,.46A30.27,30.27,0,0,1,23.49,91.68Z" transform="translate(-5.73 -2.88)"/><g class="cls-2"><g class="cls-83"><g class="cls-2"><path class="cls-5" d="M41.9,95.45l5.39,4.22A30.27,30.27,0,0,1,28.88,95.9l-5.39-4.22A30.27,30.27,0,0,0,41.9,95.45" transform="translate(-5.73 -2.88)"/></g></g></g><g class="cls-2"><g class="cls-84"><g class="cls-2"><path class="cls-8" d="M41.72,98.57l5.39,4.22a32.36,32.36,0,0,1-20.5-4.1l-5.39-4.22a32.36,32.36,0,0,0,20.5,4.1" transform="translate(-5.73 -2.88)"/></g></g></g><path class="cls-11" d="M20.89,94.88l.33-.41a32.36,32.36,0,0,0,20.5,4.1l0,.89c-8,.9-15.26-.67-21.08-4.22Z" transform="translate(-5.73 -2.88)"/><path class="cls-22" d="M20.89,94.88l2.6-3.2A30.27,30.27,0,0,0,41.9,95.45l-.18,3.12a32.36,32.36,0,0,1-20.5-4.1Z" transform="translate(-5.73 -2.88)"/><path class="cls-11" d="M18.41,80.5A23.41,23.41,0,0,0,26.49,88l-5.9,7.26a28.8,28.8,0,0,1-8.14-7.39l.31-.39Z" transform="translate(-5.73 -2.88)"/><path class="cls-22" d="M12.77,65.7a30.35,30.35,0,0,0,5,15.59l.64-.79-5.65,7L13.1,87A35,35,0,0,1,6.61,67.3l3.05-.79a33,33,0,0,0,5.73,17.7l.32-.38A32.6,32.6,0,0,1,10.08,66.4Z" transform="translate(-5.73 -2.88)"/><g class="cls-2"><g class="cls-85"><g class="cls-2"><path class="cls-5" d="M13.62,65.48,19,69.7a29.64,29.64,0,0,0,4.79,15L18.41,80.5a29.64,29.64,0,0,1-4.79-15" transform="translate(-5.73 -2.88)"/></g></g></g><g class="cls-2"><g class="cls-86"><g class="cls-2"><path class="cls-87" d="M50.93,40.37l5.39,4.22a.28.28,0,0,0-.25,0l-.14,0a47,47,0,0,0-10.1,5.44,27.39,27.39,0,0,0-4.39,4l-5.39-4.22a27.39,27.39,0,0,1,4.39-4,47,47,0,0,1,10.1-5.44l.14,0a.29.29,0,0,1,.25,0" transform="translate(-5.73 -2.88)"/></g></g></g><g class="cls-2"><g class="cls-88"><g class="cls-2"><path class="cls-87" d="M33.87,62.8,39.26,67a2.69,2.69,0,0,0-.92-.48.7.7,0,0,1-.23-.11l-5.39-4.22a.7.7,0,0,0,.23.11,2.69,2.69,0,0,1,.92.48" transform="translate(-5.73 -2.88)"/></g></g></g><g class="cls-2"><g class="cls-89"><g class="cls-2"><path class="cls-8" d="M75.89,9.73,81.29,14a31,31,0,0,0-16.4-2.61L59.5,7.12A30.92,30.92,0,0,1,75.89,9.73" transform="translate(-5.73 -2.88)"/></g></g></g><g class="cls-2"><g class="cls-90"><g class="cls-2"><path class="cls-5" d="M75.57,10.12,81,14.34a30.57,30.57,0,0,0-16.1-2.54L59.47,7.58a30.49,30.49,0,0,1,16.1,2.54" transform="translate(-5.73 -2.88)"/></g></g></g><g class="cls-2"><g class="cls-91"><g class="cls-2"><path class="cls-8" d="M73.44,12.75,78.83,17A28.35,28.35,0,0,0,64.7,14.73l-5.4-4.22a28.39,28.39,0,0,1,14.14,2.24" transform="translate(-5.73 -2.88)"/></g></g></g><g class="cls-2"><g class="cls-92"><g class="cls-2"><path class="cls-5" d="M72.8,13.54l5.4,4.22a28.15,28.15,0,0,0-13.56-2.14L59.25,11.4A28.09,28.09,0,0,1,72.8,13.54" transform="translate(-5.73 -2.88)"/></g></g></g><g class="cls-2"><g class="cls-93"><g class="cls-2"><path class="cls-5" d="M72.15,14.36l5.39,4.22a28.25,28.25,0,0,0-13-1.8l-5.39-4.22a28.12,28.12,0,0,1,13,1.8" transform="translate(-5.73 -2.88)"/></g></g></g><polygon class="cls-23" points="67.07 10.66 72.47 14.88 71.81 15.69 66.42 11.47 67.07 10.66"/><path class="cls-11" d="M59.25,11.4A28.09,28.09,0,0,1,72.8,13.54l-.65.82a28.12,28.12,0,0,0-13-1.8Z" transform="translate(-5.73 -2.88)"/><polygon class="cls-23" points="67.4 10.25 72.8 14.47 72.47 14.88 67.07 10.66 67.4 10.25"/><path class="cls-22" d="M75.57,10.12l-2.13,2.63A28.39,28.39,0,0,0,59.3,10.51l.17-2.93A30.49,30.49,0,0,1,75.57,10.12Z" transform="translate(-5.73 -2.88)"/><path class="cls-11" d="M73.13,13.13l-.33.41A28.09,28.09,0,0,0,59.25,11.4l0-.89a28.39,28.39,0,0,1,14.14,2.24Z" transform="translate(-5.73 -2.88)"/><polygon class="cls-23" points="67.71 9.87 73.1 14.09 72.8 14.47 67.4 10.25 67.71 9.87"/><polygon class="cls-8" points="69.84 7.24 75.23 11.46 73.1 14.09 67.71 9.87 69.84 7.24"/><polygon class="cls-23" points="70.16 6.84 75.56 11.06 75.23 11.46 69.84 7.24 70.16 6.84"/><path class="cls-11" d="M75.89,9.73l-.32.39a30.49,30.49,0,0,0-16.1-2.54l0-.46A30.92,30.92,0,0,1,75.89,9.73Z" transform="translate(-5.73 -2.88)"/><g class="cls-2"><g class="cls-94"><g class="cls-2"><path class="cls-8" d="M41.24,55.3l5.39,4.22a.42.42,0,0,0-.39,0,5.72,5.72,0,0,0-.87.35,16.16,16.16,0,0,0-7.12,5.9,1.35,1.35,0,0,0-.23.49.2.2,0,0,0,.09.2l-5.39-4.22a.2.2,0,0,1-.09-.2,1.35,1.35,0,0,1,.23-.49A16.16,16.16,0,0,1,40,55.62a5.72,5.72,0,0,1,.87-.35.42.42,0,0,1,.39,0" transform="translate(-5.73 -2.88)"/></g></g></g><g class="cls-2"><g class="cls-95"><g class="cls-2"><path class="cls-8" d="M41.24,55.3l5.39,4.22a.42.42,0,0,0-.39,0,5.72,5.72,0,0,0-.87.35,16.16,16.16,0,0,0-7.12,5.9,1.35,1.35,0,0,0-.23.49.2.2,0,0,0,.09.2l-5.39-4.22a.2.2,0,0,1-.09-.2,1.35,1.35,0,0,1,.23-.49A16.16,16.16,0,0,1,40,55.62a5.72,5.72,0,0,1,.87-.35.42.42,0,0,1,.39,0" transform="translate(-5.73 -2.88)"/></g></g></g><polygon class="cls-8" points="72.39 4.11 77.79 8.33 75.56 11.06 70.16 6.84 72.39 4.11"/><path class="cls-22" d="M78.12,7,75.89,9.73A30.92,30.92,0,0,0,59.5,7.12L59.68,4A33.07,33.07,0,0,1,78.12,7Z" transform="translate(-5.73 -2.88)"/><polygon class="cls-23" points="72.72 3.69 78.11 7.91 77.79 8.33 72.39 4.11 72.72 3.69"/><polygon class="cls-23" points="73.03 3.32 78.42 7.54 78.11 7.91 72.72 3.69 73.03 3.32"/><path class="cls-11" d="M78.45,6.58,78.12,7A33.07,33.07,0,0,0,59.68,4l0-.89a33.72,33.72,0,0,1,19,3.07Z" transform="translate(-5.73 -2.88)"/><g class="cls-2"><g class="cls-96"><g class="cls-2"><path class="cls-8" d="M41.24,55.3l5.39,4.22a.42.42,0,0,0-.39,0,5.72,5.72,0,0,0-.87.35,16.16,16.16,0,0,0-7.12,5.9,1.35,1.35,0,0,0-.23.49.2.2,0,0,0,.09.2l-5.39-4.22a.2.2,0,0,1-.09-.2,1.35,1.35,0,0,1,.23-.49A16.16,16.16,0,0,1,40,55.62a5.72,5.72,0,0,1,.87-.35.42.42,0,0,1,.39,0" transform="translate(-5.73 -2.88)"/></g></g></g><g class="cls-2"><g class="cls-97"><g class="cls-2"><path class="cls-8" d="M33.87,62.8,39.26,67a4.56,4.56,0,0,1,.77.81,13.54,13.54,0,0,0,1.2,1.57c.22.2.45.4.69.58l-5.4-4.22c-.23-.18-.46-.38-.68-.58a12.51,12.51,0,0,1-1.2-1.57,4.56,4.56,0,0,0-.77-.81" transform="translate(-5.73 -2.88)"/></g></g></g><g class="cls-2"><g class="cls-98"><g class="cls-2"><path class="cls-8" d="M41.24,55.3l5.39,4.22a.42.42,0,0,0-.39,0,5.72,5.72,0,0,0-.87.35,16.16,16.16,0,0,0-7.12,5.9,1.35,1.35,0,0,0-.23.49.2.2,0,0,0,.09.2l-5.39-4.22a.2.2,0,0,1-.09-.2,1.35,1.35,0,0,1,.23-.49A16.16,16.16,0,0,1,40,55.62a5.72,5.72,0,0,1,.87-.35.42.42,0,0,1,.39,0" transform="translate(-5.73 -2.88)"/></g></g></g><g class="cls-2"><g class="cls-99"><g class="cls-2"><path class="cls-8" d="M33.87,62.8,39.26,67a4.56,4.56,0,0,1,.77.81,13.54,13.54,0,0,0,1.2,1.57c.22.2.45.4.69.58l-5.4-4.22c-.23-.18-.46-.38-.68-.58a12.51,12.51,0,0,1-1.2-1.57,4.56,4.56,0,0,0-.77-.81" transform="translate(-5.73 -2.88)"/></g></g></g><g class="cls-2"><g class="cls-100"><g class="cls-2"><path class="cls-87" d="M41.24,55.3l5.39,4.22c.16.12.22.45.31,1A6.51,6.51,0,0,0,48,63.42a2.38,2.38,0,0,0,.49.51l-5.39-4.22a2.38,2.38,0,0,1-.49-.51,6.51,6.51,0,0,1-1.09-2.85c-.1-.6-.15-.93-.31-1.05" transform="translate(-5.73 -2.88)"/></g></g></g><g class="cls-2"><g class="cls-101"><g class="cls-2"><path class="cls-5" d="M78.07,17.76,83.46,22a23.93,23.93,0,0,0-5.92-3.4l-5.39-4.22a23.93,23.93,0,0,1,5.92,3.4" transform="translate(-5.73 -2.88)"/></g></g></g><g class="cls-2"><g class="cls-102"><g class="cls-2"><path class="cls-8" d="M50.93,40.37l5.39,4.22c.09.07.11.23.15.42a41.12,41.12,0,0,1,.68,9.38,1.41,1.41,0,0,1,0,.2,16.23,16.23,0,0,1-1.44,6.23,6.91,6.91,0,0,1-4.3,3.5,3.27,3.27,0,0,1-2.88-.39l-5.39-4.22A3.27,3.27,0,0,0,46,60.1a6.91,6.91,0,0,0,4.3-3.5,16.42,16.42,0,0,0,1.44-6.23,1.41,1.41,0,0,0,0-.2,41.12,41.12,0,0,0-.68-9.38c0-.19-.06-.35-.15-.42" transform="translate(-5.73 -2.88)"/></g></g></g><g class="cls-2"><g class="cls-103"><g class="cls-2"><path class="cls-8" d="M50.93,40.37l5.39,4.22c.09.07.11.23.15.42a41.12,41.12,0,0,1,.68,9.38,1.41,1.41,0,0,1,0,.2,16.23,16.23,0,0,1-1.44,6.23,6.91,6.91,0,0,1-4.3,3.5,3.27,3.27,0,0,1-2.88-.39l-5.39-4.22A3.27,3.27,0,0,0,46,60.1a6.91,6.91,0,0,0,4.3-3.5,16.42,16.42,0,0,0,1.44-6.23,1.41,1.41,0,0,0,0-.2,41.12,41.12,0,0,0-.68-9.38c0-.19-.06-.35-.15-.42" transform="translate(-5.73 -2.88)"/></g></g></g><g class="cls-2"><g class="cls-104"><g class="cls-2"><path class="cls-8" d="M78.07,17.76,83.46,22a23.11,23.11,0,0,1,3.11,2.91,27.09,27.09,0,0,1,6,11.59l-5.39-4.22a27.09,27.09,0,0,0-6-11.59,23.11,23.11,0,0,0-3.11-2.91" transform="translate(-5.73 -2.88)"/></g></g></g><polygon class="cls-23" points="76.17 16.89 81.56 21.11 80.84 22 75.45 17.78 76.17 16.89"/><polygon class="cls-23" points="76.17 16.89 81.56 21.11 81.23 21.53 75.84 17.31 76.17 16.89"/><polygon class="cls-105" points="76.47 16.53 81.87 20.75 81.56 21.11 76.17 16.89 76.47 16.53"/><polygon class="cls-23" points="78.59 13.9 83.99 18.12 81.87 20.75 76.47 16.53 78.59 13.9"/><polygon class="cls-23" points="78.92 13.51 84.31 17.73 83.99 18.12 78.59 13.9 78.92 13.51"/><polygon class="cls-23" points="81.11 10.82 86.5 15.04 84.31 17.73 78.92 13.51 81.11 10.82"/><polygon class="cls-23" points="81.43 10.41 86.83 14.63 86.5 15.04 81.11 10.82 81.43 10.41"/><g class="cls-2"><g class="cls-106"><g class="cls-2"><path class="cls-5" d="M83.6,9.26,89,13.48a28.48,28.48,0,0,1,3.87,3.66l-5.39-4.22A28.48,28.48,0,0,0,83.6,9.26" transform="translate(-5.73 -2.88)"/></g></g></g><g class="cls-2"><g class="cls-107"><g class="cls-2"><path class="cls-5" d="M81.57,20.19,87,24.41a27.44,27.44,0,0,1,5.59,12.07l-5.39-4.22a27.44,27.44,0,0,0-5.59-12.07" transform="translate(-5.73 -2.88)"/></g></g></g><path class="cls-11" d="M81.9,19.78l-.33.41a27.44,27.44,0,0,1,5.59,12.07v0a27.09,27.09,0,0,0-6-11.59Z" transform="translate(-5.73 -2.88)"/><g class="cls-2"><g class="cls-108"><g class="cls-2"><path class="cls-8" d="M87.16,32.26l5.39,4.22c.07.4.13.74.2,1.07l-5.39-4.22c-.07-.33-.13-.68-.2-1.07" transform="translate(-5.73 -2.88)"/></g></g></g><polygon class="cls-109" points="81.42 29.38 86.82 33.6 86.83 33.66 81.44 29.44 81.42 29.38"/><g class="cls-2"><g class="cls-110"><g class="cls-2"><path class="cls-8" d="M87.16,32.26l5.39,4.22c.07.4.13.74.2,1.07l-5.39-4.22c-.07-.33-.13-.68-.2-1.07" transform="translate(-5.73 -2.88)"/></g></g></g><g class="cls-2"><g class="cls-111"><g class="cls-2"><path class="cls-5" d="M82.21,19.41l5.39,4.22a28.34,28.34,0,0,1,6,13.7l-5.39-4.22a28.34,28.34,0,0,0-6-13.7" transform="translate(-5.73 -2.88)"/></g></g></g><path class="cls-11" d="M87.17,32.32v-.06a27.44,27.44,0,0,0-5.59-12.07l.33-.41.31-.37a28.34,28.34,0,0,1,6,13.7l-.86.22C87.29,33,87.23,32.65,87.17,32.32Z" transform="translate(-5.73 -2.88)"/><g class="cls-2"><g class="cls-112"><g class="cls-2"><path class="cls-87" d="M57.63,29.37,63,33.59c.44,2,1.35,3.69,1.23,5.92,0,.19,0,.38,0,.58a22.66,22.66,0,0,1-1.13,4.65,2.5,2.5,0,0,0-.13.6A1.85,1.85,0,0,0,63,46a26.55,26.55,0,0,1,1.29,8.21v.13A2.9,2.9,0,0,1,63.6,56C60.05,60.57,56.54,65.12,53,69.62a1.9,1.9,0,0,0-.48.91.52.52,0,0,0,.22.42l-5.39-4.22a.52.52,0,0,1-.22-.42,1.81,1.81,0,0,1,.48-.91c3.57-4.5,7.07-9.05,10.62-13.58a2.91,2.91,0,0,0,.73-1.66V50a26.25,26.25,0,0,0-1.3-8.21,1.84,1.84,0,0,1-.08-.7,2.1,2.1,0,0,1,.13-.6,24,24,0,0,0,1.13-4.65c0-.2,0-.39,0-.58.12-2.23-.79-3.93-1.23-5.92" transform="translate(-5.73 -2.88)"/></g></g></g><g class="cls-2"><g class="cls-113"><g class="cls-2"><path class="cls-8" d="M47.54,66.86l5.39,4.22a1.16,1.16,0,0,1-.22-.13l-5.39-4.22a1.16,1.16,0,0,0,.22.13" transform="translate(-5.73 -2.88)"/></g></g></g><g class="cls-2"><g class="cls-114"><g class="cls-2"><path class="cls-8" d="M47.63,66.92,53,71.14l-.09-.06-5.39-4.22.09.06" transform="translate(-5.73 -2.88)"/></g></g></g><g class="cls-2"><g class="cls-115"><g class="cls-2"><path class="cls-87" d="M47.63,66.92,53,71.14c.08.06.15.15.27.26L47.9,67.18c-.12-.11-.19-.2-.27-.26" transform="translate(-5.73 -2.88)"/></g></g></g><path class="cls-116" d="M57.63,29.37c.44,2,1.35,3.69,1.23,5.92,0,.19,0,.38,0,.58a24,24,0,0,1-1.13,4.65,2.1,2.1,0,0,0-.13.6,1.84,1.84,0,0,0,.08.7A26.25,26.25,0,0,1,58.93,50v.13a2.91,2.91,0,0,1-.73,1.66c-3.55,4.53-7.05,9.08-10.62,13.58a1.81,1.81,0,0,0-.48.91c0,.23.14.4.44.55a1.87,1.87,0,0,1,.36.32,4.84,4.84,0,0,1-1.1.42,11.91,11.91,0,0,1-1.69.25c-3.7.39-6.85-.41-9.27-2.67a12.51,12.51,0,0,1-1.2-1.57A3.33,3.33,0,0,0,33,62.32c-.25-.07-.34-.17-.32-.31a1.35,1.35,0,0,1,.23-.49A16.16,16.16,0,0,1,40,55.62a5.72,5.72,0,0,1,.87-.35c.5-.13.55.15.7,1.08a6.51,6.51,0,0,0,1.09,2.85,3,3,0,0,0,3.37.9,6.91,6.91,0,0,0,4.3-3.5,16.42,16.42,0,0,0,1.44-6.23,1.41,1.41,0,0,0,0-.2,41.12,41.12,0,0,0-.68-9.38c-.06-.29-.08-.53-.4-.44l-.14,0a47,47,0,0,0-10.1,5.44,27.39,27.39,0,0,0-4.39,4l.15-2.52c0-.28,0-.56,0-.84.11-1.92.24-3.85.28-5.75a1.63,1.63,0,0,1,.86-1.44,41.84,41.84,0,0,1,7.4-4c2.75-1.2,5.51-2.12,8.28-3.11A15,15,0,0,0,57.63,29.37Z" transform="translate(-5.73 -2.88)"/><g class="cls-2"><g class="cls-117"><g class="cls-2"><path class="cls-87" d="M47.9,67.18l5.39,4.22a4.84,4.84,0,0,1-1.1.42,11.71,11.71,0,0,1-1.69.25A11.45,11.45,0,0,1,41.92,70l-5.4-4.22a11.49,11.49,0,0,0,8.59,2.09,11.91,11.91,0,0,0,1.69-.25,4.84,4.84,0,0,0,1.1-.42" transform="translate(-5.73 -2.88)"/></g></g></g><g class="cls-2"><g class="cls-118"><g class="cls-2"><path class="cls-8" d="M64.08,47.15l5.39,4.22a.31.31,0,0,0-.28-.09c-.16,0-.29.27-.45.48q-6.81,8.72-13.63,17.42c-.43.55-.49.85-.17,1.11l-5.39-4.22c-.33-.26-.26-.56.16-1.11q6.84-8.7,13.64-17.42c.16-.21.28-.43.45-.48a.31.31,0,0,1,.28.09" transform="translate(-5.73 -2.88)"/></g></g></g><g class="cls-2"><g class="cls-119"><g class="cls-2"><path class="cls-8" d="M64.08,47.15l5.39,4.22a.31.31,0,0,0-.28-.09c-.16,0-.29.27-.45.48q-6.81,8.72-13.63,17.42c-.43.55-.49.85-.17,1.11l-5.39-4.22c-.33-.26-.26-.56.16-1.11q6.84-8.7,13.64-17.42c.16-.21.28-.43.45-.48a.31.31,0,0,1,.28.09" transform="translate(-5.73 -2.88)"/></g></g></g><g class="cls-2"><g class="cls-120"><g class="cls-2"><path class="cls-8" d="M64.08,47.15l5.39,4.22a.31.31,0,0,0-.28-.09c-.16,0-.29.27-.45.48q-6.81,8.72-13.63,17.42c-.43.55-.49.85-.17,1.11l-5.39-4.22c-.33-.26-.26-.56.16-1.11q6.84-8.7,13.64-17.42c.16-.21.28-.43.45-.48a.31.31,0,0,1,.28.09" transform="translate(-5.73 -2.88)"/></g></g></g><g class="cls-2"><g class="cls-121"><g class="cls-2"><path class="cls-8" d="M64.08,47.15l5.39,4.22a.31.31,0,0,0-.28-.09c-.16,0-.29.27-.45.48q-6.81,8.72-13.63,17.42c-.43.55-.49.85-.17,1.11l-5.39-4.22c-.33-.26-.26-.56.16-1.11q6.84-8.7,13.64-17.42c.16-.21.28-.43.45-.48a.31.31,0,0,1,.28.09" transform="translate(-5.73 -2.88)"/></g></g></g><g class="cls-2"><g class="cls-122"><g class="cls-2"><path class="cls-5" d="M49.91,66.31l5.39,4.22a1.07,1.07,0,0,0-.22-.15l-.14-.09-5.39-4.22.14.09a1.07,1.07,0,0,1,.22.15" transform="translate(-5.73 -2.88)"/></g></g></g><g class="cls-2"><g class="cls-123"><g class="cls-2"><path class="cls-5" d="M64.08,47.15l5.39,4.22,0,0c1.25,1.13,2.54,2.21,3.81,3.31L67.94,50.5c-1.27-1.11-2.56-2.18-3.81-3.31l0,0" transform="translate(-5.73 -2.88)"/></g></g></g><polygon class="cls-23" points="54.72 57.43 60.11 61.65 60.04 61.75 54.64 57.53 54.72 57.43"/><g class="cls-2"><g class="cls-124"><g class="cls-2"><path class="cls-5" d="M68,50.76,73.36,55c-2.44,3.16-4.92,6.29-7.52,9.55l-5.39-4.22C63,57.05,65.53,53.92,68,50.76" transform="translate(-5.73 -2.88)"/></g></g></g><polygon class="cls-125" points="62.24 47.88 67.63 52.1 67.65 52.12 62.26 47.9 62.24 47.88"/><polygon class="cls-6" points="54.74 57.5 60.13 61.72 60.04 61.75 54.64 57.53 54.74 57.5"/><polygon class="cls-3" points="62.32 47.87 67.71 52.09 67.63 52.1 62.24 47.88 62.32 47.87"/><polygon class="cls-126" points="62.29 47.9 67.68 52.12 67.65 52.12 62.26 47.9 62.29 47.9"/><polygon class="cls-126" points="62.29 47.9 67.68 52.12 67.65 52.12 62.26 47.9 62.29 47.9"/><polygon class="cls-127" points="62.24 47.88 62.32 47.87 62.29 47.9 62.26 47.9 62.24 47.88"/><g class="cls-2"><g class="cls-128"><g class="cls-2"><path class="cls-5" d="M67.94,50.5l5.39,4.22a.82.82,0,0,1,.11.25l-5.39-4.22a.82.82,0,0,0-.11-.25" transform="translate(-5.73 -2.88)"/></g></g></g><polygon class="cls-129" points="62.32 47.87 67.71 52.09 67.68 52.12 62.29 47.9 62.32 47.87"/><polygon class="cls-130" points="62.46 47.83 67.86 52.05 67.71 52.09 62.32 47.87 62.46 47.83"/><polygon class="cls-131" points="62.46 47.83 67.86 52.05 67.68 52.12 62.29 47.9 62.46 47.83"/><polygon class="cls-127" points="62.24 47.88 62.26 47.9 62.29 47.9 62.32 47.87 62.46 47.83 62.29 47.9 62.26 47.9 62.24 47.88"/><polygon class="cls-131" points="62.46 47.83 67.86 52.05 67.68 52.12 62.29 47.9 62.46 47.83"/><polygon class="cls-132" points="54.49 63.01 59.88 67.22 59.83 67.33 54.44 63.11 54.49 63.01"/><g class="cls-2"><g class="cls-133"><g class="cls-2"><path class="cls-8" d="M67.58,58.72,73,62.94c-2.31.38-4.64,1.12-7.11,1.66l-5.39-4.22c2.47-.54,4.8-1.28,7.11-1.66" transform="translate(-5.73 -2.88)"/></g></g></g><polygon class="cls-23" points="61.85 55.83 67.24 60.05 67.24 60.17 61.84 55.95 61.85 55.83"/><path class="cls-22" d="M23.81,91.28l2-2.51a27.77,27.77,0,0,0,16.25,3.3L41.93,95A29.75,29.75,0,0,1,23.81,91.28Z" transform="translate(-5.73 -2.88)"/><path class="cls-11" d="M25.85,88.77l.64-.79a27,27,0,0,0,15.66,3.2l-.06.89A27.75,27.75,0,0,1,25.85,88.77Z" transform="translate(-5.73 -2.88)"/><g class="cls-2"><g class="cls-134"><g class="cls-2"><path class="cls-8" d="M49.91,66.31l5.39,4.22c.2.15.37.34.55.5,3.69,3.24,7.4,6.46,11.09,9.71l.06.05-5.4-4.22a.1.1,0,0,0-.06,0c-3.68-3.25-7.39-6.47-11.08-9.71-.19-.16-.35-.35-.55-.5" transform="translate(-5.73 -2.88)"/></g></g></g><g class="cls-2"><g class="cls-135"><g class="cls-2"><path class="cls-5" d="M67.58,58.84,73,63.06c-.12,1.7-.22,3.42-.33,5.12L67.25,64c.11-1.7.21-3.42.33-5.12" transform="translate(-5.73 -2.88)"/></g></g></g><polygon class="cls-23" points="61.52 61.08 66.91 65.3 66.9 65.41 61.51 61.19 61.52 61.08"/><polygon class="cls-10" points="61.51 61.19 66.9 65.41 59.88 67.22 54.49 63.01 61.51 61.19"/><g class="cls-2"><g class="cls-136"><g class="cls-2"><path class="cls-8" d="M87.36,33.33l5.39,4.22a38.11,38.11,0,0,1,.42,8.37L87.78,41.7a38.11,38.11,0,0,0-.42-8.37" transform="translate(-5.73 -2.88)"/></g></g></g><g class="cls-2"><g class="cls-137"><g class="cls-2"><path class="cls-8" d="M49.91,66.31l5.39,4.22c.2.15.37.34.55.5,3.69,3.24,7.4,6.46,11.09,9.71l.06.05-5.4-4.22a.1.1,0,0,0-.06,0c-3.68-3.25-7.39-6.47-11.08-9.71-.19-.16-.35-.35-.55-.5" transform="translate(-5.73 -2.88)"/></g></g></g><g class="cls-2"><g class="cls-138"><g class="cls-2"><path class="cls-8" d="M49.91,66.31l5.39,4.22c.2.15.37.34.55.5,3.69,3.24,7.4,6.46,11.09,9.71l.06.05-5.4-4.22a.1.1,0,0,0-.06,0c-3.68-3.25-7.39-6.47-11.08-9.71-.19-.16-.35-.35-.55-.5" transform="translate(-5.73 -2.88)"/></g></g></g><g class="cls-2"><g class="cls-139"><g class="cls-2"><path class="cls-5" d="M60.17,66l5.39,4.22,2.28,2.06c1.12,1,2.23,2,3.37,3,.4.34.35.6-.1,1.14-1.15,1.35-2.28,2.74-3.39,4.13a.86.86,0,0,1-.41.35.33.33,0,0,1-.31-.09l-5.4-4.22a.35.35,0,0,0,.32.09c.12,0,.24-.14.41-.35,1.11-1.39,2.23-2.78,3.39-4.13.45-.54.5-.8.1-1.14-1.15-1-2.25-2-3.37-3C61.71,67.4,61,66.73,60.17,66" transform="translate(-5.73 -2.88)"/></g></g></g><path class="cls-22" d="M87.78,41.7a44.83,44.83,0,0,1-.54,4.75,53.27,53.27,0,0,1-6.7,18,60.75,60.75,0,0,1-9.2,12A53.52,53.52,0,0,1,54.83,87.9a40.51,40.51,0,0,1-6.38,2.21,35.64,35.64,0,0,1-6.3,1.07A27,27,0,0,1,26.49,88a23.41,23.41,0,0,1-8.08-7.48,29.64,29.64,0,0,1-4.79-15,41.56,41.56,0,0,1,0-4.6A45.69,45.69,0,0,1,15,52c.12-.44.24-.9.38-1.34a58.35,58.35,0,0,1,7.47-15A60.87,60.87,0,0,1,33,24.49,52.1,52.1,0,0,1,46.5,15.84a42.26,42.26,0,0,1,6.38-2.21,36.37,36.37,0,0,1,6.31-1.07,28.12,28.12,0,0,1,13,1.8,23.9,23.9,0,0,1,9,6.31,27.09,27.09,0,0,1,6,11.59c.07.39.13.74.2,1.07A38.11,38.11,0,0,1,87.78,41.7Zm-41,25.9a4.84,4.84,0,0,0,1.1-.42,1.87,1.87,0,0,0-.36-.32c-.3-.15-.45-.32-.44-.55a1.81,1.81,0,0,1,.48-.91c3.57-4.5,7.07-9.05,10.62-13.58a2.91,2.91,0,0,0,.73-1.66V50a26.25,26.25,0,0,0-1.3-8.21,1.84,1.84,0,0,1-.08-.7,2.1,2.1,0,0,1,.13-.6,24,24,0,0,0,1.13-4.65c0-.2,0-.39,0-.58.12-2.23-.79-3.93-1.23-5.92a15,15,0,0,1-4.57,2.82c-2.77,1-5.53,1.91-8.28,3.11a41.84,41.84,0,0,0-7.4,4,1.61,1.61,0,0,0-.86,1.38c0,2-.17,3.89-.28,5.81,0,.28,0,.56,0,.84l-.15,2.52a27.39,27.39,0,0,1,4.39-4,47,47,0,0,1,10.1-5.44l.14,0c.32-.09.34.15.4.44a41.12,41.12,0,0,1,.68,9.38,1.41,1.41,0,0,1,0,.2,16.42,16.42,0,0,1-1.44,6.23A6.91,6.91,0,0,1,46,60.1a3,3,0,0,1-3.37-.9,6.51,6.51,0,0,1-1.09-2.85c-.15-.93-.2-1.21-.7-1.08a5.72,5.72,0,0,0-.87.35,16.16,16.16,0,0,0-7.12,5.9,1.35,1.35,0,0,0-.23.49c0,.14.07.24.32.31a3.33,3.33,0,0,1,1.69,1.29,12.51,12.51,0,0,0,1.2,1.57c2.42,2.26,5.57,3.06,9.27,2.67a11.91,11.91,0,0,0,1.69-.25m13.67-7.22-.1,0,.08-.1L68,50.79l.17-.08-.14,0a.82.82,0,0,0-.11-.25c-1.27-1.11-2.56-2.18-3.81-3.31a.37.37,0,0,0-.33-.13c-.17,0-.29.27-.45.48Q56.54,56.26,49.71,65c-.48.62-.5.93,0,1.2a4.82,4.82,0,0,1,.77.65c3.69,3.24,7.4,6.46,11.08,9.71.15.12.26.18.38.14s.24-.14.41-.35c1.11-1.39,2.23-2.78,3.39-4.13.45-.54.5-.8.1-1.14-1.15-1-2.25-2-3.37-3C61.71,67.4,61,66.73,60.17,66l0-.1,7-1.82V64c.11-1.7.21-3.42.33-5.12v-.12c-2.31.38-4.64,1.12-7.11,1.66M41.78,32.63c-1.17-.12-2.36-.2-3.64-.3.14,1,.26,1.82.39,2.67s.19,1.3.67,1.17a7.08,7.08,0,0,0,1.08-.47,60.43,60.43,0,0,1,9.93-4.11,20.62,20.62,0,0,0,3.56-1.39c1-.49,1.32-.65,1.35-1.17a5.87,5.87,0,0,0-.1-1c0-.1,0-.21,0-.32-.15-.93-.29-1.85-.44-2.87-1.11,1.21-2.09,2.3-3.08,3.39-.12.13-.24.33-.39.37a.24.24,0,0,1-.23-.08c-1.6-1.43-3.31-2.73-4.81-4.27l-.16,0c-1.14,2.65-2.3,5.29-3.43,7.94-.12.26-.23.38-.38.41a.73.73,0,0,1-.3,0" transform="translate(-5.73 -2.88)"/><path class="cls-11" d="M78.76,6.2a28.55,28.55,0,0,1,8.71,6.72l-.31.38-.32.4-2.19,2.69-.33.4-2.11,2.62-.31.37-.72.89a23.9,23.9,0,0,0-9-6.31l.65-.82.33-.41.31-.38,2.13-2.63.32-.39L78.12,7l.33-.41Z" transform="translate(-5.73 -2.88)"/><polygon class="cls-23" points="81.74 10.04 87.13 14.26 86.83 14.63 81.43 10.41 81.74 10.04"/><g class="cls-2"><g class="cls-140"><g class="cls-2"><path class="cls-8" d="M87.36,33.33l5.39,4.22a38.11,38.11,0,0,1,.42,8.37L87.78,41.7a38.11,38.11,0,0,0-.42-8.37" transform="translate(-5.73 -2.88)"/></g></g></g><polygon class="cls-10" points="82.49 30.23 87.88 34.45 87.02 34.67 81.63 30.45 82.49 30.23"/><polygon class="cls-23" points="36.42 88.3 41.81 92.52 41.76 93.41 36.37 89.19 36.42 88.3"/><polygon class="cls-8" points="36.37 89.19 41.76 93.41 41.59 96.32 36.2 92.1 36.37 89.19"/><g class="cls-2"><g class="cls-141"><g class="cls-2"><path class="cls-8" d="M84.32,16.79,89.72,21A30.36,30.36,0,0,1,96.5,36.58l-5.39-4.22a30.28,30.28,0,0,0-6.79-15.57" transform="translate(-5.73 -2.88)"/></g></g></g><polygon class="cls-6" points="85.38 29.48 90.77 33.7 87.88 34.45 82.49 30.23 85.38 29.48"/><path class="cls-22" d="M91.11,32.36l-2.89.75a28.34,28.34,0,0,0-6-13.7l2.11-2.62A30.28,30.28,0,0,1,91.11,32.36Z" transform="translate(-5.73 -2.88)"/><polygon class="cls-23" points="36.2 92.1 41.59 96.32 41.56 96.78 36.17 92.56 36.2 92.1"/><g class="cls-2"><g class="cls-142"><g class="cls-2"><path class="cls-5" d="M84.65,16.39,90,20.61a30.82,30.82,0,0,1,6.9,15.86l-5.39-4.22a30.9,30.9,0,0,0-6.9-15.86" transform="translate(-5.73 -2.88)"/></g></g></g><polygon class="cls-10" points="85.82 29.37 91.21 33.59 90.77 33.7 85.38 29.48 85.82 29.37"/><path class="cls-11" d="M91.55,32.25l-.44.11a30.28,30.28,0,0,0-6.79-15.57l.33-.4A30.9,30.9,0,0,1,91.55,32.25Z" transform="translate(-5.73 -2.88)"/><polygon class="cls-8" points="36.17 92.56 41.56 96.78 41.38 99.91 35.99 95.69 36.17 92.56"/><polygon class="cls-6" points="88.75 28.61 94.14 32.83 91.21 33.59 85.82 29.37 88.75 28.61"/><g class="cls-2"><g class="cls-143"><g class="cls-2"><path class="cls-8" d="M86.84,13.7l5.39,4.22a33.1,33.1,0,0,1,7.64,17.79l-5.39-4.22A33.1,33.1,0,0,0,86.84,13.7" transform="translate(-5.73 -2.88)"/></g></g></g><path class="cls-22" d="M94.48,31.49l-2.93.76a30.9,30.9,0,0,0-6.9-15.86l2.19-2.69A33.1,33.1,0,0,1,94.48,31.49Z" transform="translate(-5.73 -2.88)"/><polygon class="cls-23" points="35.99 95.69 41.38 99.91 41.33 100.8 35.94 96.58 35.99 95.69"/><g class="cls-2"><g class="cls-144"><g class="cls-2"><path class="cls-5" d="M41.67,99.46l5.39,4.22A33,33,0,0,1,26,99.46l-5.39-4.22c5.82,3.55,13,5.12,21.08,4.22" transform="translate(-5.73 -2.88)"/></g></g></g><polygon class="cls-10" points="89.61 28.39 95 32.61 94.14 32.83 88.75 28.61 89.61 28.39"/><g class="cls-2"><g class="cls-145"><g class="cls-2"><path class="cls-5" d="M87.47,12.92l5.39,4.22a33.65,33.65,0,0,1,7.87,18.35l-5.39-4.22a33.8,33.8,0,0,0-7.87-18.35" transform="translate(-5.73 -2.88)"/></g></g></g><path class="cls-11" d="M95.34,31.27l-.86.22A33.1,33.1,0,0,0,86.84,13.7l.32-.4.31-.38A33.8,33.8,0,0,1,95.34,31.27Z" transform="translate(-5.73 -2.88)"/><path class="cls-11" d="M63.8,47.06a.37.37,0,0,1,.33.13c1.25,1.13,2.54,2.2,3.81,3.31a.82.82,0,0,1,.11.25H68c-2.44,3.16-4.93,6.29-7.52,9.55l-.08.1.1,0c2.47-.54,4.8-1.28,7.11-1.66v.12c-.12,1.7-.22,3.42-.33,5.12v.11l-7,1.82,0,.1c.82.74,1.54,1.41,2.28,2.06,1.12,1,2.22,2,3.37,3,.4.34.35.6-.1,1.14-1.16,1.35-2.28,2.74-3.39,4.13-.17.21-.29.32-.41.35s-.23,0-.38-.14c-3.68-3.25-7.39-6.47-11.08-9.71a4.82,4.82,0,0,0-.77-.65c-.48-.27-.46-.58,0-1.2q6.84-8.7,13.64-17.42C63.51,47.33,63.63,47.11,63.8,47.06Z" transform="translate(-5.73 -2.88)"/><g class="cls-2"><g class="cls-146"><g class="cls-2"><path class="cls-8" d="M87.78,41.7l5.39,4.22a44.83,44.83,0,0,1-.54,4.75,53.27,53.27,0,0,1-6.7,18,60.72,60.72,0,0,1-9.2,12A53.86,53.86,0,0,1,60.22,92.13a41.76,41.76,0,0,1-6.37,2.2,35.9,35.9,0,0,1-6.31,1.07,27,27,0,0,1-15.66-3.2,22.16,22.16,0,0,1-3-2L23.51,86a22.93,22.93,0,0,0,3,2,27,27,0,0,0,15.66,3.2,35.64,35.64,0,0,0,6.3-1.07,40.51,40.51,0,0,0,6.38-2.21A53.52,53.52,0,0,0,71.34,76.39a60.75,60.75,0,0,0,9.2-12,53.27,53.27,0,0,0,6.7-18,44.83,44.83,0,0,0,.54-4.75" transform="translate(-5.73 -2.88)"/></g></g></g><polygon class="cls-23" points="48.67 92.41 54.06 96.63 54.01 97.52 48.62 93.3 48.67 92.41"/><g class="cls-2"><g class="cls-147"><g class="cls-2"><path class="cls-5" d="M54.35,96.18l5.39,4.22a49.54,49.54,0,0,1-6.37,2.12,43.42,43.42,0,0,1-6.31,1.16l-5.39-4.22A43.92,43.92,0,0,0,48,98.3a49.54,49.54,0,0,0,6.37-2.12" transform="translate(-5.73 -2.88)"/></g></g></g><path class="cls-11" d="M54.83,87.91l0,.88-.17,2.94,0,.46L54.4,95.3l0,.88A49.54,49.54,0,0,1,48,98.3a43.92,43.92,0,0,1-6.31,1.16l.48-8.28a35.64,35.64,0,0,0,6.3-1.07A41.5,41.5,0,0,0,54.83,87.91Z" transform="translate(-5.73 -2.88)"/><g class="cls-2"><g class="cls-148"><g class="cls-2"><path class="cls-8" d="M87.78,41.7l5.39,4.22a44.83,44.83,0,0,1-.54,4.75,53.27,53.27,0,0,1-6.7,18,60.72,60.72,0,0,1-9.2,12A53.86,53.86,0,0,1,60.22,92.13a41.76,41.76,0,0,1-6.37,2.2,35.9,35.9,0,0,1-6.31,1.07,27,27,0,0,1-15.66-3.2,22.16,22.16,0,0,1-3-2L23.51,86a22.93,22.93,0,0,0,3,2,27,27,0,0,0,15.66,3.2,35.64,35.64,0,0,0,6.3-1.07,40.51,40.51,0,0,0,6.38-2.21A53.52,53.52,0,0,0,71.34,76.39a60.75,60.75,0,0,0,9.2-12,53.27,53.27,0,0,0,6.7-18,44.83,44.83,0,0,0,.54-4.75" transform="translate(-5.73 -2.88)"/></g></g></g><path class="cls-11" d="M95.34,31.27a46.51,46.51,0,0,1,.25,8.41c-.09,1.58-.25,3.15-.49,4.74l-7.86,2a44.83,44.83,0,0,0,.54-4.75,38.11,38.11,0,0,0-.42-8.37l.86-.22,2.89-.75.44-.11,2.93-.76Z" transform="translate(-5.73 -2.88)"/><g class="cls-2"><g class="cls-149"><g class="cls-2"><path class="cls-5" d="M95.34,31.27l5.39,4.22A45.59,45.59,0,0,1,101,43.9c-.09,1.58-.26,3.15-.5,4.74L95.1,44.42c.24-1.59.4-3.16.49-4.74a46.51,46.51,0,0,0-.25-8.41" transform="translate(-5.73 -2.88)"/></g></g></g><polygon class="cls-10" points="89.37 41.53 94.76 45.75 86.9 47.79 81.51 43.57 89.37 41.53"/><g class="cls-2"><g class="cls-150"><g class="cls-2"><path class="cls-5" d="M88.08,46.23l5.4,4.22a54.25,54.25,0,0,1-7,18.67L81.11,64.9a54,54,0,0,0,7-18.67" transform="translate(-5.73 -2.88)"/></g></g></g><g class="cls-2"><g class="cls-151"><g class="cls-2"><path class="cls-5" d="M71.9,76.87l5.39,4.22A54.71,54.71,0,0,1,60.17,93l-5.39-4.22A54.71,54.71,0,0,0,71.9,76.87" transform="translate(-5.73 -2.88)"/></g></g></g><polygon class="cls-3" points="65.61 73.51 71 77.73 71.56 78.2 66.17 73.98 65.61 73.51"/><polygon class="cls-6" points="66.17 73.98 71.56 78.2 73.43 79.77 68.04 75.55 66.17 73.98"/><g class="cls-2"><g class="cls-152"><g class="cls-2"><path class="cls-8" d="M73.77,78.43l5.39,4.23A58.64,58.64,0,0,1,60,96l-5.39-4.22a58.52,58.52,0,0,0,19.16-13.3" transform="translate(-5.73 -2.88)"/></g></g></g><polygon class="cls-3" points="68.04 75.55 73.43 79.77 73.71 80.01 68.32 75.79 68.04 75.55"/><path class="cls-11" d="M80.54,64.43l.57.47L83,66.51l.29.24,2,1.64.3.25.27.22a74.41,74.41,0,0,1-9.26,11.93l-.27-.24L76,80.31l-4.67-3.92A60.75,60.75,0,0,0,80.54,64.43Z" transform="translate(-5.73 -2.88)"/><path class="cls-11" d="M87.24,46.45l.84-.22a54,54,0,0,1-7,18.67l-.57-.47A53.27,53.27,0,0,0,87.24,46.45Z" transform="translate(-5.73 -2.88)"/><path class="cls-11" d="M54.83,87.91A53.72,53.72,0,0,0,71.34,76.39l.56.48A54.71,54.71,0,0,1,54.78,88.79Z" transform="translate(-5.73 -2.88)"/><g class="cls-2"><g class="cls-153"><g class="cls-2"><path class="cls-8" d="M90.94,45.49l5.39,4.22a58.61,58.61,0,0,1-7.92,21L83,66.51a58.61,58.61,0,0,0,7.92-21" transform="translate(-5.73 -2.88)"/></g></g></g><path class="cls-22" d="M88.08,46.23l2.86-.74a58.61,58.61,0,0,1-7.92,21L81.11,64.9A54,54,0,0,0,88.08,46.23Z" transform="translate(-5.73 -2.88)"/><path class="cls-22" d="M54.78,88.79A54.71,54.71,0,0,0,71.9,76.87l1.87,1.56a58.52,58.52,0,0,1-19.16,13.3Z" transform="translate(-5.73 -2.88)"/><g class="cls-2"><g class="cls-154"><g class="cls-2"><path class="cls-5" d="M91.36,45.38l5.39,4.22A59.17,59.17,0,0,1,88.7,71l-5.39-4.22a59.17,59.17,0,0,0,8-21.37" transform="translate(-5.73 -2.88)"/></g></g></g><g class="cls-2"><g class="cls-155"><g class="cls-2"><path class="cls-8" d="M94.26,44.63l5.39,4.22a63.57,63.57,0,0,1-9,23.76l-5.39-4.22a63.57,63.57,0,0,0,9-23.76" transform="translate(-5.73 -2.88)"/></g></g></g><path class="cls-11" d="M94.26,44.63l.84-.21a64.47,64.47,0,0,1-9.27,24.44l-.27-.22-.3-.25A63.57,63.57,0,0,0,94.26,44.63Z" transform="translate(-5.73 -2.88)"/><path class="cls-22" d="M91.36,45.38l2.9-.75a63.57,63.57,0,0,1-9,23.76l-2-1.64A59.17,59.17,0,0,0,91.36,45.38Z" transform="translate(-5.73 -2.88)"/><path class="cls-11" d="M90.94,45.49l.42-.11a59.17,59.17,0,0,1-8,21.37L83,66.51A58.61,58.61,0,0,0,90.94,45.49Z" transform="translate(-5.73 -2.88)"/><g class="cls-2"><g class="cls-156"><g class="cls-2"><path class="cls-5" d="M74.05,78.67l5.39,4.22A59.18,59.18,0,0,1,60,96.41l-5.39-4.22A59.29,59.29,0,0,0,74.05,78.67" transform="translate(-5.73 -2.88)"/></g></g></g><path class="cls-11" d="M54.61,91.73a58.52,58.52,0,0,0,19.16-13.3l.28.24A59.29,59.29,0,0,1,54.58,92.19Z" transform="translate(-5.73 -2.88)"/><g class="cls-2"><g class="cls-157"><g class="cls-2"><path class="cls-8" d="M76,80.31l5.39,4.22a63.74,63.74,0,0,1-21.61,15L54.4,95.3A63.74,63.74,0,0,0,76,80.31" transform="translate(-5.73 -2.88)"/></g></g></g><path class="cls-11" d="M76,80.31l.29.24.27.24A64.74,64.74,0,0,1,54.35,96.18l0-.88A63.74,63.74,0,0,0,76,80.31Z" transform="translate(-5.73 -2.88)"/><path class="cls-22" d="M54.58,92.19A59.29,59.29,0,0,0,74.05,78.67l2,1.64a63.74,63.74,0,0,1-21.61,15Z" transform="translate(-5.73 -2.88)"/><g class="cls-2"><g class="cls-158"><g class="cls-2"><path class="cls-5" d="M95.1,44.42l5.39,4.22a64.47,64.47,0,0,1-9.27,24.44l-5.39-4.22A64.47,64.47,0,0,0,95.1,44.42" transform="translate(-5.73 -2.88)"/></g></g></g><g class="cls-2"><g class="cls-159"><g class="cls-2"><path class="cls-5" d="M76.57,80.79,82,85A64.6,64.6,0,0,1,59.74,100.4l-5.39-4.22A64.74,64.74,0,0,0,76.57,80.79" transform="translate(-5.73 -2.88)"/></g></g></g><polygon class="cls-3" points="70.57 77.67 75.96 81.89 76.23 82.12 70.84 77.9 70.57 77.67"/><g class="cls-2"><g class="cls-160"><g class="cls-2"><path class="cls-5" d="M85.83,68.86l5.39,4.22A73.84,73.84,0,0,1,82,85l-5.39-4.22a74.41,74.41,0,0,0,9.26-11.93" transform="translate(-5.73 -2.88)"/></g></g></g></g></g></g></svg>