<svg width="24" height="22" viewBox="0 0 24 22" fill="none" xmlns="http://www.w3.org/2000/svg">
<path fill-rule="evenodd" clip-rule="evenodd" d="M20.0561 15.2863V11.1683C20.0561 11.1683 20.0853 10.1675 18.7097 11.0432C18.1975 11.3485 17.4366 11.7685 17.4512 13.6436V15.2104C17.4512 15.2104 17.4806 18.5957 13.7049 18.5957H13.3391V19.4282C13.3397 19.5207 13.3216 19.6124 13.2861 19.6976C13.2506 19.7828 13.1984 19.8597 13.1326 19.9236C13.0668 19.9875 12.9888 20.037 12.9035 20.0691C12.8182 20.1012 12.7273 20.1153 12.6365 20.1103H11.3195C11.3195 20.1103 10.6756 20.0954 10.6756 19.4788V18.5957H7.95359C7.95359 18.5957 6.66581 18.5897 6.66581 17.2061C6.66439 17.0334 6.69681 16.8622 6.76098 16.7024C6.82516 16.5426 6.91984 16.3973 7.03966 16.2751C7.15949 16.1529 7.30206 16.0561 7.45897 15.9904C7.61587 15.9247 7.78393 15.8914 7.95359 15.8925H13.5293C13.5293 15.8925 14.8025 15.9431 14.8025 14.5282C14.8025 13.8134 14.4659 13.0881 13.4268 13.0881H1.57313C1.57313 13.0881 0.138952 13.0672 0.00724374 15.4889C-0.0220247 16.2633 0.0219351 16.9112 0.431693 17.3327C0.84145 17.7542 3.88531 20.8684 3.88531 20.8684C3.88531 20.8684 4.52924 21.4999 6.18291 21.4999H14.5976C14.5976 21.4999 20.0561 21.6026 20.0561 16.0191V15.2863ZM3.9439 6.71367V10.8317C3.9439 10.8317 3.91466 11.8325 5.29028 10.9568C5.80247 10.6515 6.57803 10.2315 6.54876 8.35642V6.78962C6.54876 6.78962 6.51943 3.40435 10.2951 3.40435H10.6756V2.57181C10.6727 2.4799 10.6886 2.38835 10.7224 2.30305C10.7561 2.21774 10.807 2.14054 10.8717 2.07636C10.9364 2.01217 11.0136 1.96244 11.0982 1.9303C11.1829 1.89815 11.2733 1.88431 11.3635 1.88968H12.6805C12.6805 1.88968 13.3244 1.90457 13.3244 2.52116V3.40435H16.061C16.061 3.40435 17.3488 3.4103 17.3488 4.7939C17.3502 4.96656 17.3179 5.13778 17.2537 5.29761C17.1896 5.45744 17.0947 5.60269 16.9749 5.72492C16.8551 5.84715 16.7127 5.94391 16.5558 6.00959C16.3989 6.07527 16.2306 6.10856 16.061 6.10751H10.4707C10.4707 6.10751 9.21221 6.05688 9.21221 7.47176C9.21221 8.18664 9.53414 8.91194 10.5732 8.91194H22.4269C22.4269 8.91194 23.861 8.93279 23.9928 6.51112C24.022 5.73666 23.9781 5.08879 23.5683 4.66731C23.1732 4.24731 20.1293 1.13161 20.1293 1.13161C20.1293 1.13161 19.4708 0.50013 17.8171 0.50013H9.40243C9.40243 0.50013 3.9439 0.397372 3.9439 5.98092V6.71367Z" fill="#ff5a5c"/>
</svg>
