<svg width="16" height="20" viewBox="0 0 16 20" fill="none" xmlns="http://www.w3.org/2000/svg">
    <path d="M13.4929 7.59078C13.439 7.5232 13.3736 7.53648 13.3393 7.55027C13.3106 7.56191 13.2449 7.5991 13.254 7.6923C13.2649 7.80421 13.271 7.91832 13.2722 8.03148C13.2771 8.50093 13.0888 8.96085 12.7556 9.29332C12.4245 9.62363 11.989 9.8016 11.5253 9.79644C10.892 9.78835 10.3667 9.458 10.0061 8.84109C9.70806 8.33097 9.83908 7.67304 9.97779 6.97644C10.059 6.56871 10.1429 6.14707 10.1429 5.74578C10.1429 2.62121 8.04236 0.81855 6.79025 0.0221045C6.76435 0.00565918 6.7397 -0.00012207 6.71786 -0.00012207C6.68236 -0.00012207 6.65423 0.0151904 6.64036 0.0245654C6.61349 0.0427686 6.57048 0.0842529 6.58431 0.15769C7.0629 2.69917 5.6354 4.22773 4.12407 5.84601C2.56626 7.5141 0.800598 9.40476 0.800598 12.8146C0.800598 16.7766 4.02392 20 7.98595 20C11.2481 20 14.1243 17.7256 14.9803 14.4691C15.564 12.2487 14.9523 9.42023 13.4929 7.59078ZM8.16521 18.4662C7.1731 18.5115 6.22958 18.1557 5.50892 17.4666C4.79599 16.7849 4.38708 15.8335 4.38708 14.8564C4.38708 13.0228 5.08818 11.6767 6.97388 9.88964C7.00474 9.86039 7.03634 9.85113 7.06388 9.85113C7.08884 9.85113 7.11048 9.85874 7.12536 9.86589C7.15673 9.88101 7.20829 9.91843 7.20134 9.99937C7.13392 10.7839 7.13509 11.4352 7.20478 11.935C7.3829 13.2118 8.31755 14.0696 9.53064 14.0696C10.1254 14.0696 10.6919 13.8458 11.1259 13.4393C11.1762 13.3921 11.2325 13.3982 11.254 13.4027C11.2826 13.4089 11.3208 13.4264 11.3409 13.4747C11.5208 13.9091 11.6127 14.3703 11.6142 14.8452C11.6199 16.7564 10.0727 18.3808 8.16521 18.4662Z" fill="#ff5a5c"/>
</svg>
