<svg width="1390" height="204" viewBox="0 0 1390 204" fill="none" xmlns="http://www.w3.org/2000/svg">
<path d="M351.54 56.1299V74.0699H333.6V65.61C333.6 63.75 331.91 62.23 330.22 62.23H295.02C293.33 62.23 291.64 63.75 291.64 65.61V142.77C291.64 144.63 293.33 146.15 295.02 146.15H330.22C331.91 146.15 333.6 144.63 333.6 142.77V134.31H351.54V152.25C351.54 158.34 345.96 163.42 339.36 163.42H285.89C279.29 163.42 273.71 158.34 273.71 152.25V56.1299C273.71 50.0399 279.29 44.96 285.89 44.96H339.36C345.96 44.96 351.54 50.0399 351.54 56.1299Z" fill="white"/>
<path d="M450.71 56.1299V108.59C450.71 114.68 445.13 119.76 438.53 119.76H390.81V163.42H372.87V44.96H438.53C445.12 44.96 450.71 50.0399 450.71 56.1299ZM432.77 65.61C432.77 63.75 431.08 62.23 429.39 62.23H390.81V102.5H429.39C431.08 102.5 432.77 100.98 432.77 99.12V65.61Z" fill="white"/>
<path d="M514.34 104.19L544.46 163.42H524.15L504.18 124.16L484.21 163.42H464.07L494.19 104.19L464.07 44.96H484.21L504.18 84.22L524.15 44.96H544.46L514.34 104.19Z" fill="white"/>
<path d="M687.28 56.1299V96.4C687.28 102.32 683.05 106.38 678.31 107.06C683.05 107.74 687.28 111.8 687.28 117.72V163.41H669.34V119.07C669.34 117.38 667.99 115.69 665.96 115.69H627.38V163.41H609.44V44.96H675.1C681.69 44.96 687.28 50.0399 687.28 56.1299ZM669.34 65.61C669.34 63.75 667.65 62.23 665.96 62.23H627.38V98.4399H665.96C667.99 98.4399 669.34 96.75 669.34 95.06V65.61Z" fill="white"/>
<path d="M728.91 62.22V95.56H770.88V112.82H728.91V146.16H788.81V163.42H710.97V44.96H788.81V62.22H728.91Z" fill="white"/>
<path d="M887.97 56.1299V74.0699H870.03V65.61C870.03 63.75 868.34 62.23 866.65 62.23H831.45C829.76 62.23 828.07 63.75 828.07 65.61V92.18C828.07 94.04 829.76 95.56 831.45 95.56H875.79C882.39 95.56 887.97 100.64 887.97 106.73V152.25C887.97 158.34 882.39 163.42 875.79 163.42H822.32C815.72 163.42 810.14 158.34 810.14 152.25V134.31H828.08V142.77C828.08 144.63 829.77 146.15 831.46 146.15H866.66C868.35 146.15 870.04 144.63 870.04 142.77V116.2C870.04 114.34 868.35 112.82 866.66 112.82H822.32C815.72 112.82 810.14 107.74 810.14 101.65V56.1299C810.14 50.0399 815.72 44.96 822.32 44.96H875.79C882.39 44.96 887.97 50.0399 887.97 56.1299Z" fill="white"/>
<path d="M929.6 62.22V95.56H971.57V112.82H929.6V146.16H989.5V163.42H911.66V44.96H989.5V62.22H929.6Z" fill="white"/>
<path d="M1066 132.62H1031.65L1022.68 163.42H1004.4L1039.94 44.97H1057.71L1093.25 163.42H1074.97L1066 132.62ZM1060.92 115.02L1048.91 73.22L1036.73 115.02H1060.92Z" fill="white"/>
<path d="M1188.34 56.1299V96.4C1188.34 102.32 1184.11 106.38 1179.37 107.06C1184.11 107.74 1188.34 111.8 1188.34 117.72V163.41H1170.4V119.07C1170.4 117.38 1169.05 115.69 1167.02 115.69H1128.44V163.41H1110.5V44.96H1176.16C1182.76 44.96 1188.34 50.0399 1188.34 56.1299ZM1170.4 65.61C1170.4 63.75 1168.71 62.23 1167.02 62.23H1128.44V98.4399H1167.02C1169.05 98.4399 1170.4 96.75 1170.4 95.06V65.61Z" fill="white"/>
<path d="M1289.87 56.1299V74.0699H1271.93V65.61C1271.93 63.75 1270.24 62.23 1268.55 62.23H1233.35C1231.66 62.23 1229.97 63.75 1229.97 65.61V142.77C1229.97 144.63 1231.66 146.15 1233.35 146.15H1268.55C1270.24 146.15 1271.93 144.63 1271.93 142.77V134.31H1289.87V152.25C1289.87 158.34 1284.29 163.42 1277.69 163.42H1224.22C1217.62 163.42 1212.04 158.34 1212.04 152.25V56.1299C1212.04 50.0399 1217.62 44.96 1224.22 44.96H1277.69C1284.29 44.96 1289.87 50.0399 1289.87 56.1299Z" fill="white"/>
<path d="M1389.04 44.96V163.41H1371.1V112.81H1329.13V163.41H1311.19V44.96H1329.13V95.56H1371.1V44.96H1389.04Z" fill="white"/>
<path d="M101.67 0C45.61 0 0 45.61 0 101.67C0 112.46 1.69998 122.86 4.81998 132.62L23.07 123.81C21.08 116.76 19.99 109.34 19.99 101.67C19.99 56.64 56.63 20 101.66 20C131.09 20 156.93 35.6499 171.3 59.0699L38.49 153.32C35.53 149.71 32.88 145.84 30.57 141.76L13.15 151.61C20.03 163.76 29.34 174.35 40.41 182.74L40.43 182.72L41.14 183.29L171.32 59.06C178.94 71.47 183.34 86.06 183.34 101.66C183.34 146.69 146.7 183.33 101.67 183.33C91.65 183.33 82.06 181.51 73.19 178.2L59.1 193.98C72.06 199.98 86.48 203.33 101.67 203.33C157.73 203.33 203.34 157.72 203.34 101.66C203.34 45.6 157.73 0 101.67 0Z" fill="white"/>
</svg>
