<svg xmlns="http://www.w3.org/2000/svg" width="175" height="118"><path d="M6.379 0c5.152.008 10.3.008 15.457 0 .133.027.379-.055.43.129 1.793 4.582 3.59 9.164 5.382 13.742 2.797 7.242 5.817 14.395 8.172 21.793a66.848 66.848 0 0 1 1.528 5.422c.035-.027.066-.059.097-.09 1.375-5.09 3.23-10.043 5.114-14.96C45.969 17.347 49.426 8.68 52.859 0c5.282.008 10.563 0 15.844.008 2.184 20.699 4.383 41.39 6.559 62.094-4.825-.016-9.637.011-14.457-.024-.563-6.133-1.192-12.27-1.778-18.402-.226-2.504-.53-4.992-.675-7.504L57.27 20.027c-.438.973-.735 2-1.118 3-3.328 9.149-6.867 18.227-10.308 27.328-1.414 3.704-2.809 7.41-4.235 11.106-2.843-.016-5.687-.008-8.53-.008-1.829-4.863-3.661-9.719-5.49-14.586-1.773-4.722-3.581-9.43-5.292-14.176-1.469-4.183-2.926-8.367-4.07-12.652-.094 1.266-.047 2.535-.102 3.797-.2 6.148-.61 12.289-1.125 18.422-.547 6.61-1.078 13.226-1.629 19.836-4.809.008-9.621.008-14.437.008C2.742 41.398 4.547 20.699 6.379 0Zm83.7 0c5.12.008 10.234.008 15.35 0 .165.04.462-.082.544.129l5.59 14.254c1.812 4.672 3.695 9.316 5.449 14.012 1.472 4.097 2.96 8.207 3.98 12.445.016.105.07.191.156.254 1.004-3.926 2.383-7.742 3.79-11.543 1.32-3.59 2.753-7.133 4.16-10.692 2.492-6.285 4.976-12.574 7.468-18.859 5.286.008 10.567 0 15.848.008 2.18 20.691 4.383 41.39 6.555 62.094-4.82-.016-9.637.011-14.457-.024-.61-6.601-1.282-13.203-1.91-19.812-.172-1.852-.399-3.703-.504-5.559-.375-5.559-.746-11.121-1.125-16.68-.645 1.54-1.133 3.149-1.739 4.711-2.738 7.489-5.625 14.918-8.453 22.38-1.824 4.777-3.629 9.566-5.465 14.343-2.847-.016-5.691-.008-8.53-.008-1.825-4.863-3.661-9.719-5.493-14.586-3.316-8.87-6.832-17.691-9.375-26.824-.09 6.152-.445 12.309-.906 18.45-.645 7.866-1.282 15.737-1.934 23.6-4.812.009-9.621.009-14.437.009 1.015-11.739 2.054-23.465 3.082-35.196C88.508 17.941 89.28 8.973 90.078 0Zm0 0" style="stroke:none;fill-rule:nonzero;fill:#fcf90b;fill-opacity:1"/><path d="M0 71.918c3.344-.016 6.691 0 10.031-.008.301-.008.59-.008.88.035 1.194 4.93 2.456 9.848 3.675 14.778 1.375 5.453 2.664 10.941 3.598 16.488.125.887.261 1.766.414 2.644.574-2.246 1.093-4.523 1.695-6.765 1.402-5.32 2.926-10.613 4.41-15.91.996-3.532 1.969-7.078 2.988-10.602 2.555.02 5.122-.023 7.676.02 2.68 9.968 5.625 19.87 8.063 29.91.27 1.11.508 2.219.765 3.332.235-1.012.348-2.055.551-3.074 1.078-5.711 2.5-11.34 3.914-16.965 1.156-4.63 2.324-9.254 3.473-13.883 3.515-.016 7.035-.008 10.554-.008-4.015 15.125-8.054 30.25-12.085 45.371H39.043c-2.203-8.015-4.496-16.004-6.535-24.062-.332-1.465-.809-2.914-.965-4.418-.5 2.914-1.281 5.781-2.066 8.629-1.891 6.625-3.84 13.234-5.75 19.851H12.16C8.102 102.161 4.04 87.035.004 71.918Zm80.566 0c4.352-.023 8.707-.008 13.063-.008 5.035 15.125 10.082 30.242 15.105 45.371H97.641c-.914-3.101-1.832-6.191-2.754-9.285H79.043l-2.758 9.285c-3.605 0-7.219.008-10.828-.008 5.04-15.113 10.082-30.23 15.11-45.355m6.394 7.664a66.474 66.474 0 0 1-1.043 4.606c-1.34 5.171-2.875 10.3-4.383 15.433 3.617.031 7.242.031 10.867 0-1.941-6.644-3.933-13.281-5.445-20.039Zm27.652-7.672c3.457 0 6.903-.008 10.36 0v36.278c5.578 0 11.156-.008 16.738 0-.008 3.027 0 6.066 0 9.093-9.035.008-18.063 0-27.098 0Zm32.774 0c3.457 0 6.91-.008 10.367 0-.008 12.09-.008 24.188 0 36.278 5.578 0 11.156-.008 16.734 0-.004 3.027-.004 6.066 0 9.093-9.035.008-18.066 0-27.101 0Zm0 0" style="stroke:none;fill-rule:nonzero;fill:#f6f8f7;fill-opacity:1"/></svg>