<svg width="120" height="22" viewBox="0 0 120 22" fill="none" xmlns="http://www.w3.org/2000/svg">
    <g clip-path="url(#clip0_792_399)">
        <path d="M27.4734 20.782V7.85462L17.7144 20.3711C17.2635 20.9242 16.6031 21.2087 15.7497 21.2087C14.8962 21.2087 14.2359 20.9242 13.785 20.3711L4.04209 7.85462V20.782H0V2.51298C0 1.89665 0.225456 1.45414 0.692471 1.15388C1.15949 0.869407 1.72312 0.727173 2.41559 0.727173C2.94703 0.727173 3.36573 0.806192 3.6717 0.948421C3.97768 1.09066 4.26755 1.32771 4.52522 1.65959L15.8141 16.357L27.1835 1.65959C27.4412 1.32771 27.6988 1.09066 27.9887 0.948421C28.2786 0.806192 28.665 0.727173 29.1804 0.727173C29.8568 0.727173 30.4365 0.869407 30.9035 1.15388C31.3706 1.43834 31.596 1.89665 31.596 2.51298V20.782H27.4734Z" fill="white"/>
        <path d="M42.45 20.7817C40.9846 20.7817 39.7607 20.6553 38.7783 20.4182C37.796 20.1812 37.023 19.8018 36.4272 19.2645C35.8474 18.743 35.4287 18.0477 35.1872 17.1942C34.9455 16.3409 34.8168 15.2978 34.8168 14.0493V11.9474C34.8168 10.699 34.9455 9.64011 35.1872 8.78668C35.4287 7.9175 35.8474 7.22214 36.4272 6.70063C37.0069 6.17911 37.796 5.78401 38.7783 5.54696C39.7607 5.3099 40.9846 5.18347 42.45 5.18347H47.7643C49.2459 5.18347 50.4859 5.3099 51.4522 5.54696C52.4345 5.78401 53.2075 6.17911 53.8033 6.71643C54.3831 7.25376 54.8018 7.94912 55.0433 8.81833C55.2849 9.6875 55.4137 10.7306 55.4137 11.9791V14.0493C55.4137 15.2978 55.2849 16.3409 55.0433 17.1942C54.8018 18.0477 54.3831 18.743 53.8033 19.2645C53.2236 19.7861 52.4345 20.1812 51.4522 20.4182C50.4698 20.6553 49.2459 20.7817 47.7643 20.7817H42.45ZM51.0495 12.0896C51.0495 11.4417 51.0012 10.9044 50.8885 10.4777C50.7758 10.051 50.5826 9.71914 50.3088 9.48205C50.0189 9.24504 49.6324 9.08698 49.117 8.99213C48.6017 8.9131 47.9576 8.86571 47.1846 8.86571H43.0459C42.2568 8.86571 41.6287 8.9131 41.1295 8.99213C40.6303 9.07116 40.2438 9.24504 39.9539 9.48205C39.664 9.71914 39.4708 10.051 39.3741 10.4777C39.2615 10.9044 39.2131 11.4417 39.2131 12.0896V13.9387C39.2131 14.5866 39.2615 15.124 39.3741 15.5348C39.4869 15.9457 39.6802 16.2777 39.9539 16.5147C40.2438 16.7518 40.6303 16.9256 41.1295 17.0204C41.6287 17.1152 42.2729 17.1627 43.0459 17.1627H47.1846C47.9737 17.1627 48.6179 17.1152 49.117 17.0204C49.6324 16.9256 50.0189 16.7518 50.3088 16.5147C50.5986 16.2777 50.7919 15.9457 50.8885 15.5348C51.0012 15.124 51.0495 14.5866 51.0495 13.9387V12.0896Z" fill="white"/>
        <path d="M74.8512 20.7817V12.0896C74.8512 11.4417 74.8029 10.9044 74.6902 10.4935C74.5775 10.0826 74.4003 9.75071 74.1265 9.5137C73.8689 9.27661 73.4985 9.10281 73.0476 9.00795C72.5806 8.9131 72.0008 8.86571 71.3084 8.86571H66.5577C65.8652 8.86571 65.3016 8.9131 64.8346 9.00795C64.3675 9.10281 64.0132 9.27661 63.7395 9.5137C63.4658 9.75071 63.2725 10.0826 63.1597 10.4935C63.047 10.9044 62.9987 11.4417 62.9987 12.0896V20.7817H58.6345V11.9474C58.6345 10.699 58.7634 9.64011 59.0049 8.78668C59.2465 7.9175 59.6652 7.22214 60.2449 6.70063C60.8247 6.17911 61.6138 5.78401 62.5961 5.54696C63.5784 5.3099 64.8024 5.18347 66.2678 5.18347H71.5821C73.0637 5.18347 74.3037 5.3099 75.2699 5.54696C76.2523 5.78401 77.0252 6.1633 77.6211 6.70063C78.2008 7.22214 78.6195 7.9175 78.8611 8.78668C79.1027 9.65594 79.2315 10.699 79.2315 11.9474V20.7817H74.8512Z" fill="white"/>
        <path d="M82.5973 20.7824V0.158691H87.0579V20.7982H82.5973V20.7824Z" fill="white"/>
        <path d="M92.0017 4.2986C91.4544 4.2986 91.068 4.18797 90.8425 3.98252C90.617 3.77707 90.5046 3.42939 90.5046 2.97108V1.2959C90.5046 0.837594 90.617 0.505717 90.8425 0.30027C91.068 0.0948225 91.4544 0 92.0017 0H93.4349C93.9991 0 94.4017 0.0948225 94.6272 0.30027C94.8527 0.505717 94.9651 0.837594 94.9651 1.2959V2.97108C94.9651 3.42939 94.8527 3.76127 94.6272 3.98252C94.4017 4.18797 93.9991 4.2986 93.4349 4.2986H92.0017ZM90.52 20.7818V5.59449H94.9812V20.7818H90.52Z" fill="white"/>
        <path d="M114.081 4.96289L119.716 5.0261L111.778 12.6593L119.813 20.6243H114.354L108.991 14.9824L103.532 20.6243H98.2014" fill="#31CE93"/>
        <path d="M105.271 2.68685C105.271 2.54462 105.223 2.40239 105.127 2.29176C105.03 2.18114 104.885 2.11792 104.74 2.11792C104.724 2.11792 104.724 2.11792 104.708 2.11792C104.58 2.11792 104.434 2.16533 104.338 2.26015C104.225 2.35498 104.161 2.49721 104.161 2.63944C104.145 2.93971 104.385 3.19257 104.676 3.20838C104.998 3.20838 105.255 2.98712 105.271 2.68685Z" fill="#31CE93"/>
        <path d="M100.602 2.52901C100.602 2.38678 100.553 2.24454 100.456 2.13393C100.36 2.0233 100.216 1.96008 100.07 1.96008C100.054 1.96008 100.054 1.96008 100.038 1.96008C99.9092 1.96008 99.7646 2.00749 99.6675 2.10231C99.5552 2.19713 99.4905 2.33937 99.4905 2.4816C99.4743 2.78187 99.716 3.03473 100.006 3.05053C100.328 3.05053 100.586 2.82928 100.602 2.52901Z" fill="#31CE93"/>
        <path d="M100.602 7.11178C100.602 6.96955 100.553 6.82732 100.456 6.71669C100.36 6.60606 100.215 6.54285 100.07 6.54285C100.054 6.54285 100.054 6.54285 100.038 6.54285C99.909 6.54285 99.7643 6.59026 99.6673 6.68509C99.555 6.77991 99.4903 6.92214 99.4903 7.06437C99.4741 7.36464 99.7158 7.6175 100.006 7.6333C100.328 7.6333 100.586 7.41205 100.602 7.11178Z" fill="#31CE93"/>
        <path d="M105.9 3.33484C106.013 3.161 106.077 2.95555 106.077 2.7343C106.093 2.38663 105.98 2.03894 105.739 1.77028C105.497 1.50162 105.159 1.34358 104.804 1.32777C104.434 1.31198 104.096 1.4226 103.822 1.65965C103.549 1.89671 103.387 2.22859 103.371 2.57627C103.34 3.30323 103.903 3.93538 104.66 3.98279C104.692 3.98279 104.708 3.98279 104.74 3.98279C104.934 3.98279 105.143 3.93538 105.32 3.85636L109.282 8.02853L109.845 7.4754L105.9 3.33484ZM104.692 3.19261C104.385 3.17681 104.161 2.92394 104.176 2.62368C104.176 2.48145 104.241 2.33922 104.354 2.24439C104.45 2.14957 104.58 2.10216 104.724 2.10216C104.74 2.10216 104.74 2.10216 104.757 2.10216C104.901 2.10216 105.046 2.16537 105.143 2.276C105.239 2.38663 105.288 2.52886 105.288 2.67109C105.255 2.98716 104.998 3.20841 104.692 3.19261Z" fill="#31CE93"/>
        <path d="M101.214 7.75976C101.326 7.57012 101.391 7.36468 101.391 7.15922C101.407 6.81155 101.294 6.46386 101.053 6.1952C100.811 5.92654 100.472 5.7685 100.118 5.7527C99.7643 5.7369 99.4103 5.84752 99.1362 6.08457C98.8622 6.32163 98.7013 6.65351 98.6852 7.00119C98.6528 7.72816 99.2162 8.3603 99.9737 8.40771C100.006 8.40771 100.022 8.40771 100.054 8.40771C100.247 8.40771 100.456 8.3603 100.634 8.28129L104.676 12.5325L105.239 11.9794L101.214 7.75976ZM100.022 7.61753C99.7158 7.60173 99.4903 7.34887 99.5064 7.0486C99.5064 6.90637 99.5711 6.76414 99.6835 6.66932C99.7805 6.57449 99.909 6.52708 100.054 6.52708C100.07 6.52708 100.07 6.52708 100.086 6.52708C100.232 6.52708 100.376 6.59029 100.472 6.70092C100.569 6.81155 100.618 6.95378 100.618 7.09601C100.586 7.41209 100.328 7.63334 100.022 7.61753Z" fill="#31CE93"/>
        <path d="M101.214 3.19195C101.326 3.00231 101.391 2.79686 101.407 2.57561C101.423 2.22793 101.31 1.88025 101.069 1.61159C100.827 1.34293 100.489 1.18489 100.135 1.16908C99.7805 1.15329 99.4257 1.2639 99.1525 1.50096C98.8784 1.73802 98.7176 2.06989 98.7014 2.41757C98.6691 3.14454 99.2325 3.77668 99.9899 3.8241C100.022 3.8241 100.038 3.8241 100.07 3.8241C100.263 3.8241 100.456 3.77668 100.634 3.71348L106.93 10.3352L107.494 9.78207L101.214 3.19195ZM100.022 3.03391C99.7159 3.01812 99.4903 2.76525 99.5065 2.46498C99.5065 2.32275 99.5712 2.18052 99.6835 2.0857C99.7805 1.99088 99.9091 1.94347 100.054 1.94347C100.07 1.94347 100.07 1.94347 100.086 1.94347C100.232 1.94347 100.376 2.00668 100.472 2.1173C100.569 2.22793 100.618 2.37016 100.618 2.51239C100.586 2.82847 100.328 3.04972 100.022 3.03391Z" fill="#31CE93"/>
    </g>
    <defs>
        <clipPath id="clip0_792_399">
            <rect width="120" height="22" fill="white"/>
        </clipPath>
    </defs>
</svg>
