<svg width="18" height="20" viewBox="0 0 18 20" fill="none" xmlns="http://www.w3.org/2000/svg">
    <path d="M8.21634 16.1069L0.000762939 12.391V14.8604C0.000762939 14.861 0.000762939 14.8616 0.000762939 14.8628C0.000762939 15.2414 0.223012 15.5683 0.544038 15.7206L0.549918 15.723L8.21692 19.2349C8.44682 19.3424 8.71669 19.4054 9.00067 19.4054C9.28466 19.4054 9.55453 19.3424 9.79619 19.2301L9.78443 19.2349L17.4514 15.723C17.7783 15.5683 18 15.2414 18 14.8628C18 14.8622 18 14.861 18 14.8604V12.391L9.78443 16.1069C9.55453 16.2169 9.28525 16.2809 9.00067 16.2809C8.7161 16.2809 8.44623 16.2169 8.20575 16.1016L8.21692 16.1063L8.21634 16.1069Z" fill="#ff5a5c"/>
    <path d="M0.298255 10.439L8.13753 14.0449C8.38624 14.1602 8.67728 14.2278 8.9842 14.2278C9.29111 14.2278 9.58215 14.1608 9.84379 14.0397L9.83086 14.0449L17.6701 10.439C17.8459 10.3561 17.9659 10.1803 17.9659 9.97626C17.9659 9.77224 17.8459 9.59644 17.6731 9.5153L17.6701 9.51413L9.94022 5.9552V9.16135C9.94022 9.68111 9.51924 10.1021 8.99948 10.1021C8.47972 10.1021 8.05875 9.68111 8.05875 9.16135V5.9552L0.297667 9.51413C0.121867 9.59703 0.00192261 9.77283 0.00192261 9.97685C0.00192261 10.1809 0.121867 10.3567 0.294727 10.4378L0.297667 10.439H0.298255Z" fill="#ff5a5c"/>
    <path d="M11.3831 2.95189C11.3831 4.25481 10.3265 5.31138 9.02361 5.31138C7.72069 5.31138 6.66412 4.25481 6.66412 2.95189C6.66412 1.64897 7.72069 0.592407 9.02361 0.592407C10.3265 0.592407 11.3831 1.64897 11.3831 2.95189Z" fill="#ff5a5c"/>
</svg>
