<svg width="28" height="39" viewBox="0 0 28 39" fill="none" xmlns="http://www.w3.org/2000/svg">
<path d="M14.2553 5.40633H14.2985C15.5408 5.40633 19.1512 5.40633 20.0058 11.849H25.5303C25.1742 8.81246 24.3073 6.30342 22.9465 4.37944C21.111 1.78343 18.4718 0.358189 15.1022 0.142068C14.8336 0.124804 14.5593 0.115852 14.2869 0.115852C12.7502 0.115852 11.2026 0.390798 9.92935 0.890177C6.0085 2.42732 3.59532 6.20367 2.90234 11.8484H8.55049C9.32654 5.43254 12.9936 5.41272 14.2547 5.40569L14.2553 5.40633Z" fill="white"/>
<path d="M27.9475 16.0768C27.9571 15.885 27.9146 15.6944 27.8244 15.5237C27.733 15.3504 27.6145 15.2219 27.5024 15.1286C27.4264 14.9892 27.3176 14.9879 27.1733 14.8779V14.6004C27.1733 14.0377 26.7341 13.5639 26.1506 13.4961C26.034 13.4827 19.1062 13.4878 19.1062 13.4878C18.7546 13.4878 18.421 13.64 18.2001 13.9022C17.9792 14.1643 17.8942 14.5077 17.9689 14.837C18.0442 15.1701 18.0932 15.6171 17.8942 15.853C17.3867 16.4547 15.3303 16.4547 14.4525 16.4547C13.6436 16.4547 11.4951 16.4547 11.0288 15.8818C10.8382 15.6478 10.9322 15.149 11.005 14.8722C11.0926 14.5397 11.0146 14.1867 10.7944 13.9162C10.5741 13.6458 10.2354 13.4872 9.87663 13.4872H2.431C1.78826 13.4872 1.26724 13.9853 1.26724 14.5998V14.9777C1.21765 15.0256 1.17192 15.0774 1.1307 15.1337C0.947156 15.2264 0.81835 15.3498 0.731406 15.4604C0.610328 15.6139 0.431288 15.924 0.497623 16.3594C0.617413 18.6082 0.304414 28.1111 0.495691 30.4846C0.752659 33.674 2.20044 36.6338 4.78879 37.8513C6.43558 38.6249 19.9608 38.7445 20.5134 38.7036C22.575 38.5514 24.1303 37.6767 25.4518 36.3627C26.8558 34.9662 27.7884 32.7929 27.9455 30.5473C28.1078 28.2339 27.8399 18.245 27.9468 16.0768H27.9475ZM16.9017 30.3817H12.1868L12.9068 27.4711C12.2125 26.9871 11.7611 26.2038 11.7611 25.3195C11.7611 23.8495 13.0073 22.6576 14.5439 22.6576C16.0806 22.6576 17.3268 23.8495 17.3268 25.3195C17.3268 26.2038 16.8753 26.9871 16.181 27.4711L16.9011 30.3817H16.9017Z" fill="white"/>
</svg>
