<svg width="12" height="16" viewBox="0 0 12 16" fill="none" xmlns="http://www.w3.org/2000/svg">
    <path d="M1.38462 0.879957C1.2447 0.792439 1.08603 0.746239 0.924463 0.745973C0.762898 0.745707 0.604099 0.791385 0.463936 0.878441C0.323774 0.965498 0.207158 1.09088 0.125745 1.24207C0.0443313 1.39325 0.000971806 1.56493 0 1.73996V14.3C0.000277175 14.4744 0.0426584 14.6457 0.122937 14.7969C0.203215 14.948 0.318598 15.0739 0.457631 15.1618C0.596665 15.2498 0.754513 15.2968 0.915506 15.2982C1.0765 15.2996 1.23504 15.2554 1.37538 15.17L11.5108 9.03996C11.6538 8.95452 11.7733 8.82952 11.8571 8.6777C11.941 8.52588 11.9861 8.35269 11.988 8.17578C11.9899 7.99888 11.9484 7.82461 11.8678 7.67074C11.7872 7.51688 11.6704 7.38893 11.5292 7.29996L1.38462 0.879957Z" fill="#ff5a5c"/>
</svg>
