<svg xmlns="http://www.w3.org/2000/svg" width="175.965" height="46.164" viewBox="0 0 175.965 46.164"><defs><style>.a{fill:#fff;}.a,.b,.c{fill-rule:evenodd;}.b{fill:#64bae8;}.c{fill:#059fdb;}</style></defs><g transform="translate(-172.934 -401.032)"><path class="a" d="M641.682,407.16v5.177h-5.177v5.015h5.177v5.177H646.7v-5.177h5.177v-5.015H646.7V407.16Z" transform="translate(-302.975 -4.005)"/><g transform="translate(287.7 403.437)"><path class="b" d="M597.916,444.831l8.255-4.766v-27.32l-8.255-4.77Z" transform="translate(-565.455 -407.974)"/><path class="c" d="M504.214,440.065l8.255,4.771V407.974l-8.255,4.766Z" transform="translate(-504.214 -407.974)"/><path class="b" d="M504.214,473.17l14.3,8.161,12.039.046,2.423,8.207h-16.8l-11.957-6.91Z" transform="translate(-504.214 -450.584)"/><path class="c" d="M567.488,473.17l-28.76,16.415h16.8l11.957-6.91Z" transform="translate(-526.771 -450.584)"/></g><path class="a" d="M205.288,442.438l-.108-.157-12.986-19.009h4.1q4.318,0,6.566-1.893a7.463,7.463,0,0,0,0-10.677q-2.247-1.863-6.566-1.863h-7.808V424.7l-4.811-6.869-4.771,6.868V401.032h17.923a23,23,0,0,1,9.553,1.834,14.187,14.187,0,0,1,6.241,5.205,14.34,14.34,0,0,1,2.189,7.986,13.489,13.489,0,0,1-8.518,13.073l9.287,13.309Zm45.868-15.794q0,.178-.177,2.485H226.9a7.5,7.5,0,0,0,3.076,4.673,10.188,10.188,0,0,0,6.033,1.715,12.214,12.214,0,0,0,4.407-.739A10.676,10.676,0,0,0,244,432.441l4.91,5.324q-4.5,5.146-13.132,5.146a20.772,20.772,0,0,1-9.523-2.1,15.393,15.393,0,0,1-6.389-5.826,16.055,16.055,0,0,1-2.248-8.459,16.262,16.262,0,0,1,2.218-8.429,15.543,15.543,0,0,1,6.092-5.856,18.867,18.867,0,0,1,17.125-.089A14.68,14.68,0,0,1,249,417.92a17.2,17.2,0,0,1,2.159,8.725Zm-16.5-9.523a7.948,7.948,0,0,0-5.264,1.774,7.554,7.554,0,0,0-2.6,4.85H242.46a7.629,7.629,0,0,0-2.6-4.821,7.781,7.781,0,0,0-5.206-1.8Zm51.9-6.507H277.68l-9.109,21.649-8.813-21.649h-9.523L263.6,442.438h9.523Z" transform="translate(-3.903 0)"/><g transform="translate(172.934 421.85)"><path class="c" d="M179.774,461.125l-4.818,7.27v6.779l-2.022,2.322v4.519l6.84-6,.906-7.029Z" transform="translate(-172.934 -461.125)"/><path class="b" d="M192.678,461.125l4.818,7.27v6.779l2.022,2.322v4.519l-6.84-6Z" transform="translate(-185.838 -461.125)"/><path class="b" d="M187.528,508.486l-2.73,2.4,2.73,6.544.7-5.694Z" transform="translate(-180.688 -492.079)"/><path class="c" d="M192.678,508.486l2.73,2.4-2.73,6.544Z" transform="translate(-185.838 -492.079)"/></g></g></svg>