<svg width="28" height="28" viewBox="0 0 28 28" fill="none" xmlns="http://www.w3.org/2000/svg">
<path d="M28 12.8664V8.82979L24.7188 3.90791V0H3.28125V3.90786L0 8.82973V12.8663L1.64062 13.6866V26.3594H0V28H28V26.3594H26.3594V13.6867L28 12.8664ZM23.8984 13.0829L21.4375 11.8524V9.89844H26.3594V11.8524L23.8984 13.0829ZM1.64062 11.8524V9.89844H6.5625V11.8524L4.10156 13.0828L1.64062 11.8524ZM21.2085 8.25781L20.1147 4.97656H23.4595L25.647 8.25781H21.2085ZM18.3853 4.97656L19.4791 8.25781H14.8203V4.97656H18.3853ZM13.1797 8.25781H8.52097L9.61472 4.97656H13.1797V8.25781ZM6.79153 8.25781H2.35309L4.54059 4.97656H7.88534L6.79153 8.25781ZM8.20312 9.89844H13.1797V11.8486L10.6671 13.0844L8.20312 11.8524V9.89844ZM14.8203 9.89844H19.7969V11.8524L17.3329 13.0843L14.8203 11.8486V9.89844ZM4.92188 1.64062H23.0781V3.33594H4.92188V1.64062ZM14.8203 23.0234H6.5625V18.1016H14.8203V23.0234ZM21.4375 23.0234H19.7969V24.6641H21.4375V26.3594H16.4609V18.1016H21.4375V23.0234ZM24.7188 26.3594H23.0781C23.0781 24.4552 23.0781 19.345 23.0781 16.4609C21.1859 16.4609 6.84972 16.4609 4.92188 16.4609V24.6641H14.8203V26.3594H3.28125V14.507L4.10156 14.9172L7.38281 13.2765L10.6611 14.9157L14 13.2735L17.3389 14.9156L20.6172 13.2765L23.8984 14.9172L24.7188 14.507V26.3594Z" fill="#ff6668"/>
</svg>
