<svg width="18" height="18" viewBox="0 0 18 18" fill="none" xmlns="http://www.w3.org/2000/svg">
<path d="M9.3125 8.375C10.5206 8.375 11.5 9.35437 11.5 10.5625V15.5625C11.5 16.7706 10.5206 17.75 9.3125 17.75C8.10437 17.75 7.125 16.7706 7.125 15.5625V10.5625C7.125 9.35437 8.10437 8.375 9.3125 8.375ZM14.9375 5.875C16.1456 5.875 17.125 6.85437 17.125 8.0625V15.5625C17.125 16.7706 16.1456 17.75 14.9375 17.75C13.7294 17.75 12.75 16.7706 12.75 15.5625V8.0625C12.75 6.85437 13.7294 5.875 14.9375 5.875ZM3.6875 12.125C4.89563 12.125 5.875 13.1044 5.875 14.3125V15.5625C5.875 16.7706 4.89563 17.75 3.6875 17.75C2.47938 17.75 1.5 16.7706 1.5 15.5625V14.3125C1.5 13.1044 2.47938 12.125 3.6875 12.125ZM16.64 0.25C17.2531 0.25 17.75 0.746875 17.75 1.36C17.75 1.97312 17.2531 2.47 16.64 2.47H14.77C14.3031 2.47 13.8631 2.67313 13.5606 3.02063L13.4544 3.1575L12.4213 4.64625C11.8106 5.52625 10.8344 6.07688 9.77312 6.15125L9.52688 6.16H8.34062C7.8825 6.16 7.44937 6.35563 7.14812 6.69187L7.04125 6.82438L5.6275 8.78687C5.01312 9.63938 4.05187 10.17 3.01 10.2413L2.76812 10.2494H1.36C0.746875 10.2494 0.25 9.7525 0.25 9.13937C0.25 8.52625 0.746875 8.02937 1.36 8.02937H2.76812C3.22625 8.02937 3.65937 7.83375 3.96062 7.4975L4.0675 7.365L5.48125 5.4025C6.09562 4.55 7.05687 4.01937 8.09875 3.94812L8.34062 3.94H9.52688C9.99375 3.94 10.4338 3.73687 10.7362 3.38937L10.8425 3.2525L11.8756 1.76375C12.4862 0.88375 13.4625 0.333125 14.5237 0.25875L14.77 0.25H16.64Z" fill="#7D7D9E"/>
</svg>
