<svg width="235" height="28" viewBox="0 0 235 28" fill="none" xmlns="http://www.w3.org/2000/svg">
<g id="trustpilot">
<g id="Vector">
<path d="M29.9815 9.94921H41.512V12.094H36.972V24.1849H34.4835V12.094H29.9625L29.9815 9.94921ZM41.0181 13.8782H43.1456V15.8712H43.1836C43.2596 15.5865 43.3925 15.3208 43.5825 15.0551C43.7725 14.7893 44.0004 14.5426 44.2854 14.3338C44.5513 14.106 44.8552 13.9352 45.1972 13.8023C45.5201 13.6695 45.862 13.5935 46.2039 13.5935C46.4699 13.5935 46.6598 13.6125 46.7548 13.6125C46.8498 13.6315 46.9638 13.6505 47.0587 13.6505V15.8333C46.9068 15.7953 46.7358 15.7763 46.5648 15.7573C46.3939 15.7384 46.2419 15.7194 46.071 15.7194C45.691 15.7194 45.3301 15.7953 44.9882 15.9472C44.6463 16.099 44.3613 16.3268 44.0954 16.6115C43.8484 16.9152 43.6395 17.2758 43.4875 17.7124C43.3356 18.1489 43.2596 18.6614 43.2596 19.2308V24.1279H40.9801L41.0181 13.8782ZM55.2649 24.1849V22.7423H55.2269C54.942 23.2738 54.5241 23.6724 53.9732 23.995C53.4223 24.3177 52.8525 24.4696 52.2826 24.4696C50.9339 24.4696 49.9461 24.1469 49.3382 23.4636C48.7304 22.7992 48.4264 21.7743 48.4264 20.4266V13.8782H50.7059V20.1989C50.7059 21.11 50.8769 21.7553 51.2378 22.1159C51.5797 22.4956 52.0736 22.6854 52.7005 22.6854C53.1754 22.6854 53.5743 22.6094 53.8972 22.4576C54.2202 22.3057 54.4861 22.1159 54.6761 21.8692C54.885 21.6224 55.018 21.3187 55.113 20.9771C55.2079 20.6354 55.2459 20.2558 55.2459 19.8572V13.8782H57.5254V24.1849H55.2649ZM61.3816 20.8822C61.4576 21.5465 61.7045 22.0021 62.1414 22.2868C62.5783 22.5525 63.1102 22.6854 63.7181 22.6854C63.927 22.6854 64.174 22.6664 64.4399 22.6284C64.7059 22.5905 64.9718 22.5335 65.1998 22.4386C65.4467 22.3437 65.6367 22.2108 65.7886 22.021C65.9406 21.8312 66.0166 21.6035 65.9976 21.3187C65.9786 21.034 65.8836 20.7873 65.6746 20.5975C65.4657 20.4077 65.2187 20.2748 64.9148 20.1419C64.6109 20.028 64.25 19.9331 63.851 19.8572C63.4521 19.7813 63.0532 19.6864 62.6353 19.5915C62.2174 19.4966 61.7995 19.3827 61.4006 19.2498C61.0017 19.117 60.6597 18.9461 60.3368 18.6994C60.0329 18.4716 59.7669 18.1869 59.596 17.8263C59.406 17.4656 59.311 17.048 59.311 16.5166C59.311 15.9472 59.444 15.4916 59.729 15.112C59.9949 14.7324 60.3558 14.4287 60.7737 14.2009C61.1916 13.9732 61.6665 13.8023 62.1794 13.7074C62.6923 13.6125 63.1862 13.5745 63.6421 13.5745C64.174 13.5745 64.6869 13.6315 65.1618 13.7454C65.6367 13.8593 66.0925 14.0301 66.4725 14.2958C66.8714 14.5426 67.1943 14.8842 67.4413 15.2828C67.7072 15.6814 67.8592 16.1749 67.9352 16.7444H65.5607C65.4467 16.1939 65.1998 15.8333 64.8198 15.6435C64.4209 15.4537 63.984 15.3588 63.4711 15.3588C63.3192 15.3588 63.1102 15.3777 62.9013 15.3967C62.6733 15.4347 62.4833 15.4726 62.2744 15.5486C62.0844 15.6245 61.9135 15.7384 61.7805 15.8712C61.6475 16.0041 61.5715 16.1939 61.5715 16.4217C61.5715 16.7064 61.6665 16.9152 61.8565 17.086C62.0464 17.2568 62.2934 17.3897 62.6163 17.5226C62.9202 17.6365 63.2812 17.7314 63.6801 17.8073C64.079 17.8832 64.4969 17.9781 64.9148 18.073C65.3327 18.1679 65.7316 18.2818 66.1305 18.4147C66.5295 18.5475 66.8904 18.7184 67.1943 18.9651C67.4982 19.1929 67.7642 19.4776 67.9541 19.8193C68.1441 20.1609 68.2391 20.5975 68.2391 21.091C68.2391 21.6984 68.1061 22.2108 67.8212 22.6474C67.5362 23.065 67.1753 23.4256 66.7384 23.6913C66.3015 23.9571 65.7886 24.1469 65.2567 24.2798C64.7058 24.3936 64.174 24.4696 63.6421 24.4696C62.9962 24.4696 62.3884 24.3936 61.8375 24.2418C61.2866 24.0899 60.7927 23.8622 60.3938 23.5775C59.9949 23.2738 59.672 22.9131 59.444 22.4576C59.2161 22.021 59.0831 21.4896 59.0641 20.8632H61.3626V20.8822H61.3816ZM68.8849 13.8782H70.6136V10.7654H72.8931V13.8593H74.9446V15.5486H72.8931V21.053C72.8931 21.2998 72.912 21.4896 72.931 21.6794C72.95 21.8502 73.007 22.002 73.064 22.1159C73.14 22.2298 73.254 22.3247 73.3869 22.3817C73.5389 22.4386 73.7289 22.4766 73.9948 22.4766C74.1468 22.4766 74.3177 22.4766 74.4697 22.4576C74.6217 22.4386 74.7926 22.4196 74.9446 22.3817V24.1469C74.6977 24.1848 74.4507 24.2038 74.2038 24.2228C73.9568 24.2608 73.7289 24.2608 73.4629 24.2608C72.8551 24.2608 72.3802 24.2038 72.0192 24.0899C71.6583 23.9761 71.3734 23.8052 71.1644 23.5964C70.9555 23.3687 70.8225 23.1029 70.7465 22.7803C70.6705 22.4576 70.6326 22.059 70.6136 21.6414V15.5675H68.8849V13.8403V13.8782ZM76.5402 13.8782H78.6868V15.2828H78.7248C79.0477 14.6754 79.4846 14.2579 80.0545 13.9921C80.6244 13.7264 81.2322 13.5935 81.9161 13.5935C82.7329 13.5935 83.4357 13.7264 84.0436 14.0301C84.6515 14.3148 85.1454 14.6944 85.5443 15.2069C85.9432 15.7004 86.2471 16.2888 86.4371 16.9531C86.627 17.6175 86.741 18.3387 86.741 19.079C86.741 19.7813 86.646 20.4456 86.4751 21.091C86.2851 21.7363 86.0192 22.3247 85.6582 22.8182C85.2973 23.3117 84.8414 23.7103 84.2716 24.014C83.7017 24.3177 83.0558 24.4696 82.296 24.4696C81.9731 24.4696 81.6311 24.4316 81.3082 24.3747C80.9853 24.3177 80.6623 24.2228 80.3584 24.0899C80.0545 23.9571 79.7695 23.7863 79.5226 23.5775C79.2567 23.3687 79.0477 23.1219 78.8767 22.8562H78.8387V28H76.5592V13.8782H76.5402ZM84.4995 19.041C84.4995 18.5855 84.4425 18.13 84.3095 17.6934C84.1956 17.2568 84.0056 16.8772 83.7587 16.5356C83.5117 16.1939 83.2078 15.9282 82.8659 15.7194C82.5049 15.5106 82.087 15.4157 81.6311 15.4157C80.6813 15.4157 79.9595 15.7384 79.4656 16.4027C78.9907 17.067 78.7438 17.9591 78.7438 19.06C78.7438 19.5915 78.8008 20.066 78.9337 20.5026C79.0667 20.9391 79.2377 21.3187 79.5036 21.6414C79.7505 21.9641 80.0545 22.2108 80.4154 22.4006C80.7763 22.5905 81.1752 22.6854 81.6501 22.6854C82.182 22.6854 82.5999 22.5715 82.9608 22.3627C83.3218 22.1539 83.6067 21.8692 83.8536 21.5465C84.0816 21.2049 84.2525 20.8252 84.3475 20.3887C84.4425 19.9331 84.4995 19.4966 84.4995 19.041ZM88.5076 9.94921H90.7871V12.094H88.5076V9.94921ZM88.5076 13.8782H90.7871V24.1849H88.5076V13.8782ZM92.8197 9.94921H95.0992V24.1849H92.8197V9.94921ZM102.052 24.4696C101.235 24.4696 100.494 24.3367 99.8481 24.052C99.2023 23.7673 98.6704 23.4066 98.2145 22.9321C97.7776 22.4576 97.4356 21.8692 97.2077 21.2049C96.9797 20.5405 96.8468 19.8003 96.8468 19.0221C96.8468 18.2438 96.9607 17.5226 97.2077 16.8582C97.4356 16.1939 97.7776 15.6245 98.2145 15.131C98.6514 14.6565 99.2023 14.2768 99.8481 14.0111C100.494 13.7454 101.235 13.5935 102.052 13.5935C102.868 13.5935 103.609 13.7264 104.255 14.0111C104.901 14.2768 105.433 14.6565 105.889 15.131C106.326 15.6055 106.668 16.1939 106.896 16.8582C107.124 17.5226 107.256 18.2438 107.256 19.0221C107.256 19.8193 107.143 20.5405 106.896 21.2049C106.649 21.8692 106.326 22.4386 105.889 22.9321C105.452 23.4066 104.901 23.7863 104.255 24.052C103.609 24.3177 102.887 24.4696 102.052 24.4696ZM102.052 22.6664C102.546 22.6664 103.001 22.5525 103.362 22.3437C103.742 22.1349 104.027 21.8502 104.274 21.5086C104.521 21.1669 104.692 20.7683 104.806 20.3507C104.92 19.9142 104.977 19.4776 104.977 19.0221C104.977 18.5855 104.92 18.1489 104.806 17.7124C104.692 17.2758 104.521 16.8962 104.274 16.5545C104.027 16.2129 103.723 15.9472 103.362 15.7384C102.982 15.5296 102.546 15.4157 102.052 15.4157C101.558 15.4157 101.102 15.5296 100.741 15.7384C100.361 15.9472 100.076 16.2319 99.8291 16.5545C99.5822 16.8962 99.4112 17.2758 99.2972 17.7124C99.1833 18.1489 99.1263 18.5855 99.1263 19.0221C99.1263 19.4776 99.1833 19.9142 99.2972 20.3507C99.4112 20.7873 99.5822 21.1669 99.8291 21.5086C100.076 21.8502 100.38 22.1349 100.741 22.3437C101.121 22.5715 101.558 22.6664 102.052 22.6664ZM107.94 13.8782H109.669V10.7654H111.948V13.8593H114V15.5486H111.948V21.053C111.948 21.2998 111.967 21.4896 111.986 21.6794C112.005 21.8502 112.062 22.002 112.119 22.1159C112.195 22.2298 112.309 22.3247 112.442 22.3817C112.594 22.4386 112.784 22.4766 113.05 22.4766C113.202 22.4766 113.373 22.4766 113.525 22.4576C113.677 22.4386 113.848 22.4196 114 22.3817V24.1469C113.753 24.1848 113.506 24.2038 113.259 24.2228C113.012 24.2608 112.784 24.2608 112.518 24.2608C111.91 24.2608 111.436 24.2038 111.075 24.0899C110.714 23.9761 110.429 23.8052 110.22 23.5964C110.011 23.3687 109.878 23.1029 109.802 22.7803C109.726 22.4576 109.688 22.059 109.669 21.6414V15.5675H107.94V13.8403V13.8782Z" fill="white"/>
<path d="M27.2515 9.88516H16.8402L13.6353 0L10.4113 9.88516L0 9.86622L8.4201 15.9829L5.19619 25.8681L13.6163 19.7514L22.0364 25.8681L18.8314 15.9829L27.2515 9.88516Z" fill="#00B67A"/>
<path d="M19.5467 18.2522L18.8343 16.0609L13.6969 19.7563L19.5467 18.2522Z" fill="#005128"/>
</g>
<g id="Vector_2">
<path d="M126 5H146.438V25H126V5ZM148.141 5H168.578V25H148.141V5ZM170.281 5H190.719V25H170.281V5ZM192.422 5H212.859V25H192.422V5ZM214.562 5H235V25H214.562V5Z" fill="#00B67A"/>
<path d="M136.219 18.4792L139.327 17.7083L140.626 21.625L136.219 18.4792ZM143.372 13.4167H137.901L136.219 8.37499L134.537 13.4167H129.066L133.494 16.5417L131.812 21.5833L136.24 18.4583L138.965 16.5417L143.372 13.4167ZM158.359 18.4792L161.468 17.7083L162.766 21.625L158.359 18.4792ZM165.513 13.4167H160.041L158.359 8.37499L156.678 13.4167H151.206L155.634 16.5417L153.953 21.5833L158.381 18.4583L161.106 16.5417L165.513 13.4167ZM180.5 18.4792L183.608 17.7083L184.907 21.625L180.5 18.4792ZM187.653 13.4167H182.182L180.5 8.37499L178.818 13.4167H173.347L177.775 16.5417L176.093 21.5833L180.521 18.4583L183.246 16.5417L187.653 13.4167ZM202.641 18.4792L205.749 17.7083L207.047 21.625L202.641 18.4792ZM209.794 13.4167H204.322L202.641 8.37499L200.959 13.4167H195.488L199.916 16.5417L198.234 21.5833L202.662 18.4583L205.387 16.5417L209.794 13.4167ZM224.781 18.4792L227.889 17.7083L229.188 21.625L224.781 18.4792ZM231.934 13.4167H226.463L224.781 8.37499L223.099 13.4167H217.628L222.056 16.5417L220.374 21.5833L224.803 18.4583L227.528 16.5417L231.934 13.4167Z" fill="white"/>
</g>
</g>
</svg>
