<svg xmlns="http://www.w3.org/2000/svg" viewBox="0 0 111.04 44.37"><defs><style>.cls-1{fill:#fff;}.cls-2{fill:#232323;}.cls-3{fill:#fd575a;}</style></defs><g id="Layer_2" data-name="Layer 2"><g id="Layer_2-2" data-name="Layer 2"><polygon class="cls-1" points="3.62 42.87 24.92 21.57 5.22 1.5 16.49 1.5 36.35 21.37 14.85 42.87 3.62 42.87"/><path class="cls-2" d="M15.87,3,34.23,21.37l-20,20h-7L27,21.58,8.79,3h7.08m1.24-3H1.65l5,5.1L22.81,21.56,5.12,39.25,0,44.37H15.47l.88-.88,20-20,2.13-2.12-2.13-2.12L18,.88,17.11,0Z"/><polygon class="cls-1" points="76.18 42.87 97.48 21.57 77.78 1.5 89.05 1.5 108.92 21.37 87.41 42.87 76.18 42.87"/><path class="cls-2" d="M88.43,3l18.36,18.37-20,20h-7L99.59,21.58,81.36,3h7.07m1.24-3H74.21l5,5.1L95.37,21.56,77.68,39.25l-5.12,5.12H88l.88-.88,20-20L111,21.37l-2.12-2.12L90.55.88,89.67,0Z"/><polygon class="cls-3" points="32.53 42.87 53.83 21.57 34.13 1.5 60.14 1.5 80.01 21.37 58.5 42.87 32.53 42.87"/><path class="cls-2" d="M59.52,3,77.89,21.37l-20,20H36.15L55.94,21.58,37.7,3H59.52m1.24-3H30.55l5,5.1L51.72,21.56,34,39.25l-5.12,5.12H59.12l.88-.88,20-20,2.12-2.12L80,19.25,61.64.88,60.76,0Z"/></g></g></svg>